<?xml version="1.0" standalone="no"?>
<!DOCTYPE svg PUBLIC "-//W3C//DTD SVG 1.1//EN" "http://www.w3.org/Graphics/SVG/1.1/DTD/svg11.dtd" >
<svg xmlns="http://www.w3.org/2000/svg">
<metadata></metadata>
<defs>
<font id="kg_be_still_and_knowregular" horiz-adv-x="984" >
<font-face units-per-em="2048" ascent="1638" descent="-410" />
<missing-glyph horiz-adv-x="508" />
<glyph horiz-adv-x="2048" />
<glyph horiz-adv-x="2048" />
<glyph unicode="&#xd;" horiz-adv-x="508" />
<glyph unicode=" "  horiz-adv-x="508" />
<glyph unicode="&#x09;" horiz-adv-x="508" />
<glyph unicode="&#xa0;" horiz-adv-x="508" />
<glyph unicode="!" horiz-adv-x="408" d="M44 1642q0 30 17 50t51 20q32 4 67 5t61 -16t39 -61t1 -132v-18v-30t-1 -31t-1 -19q0 -48 -1 -107t5 -111l6 -532l12 -84q20 2 31 -1t17 -12t10 -28t10 -51q0 -28 -1 -57t-31 -41q-70 -10 -102 -8t-45 10t-15 19t-10 21q-12 8 -18 27t-9 41t-3 42v32q4 162 -8 335t-8 337 q0 12 1 52t2 86t2 86t1 52q-6 6 -7 8t-1 1t-3 -3t-15 -2q-20 2 -31 20t-16 39t-6 39t-1 22zM94 129q-2 47 25 87t77 44q56 0 88 -11t48 -28t22 -37t10 -38q0 -28 -11 -55t-29 -49t-43 -35t-55 -11q-68 4 -99 45t-33 88z" />
<glyph unicode="&#x22;" horiz-adv-x="890" d="M96 1508v38q4 16 17 33t30 32t35 24t34 9q92 0 134 -43t42 -139q0 -44 -13 -90t-38 -85t-62 -64t-87 -25q-16 0 -29 11t-13 27v6q10 22 32 49t32 39l2 4v2q0 8 -23 18t-29 14q-38 34 -51 63t-13 77zM490 1496v38q4 16 17 33t30 32t35 24t34 9q92 0 134 -43t42 -139 q0 -44 -13 -90t-38 -85t-62 -64t-87 -25q-16 0 -29 11t-13 27v6q10 22 32 49t32 39l2 4v2q0 8 -23 18t-29 14q-38 34 -51 63t-13 77z" />
<glyph unicode="#" horiz-adv-x="1472" d="M60 568q-4 70 0 103t12 45t19 13t21 9q8 10 28 15t42 6t42 0t32 -1q38 -4 77 -6t79 -4q-4 76 -6 153t0 153l-38 2l-84 -6q0 -20 -3 -30t-13 -16t-29 -9t-51 -7q-28 2 -57 4t-39 34q-4 70 0 102t12 44t19 13t21 9q8 12 28 17t42 6t42 0t32 -1q28 -4 58 -5t62 -3q0 46 1 85 t3 53q-6 6 -7 8t-1 1t-3 -3t-15 -2q-20 2 -31 20t-16 39t-6 39t-1 22q0 30 17 50t51 20q32 4 67 5t61 -16t39 -61t1 -132v-18v-30t-1 -31t-1 -19v-36q76 -2 151 -3t149 -5q0 48 1 92t3 58q-6 6 -7 8t-1 1t-3 -3t-15 -2q-20 2 -31 20t-16 39t-6 39t-1 22q0 30 17 50t51 20 q32 4 67 5t61 -16t39 -61t1 -132v-18v-30t-1 -31t-1 -19q0 -12 -1 -25t-1 -29q28 -2 61 -5t64 -6t54 -5t33 -2q8 6 10 7t1 1t-3 3t-2 15q4 20 22 30t39 13t40 3h23q30 -2 49 -20t17 -52q2 -34 1 -68t-20 -59t-65 -35t-132 8q-4 0 -18 1t-30 2t-30 2t-18 3q-22 2 -45 3t-47 3 q0 -2 1 -3t1 -3l2 -296q26 -2 54 -4t52 -4t42 -4t26 -2q6 6 8 6q-4 0 -4 18q4 20 22 30t39 14t40 4h23q30 -4 49 -22t17 -52q2 -34 1 -68t-20 -59t-64 -34t-131 7q-4 0 -18 1t-30 2t-31 3t-19 2q-14 0 -26 1t-28 3l2 -78l12 -84q20 2 31 -1t17 -12t10 -28t10 -51 q0 -28 -1 -57t-31 -41q-70 -10 -102 -8t-45 10t-15 19t-10 21q-12 8 -18 27t-9 41t-3 42v32q2 42 1 86t-3 88h-10l-294 16l2 -98l12 -84q20 2 31 -1t17 -12t10 -28t10 -51q0 -28 -1 -57t-31 -41q-70 -10 -102 -8t-45 10t-15 19t-10 21q-12 8 -18 27t-9 41t-3 42v32 q2 48 1 96t-3 100l-84 4l-84 -6q0 -20 -3 -30t-13 -16t-29 -9t-51 -7q-28 2 -57 5t-39 33zM566 1046q2 -8 2 -14t2 -12l2 -276q76 0 151 -2t149 -6q-4 74 -7 148t-3 146z" />
<glyph unicode="$" horiz-adv-x="1088" d="M24 1320q0 106 59 187t149 131q24 14 62 31t68 17q64 10 124 6q0 26 2 29t4 13q-6 6 -7 8t-1 1t-3 -3t-15 -2q-20 2 -31 20t-16 39t-6 39t-1 22q0 30 17 50t51 20q36 14 72 10t62 -29t36 -69t-4 -106q0 -18 -1 -37t-1 -39q76 -28 127 -64t75 -62h6v74q0 34 27 43t59 9 q30 2 44 2t22 -3t13 -12t15 -23q8 -52 12 -95t4 -105q0 -44 1 -71t-3 -43t-15 -24t-35 -12l-80 2q-24 0 -38 25t-26 41q-34 34 -84 81t-118 81l-18 -574q110 -54 191 -105t135 -111t80 -133t26 -171q0 -206 -116 -307t-326 -101h-8l6 -40q20 2 31 -1t17 -12t10 -28t10 -51 q0 -28 -1 -57t-31 -41q-70 -10 -102 -8t-45 10t-15 19t-10 21q-12 8 -18 27t-9 41t-3 42v32v27t2 31q-54 8 -106 19t-86 25q-4 2 -25 12t-25 12l-4 2q-6 0 -11 -18t-9 -24q0 -8 -8 -8l-100 2q-12 0 -20 11t-12 21v56q0 36 2 62l4 52t3 53t-1 67q12 18 38 25t54 7t48 -5 t20 -9q2 -30 1 -48t0 -32t6 -25t17 -27q28 -36 86 -62t130 -40q4 136 6 317t6 375q-32 16 -61 31t-53 29q-64 34 -124 73t-106 90t-74 116t-28 149zM181 1266q-1 -24 9 -34q20 -38 52 -71t71 -63t80 -54t81 -44q2 92 4 177t3 158t3 129t2 90q-36 2 -72 0q-52 0 -95 -21 t-73 -57t-47 -83t-17 -97q0 -6 -1 -30zM610 126q34 -4 86 5t101 39t86 87t41 153q4 36 -12 79t-48 85t-77 81t-97 65q-16 8 -31 16t-31 18z" />
<glyph unicode="%" horiz-adv-x="1502" d="M40 1202q-6 102 4 200q6 66 36 126t76 104t106 68t128 18q110 -12 178 -58t103 -118t42 -163t-3 -189q0 -6 -2 -19t-4 -29t-4 -29t-2 -19q-26 -96 -85 -178t-155 -120q-20 -4 -38 3t-38 -3q-120 12 -192 72t-108 146t-42 188zM222 1184q-4 -34 6 -76t31 -80t52 -66 t69 -32h18t18 2q30 18 51 47t36 64t23 72t12 69t2 101t-14 138t-35 122t-61 55q-34 2 -67 -17t-59 -49t-44 -65t-20 -63zM258 14q0 34 18 68t38 60l144 290l426 830l88 180q6 14 22 46l34 68l34 68t22 46q10 22 26 44t44 22q6 0 24 -9t36 -22t33 -26t15 -21v-4q-2 -4 -5 -16 t-3 -16q-10 -24 -29 -65t-38 -83t-36 -74t-19 -38q-18 -46 -40 -92t-44 -90q-10 -18 -25 -48t-25 -54q-102 -176 -190 -354t-172 -362q-4 -12 -3 -10t-5 -8l-21 -42t-39 -75t-43 -81t-33 -60q-10 -16 -23 -41t-29 -48t-35 -39t-41 -16q-32 0 -69 18t-37 54zM835 396 q-1 98 9 172q10 86 40 157t80 120t121 72t167 11q84 -18 130 -84t67 -151t22 -177t-7 -164q-6 -50 -29 -119t-63 -130t-101 -101t-141 -34q-112 12 -174 80t-91 159t-30 189zM1008 431q0 -69 9 -140t30 -127t59 -60q56 -6 90 21t55 71t30 93t13 87q2 22 6 61t6 86t-1 96 t-13 90t-30 68t-54 31q-42 6 -76 -24t-60 -74t-41 -94t-19 -84q-4 -32 -4 -101z" />
<glyph unicode="&#x26;" horiz-adv-x="1320" d="M42 586q6 62 29 126t59 126t81 117t97 99q-18 42 -39 83t-37 83t-27 87t-11 93q0 62 23 116t64 95t95 64t116 23q50 0 91 -23t69 -61t43 -84t15 -92q0 -26 -4 -57t-13 -63t-21 -61t-28 -49q-24 -42 -57 -75t-63 -71v-4v-4q2 -8 11 -26t19 -39t20 -39t14 -24t18 -26 t30 -42t30 -42t18 -26q18 -28 49 -78t67 -102t74 -96t68 -58q14 26 28 66t22 98t7 136t-17 182q-10 18 -31 24t-45 8t-45 0t-33 2q-16 0 -18 14t-2 26q0 22 2 42t6 46q12 20 44 31t54 11q34 0 64 -14t59 -31t58 -31t61 -14q22 0 34 4t28 4q46 0 63 -36t17 -76q0 -42 -23 -59 t-51 -22t-52 -6t-26 -9q18 -60 20 -119t-5 -119t-21 -122t-32 -128q32 -38 50 -49t30 -12t23 -1t27 -16q-6 -28 -9 -52t-11 -42t-25 -28t-49 -10q-24 0 -38 4t-25 10t-24 13t-37 13q-46 -52 -106 -97t-126 -78t-134 -51t-128 -16q-134 -10 -233 40t-161 139t-85 208t-5 247z M222 538q-4 -74 10 -147t50 -132t94 -96t142 -37q32 0 81 10t99 32t94 58t68 88l-12 12q-10 10 -10 14q-34 44 -73 73t-73 71q-74 92 -156 200t-134 216q-28 -20 -58 -58t-56 -86t-44 -104t-22 -114zM368 1378q6 -52 29 -104t59 -84q8 0 24 19t32 43t29 47t15 29q6 18 7 35 t1 37q0 26 -10 51t-27 43t-40 26t-49 2q-44 -10 -60 -51t-10 -93z" />
<glyph unicode="'" horiz-adv-x="540" d="M96 1508v38q4 16 17 33t30 32t35 24t34 9q92 0 134 -43t42 -139q0 -44 -13 -90t-38 -85t-62 -64t-87 -25q-16 0 -29 11t-13 27v6q10 22 32 49t32 39l2 4v2q0 8 -23 18t-29 14q-38 34 -51 63t-13 77z" />
<glyph unicode="(" horiz-adv-x="652" d="M44 722q-6 162 15 313t77 307q18 72 59 151t92 150t103 123t92 68q20 8 36 15t34 13t39 8t49 -2q12 -12 17 -33t4 -42t-8 -39t-17 -24q-72 -12 -129 -57t-102 -108t-77 -138t-55 -150t-37 -142t-22 -113q-16 -84 -13 -174t7 -176q2 -56 11 -129t28 -151t49 -153t71 -134 t96 -95t125 -34q8 -2 13 -4t8 -10t5 -22t6 -40q4 -28 -6 -51t-26 -17q-110 -2 -192 38t-142 108t-99 158t-63 189t-35 202t-13 195z" />
<glyph unicode=")" horiz-adv-x="688" d="M47 -91q1 21 8 39t17 24q72 12 129 57t102 108t77 138t55 150t37 142t22 113q16 84 13 174t-7 176q-2 56 -11 129t-28 151t-49 153t-71 134t-96 94t-125 35q-8 2 -13 4t-8 10t-6 22t-5 40q-4 28 6 51t26 17q110 2 192 -38t142 -108t99 -158t63 -189t34 -202t14 -195 q6 -162 -15 -313t-77 -307q-18 -72 -59 -151t-92 -150t-103 -123t-92 -68q-20 -8 -36 -15t-34 -13t-39 -8t-49 2q-12 12 -17 33t-4 42z" />
<glyph unicode="*" horiz-adv-x="924" d="M70 754q2 12 7 23t9 15q12 16 11 24t17 20q40 -2 95 -22t113 -30q2 -2 28 -10q-28 64 -48 106t-24 52q-4 8 -12 33t-10 43q-4 12 3 21t17 15t22 9t18 3q18 2 23 9t25 1q28 -32 48 -87t48 -107q2 -6 10 -25t20 -47q20 18 35 30t19 18q46 34 87 75t79 61q10 -2 15 -5t8 -7 t6 -9t13 -9q6 -2 15 -9t16 -17t9 -21t-6 -21q-10 -16 -29 -35t-23 -27q-8 -6 -41 -34t-81 -72q86 -18 155 -35t83 -25q8 -10 8 -32t-7 -45t-18 -39t-25 -10q-10 -2 -68 11t-138 33q34 -72 59 -130t27 -72q0 -12 -18 -26t-39 -24t-41 -12t-24 12q-4 4 -16 25t-28 55t-37 77 t-41 89q-40 -34 -76 -66t-65 -56t-48 -39t-25 -17q-10 -10 -28 0t-33 27t-25 37t-6 32q6 14 57 58t115 98q-58 16 -100 26t-52 14q-8 2 -32 12t-40 18q-12 6 -15 17t-1 23z" />
<glyph unicode="+" horiz-adv-x="576" d="M43 656q-1 12 1 24t6 18q4 8 4 14v11t2 10t10 13q26 6 63 4t77 -4q0 28 1 49t3 31q0 8 4 35t8 43q2 12 12 18t22 7t24 -2t18 -5q18 -8 25 -5t23 -11q6 -30 3 -73t-5 -89q48 0 102 1t76 -7q10 -6 15 -28t4 -46t-8 -42t-21 -16q-10 -4 -60 -5t-108 1q2 -44 2 -88t-8 -64 q-6 -10 -28 -15t-46 -4t-42 8t-16 21q-4 10 -4 52v94q-20 2 -35 3t-21 1q-8 0 -35 4t-43 8q-12 2 -18 12t-7 22z" />
<glyph unicode="," horiz-adv-x="490" d="M84 152v38q4 16 17 33t30 32t35 24t34 9q92 0 134 -43t42 -139q0 -44 -13 -90t-38 -85t-62 -64t-87 -25q-16 0 -29 11t-13 27v6q10 22 32 49t32 39l2 4v2q0 8 -23 18t-29 14q-38 34 -51 63t-13 77z" />
<glyph unicode="-" horiz-adv-x="480" d="M29 650q-1 12 1 24t6 18q4 8 4 14v11t2 10t10 13q40 10 98 3t116 -3q18 -2 39 0t43 4t42 2t36 -6q10 -6 15 -28t4 -46t-8 -42t-21 -16q-12 -4 -52 -5t-86 -1t-89 1t-57 1q-8 0 -35 4t-43 8q-12 2 -18 12t-7 22z" />
<glyph unicode="." horiz-adv-x="546" d="M116 180q0 24 11 53t31 53t45 40t55 16t62 -6t58 -20t43 -40t17 -64q0 -34 -9 -71t-28 -67t-47 -50t-66 -20q-72 0 -122 49t-50 127z" />
<glyph unicode="/" horiz-adv-x="986" d="M11 61q1 15 5 25q12 16 23 37t23 43q18 34 34 64t26 50l100 208q2 4 10 21t16 37t16 36l10 20q30 58 58 122t71 160t112 237t183 351q2 10 9 25l14 30t12 30t3 27l62 122q10 18 38 22t57 -1t49 -18t14 -27l-40 -98q-2 0 -7 -11t-12 -25l-13 -26l-8 -16l-460 -990 l-214 -440q-4 -20 -24 -45t-44 -27q-26 -4 -59 12t-51 22q-14 8 -13 23z" />
<glyph unicode="0" horiz-adv-x="1184" d="M30 926v40q0 88 26 200t75 216t121 185t164 107q20 -12 26 3t22 21l49 14t40 9t39 4t50 1q102 0 180 -38t134 -101t93 -145t59 -171t31 -178t9 -165q0 -90 -8 -194t-31 -207t-63 -198t-103 -168t-153 -117t-210 -44q-64 0 -113 14t-101 48q-104 70 -171 161t-105 200 t-51 235t-9 268zM190 952q0 -76 2 -133t8 -109t17 -107t31 -129q10 -36 35 -83t47 -77q0 -2 9 -12t20 -23t23 -26t20 -21q22 -26 52 -44t61 -28t57 -12t40 4h4q68 0 114 18t78 51t55 78t45 97q8 20 8 25t16 23q10 40 23 90t17 94q2 18 4 37t5 65t6 135t7 245q-2 4 -5 13 t-3 13v8q-2 8 -4 23t-5 30t-5 27t-2 16q-12 64 -42 124t-72 104t-95 67t-113 17h-6q-112 0 -196 -57t-141 -145t-86 -194t-29 -204z" />
<glyph unicode="1" horiz-adv-x="828" d="M56 1356q0 24 10 54t22 52q12 20 32 35t43 28t45 25t40 24q42 24 68 45t50 39t52 33t76 27q48 0 64 -44q0 -26 1 -83t2 -121t2 -122t1 -82q0 -18 -2 -48t-3 -63t-1 -63t4 -50l14 -726q0 -4 1 -18t2 -31t3 -33t2 -24q2 -4 4 -16t4 -16q10 2 34 2t51 -1t52 -2t35 1 q22 0 32 -28t9 -60t-11 -57t-30 -21l-88 -4q0 -2 -6 -5t-10 -3q-2 0 -11 4t-13 4q-58 8 -102 8h-102h-38t-16 -1t-15 -1h-37h-40q-4 0 -20 4t-20 4q-2 0 -11 -4t-13 -4q-28 0 -41 11t-18 28t-5 38v41t12 43t36 23q2 0 12 -1t20 -3t20 -3t12 -1l132 4q-6 118 -6 229t1 221 t3 221t2 229q0 114 -1 207t-7 207h-4q-8 0 -29 -9t-42 -21t-38 -23t-17 -17q22 -40 18 -75t-24 -60t-51 -39t-62 -9t-56 28t-33 73z" />
<glyph unicode="2" horiz-adv-x="1156" d="M54 1276q0 4 3 25t5 31q32 138 116 234t226 146q42 14 86 15t88 1h4q78 -22 145 -61t115 -94t76 -127t28 -156q0 -142 -34 -275t-128 -227q-22 -18 -62 -48l-84 -63t-83 -64t-59 -55q-40 -46 -68 -74t-52 -53t-46 -57t-48 -86q-12 -34 -24 -71t-12 -73q74 0 161 -1t175 0 t175 6t165 15q18 20 15 28t-1 34q0 12 1 26t3 26q12 28 34 28h44q26 0 57 -16t31 -48l20 -128q-10 -22 -13 -40t-19 -40q-12 -16 -39 -22t-58 -8t-60 0t-45 2h-12q-4 0 -13 4t-11 4q-8 0 -8 -8h-64q-88 -8 -172 -7t-172 1h-46t-44 8h-218q-28 0 -41 9t-17 23t-4 34v42 q0 34 10 57t20 51q4 8 9 27t7 23q32 120 100 207t153 162t176 148t169 163q28 66 55 125t27 135v46t-1 56t-5 54t-12 42q-18 36 -42 69t-56 59t-68 42t-78 16q-58 0 -115 -22t-102 -60t-74 -91t-29 -113v-28q0 -8 8 -8q36 34 80 36t80 -19t53 -59t-1 -82q-6 -42 -43 -69 t-87 -34t-103 8t-87 55q-24 38 -42 78t-18 86z" />
<glyph unicode="3" d="M40 436q-4 54 6 106t35 93t64 66t93 25q54 -4 84 -33t39 -69t-2 -83t-37 -74t-66 -43t-92 12v-32q12 -60 35 -113t57 -92t77 -61t97 -22q78 -2 149 23t125 70t86 106t32 133q0 60 -13 121t-44 112t-81 87t-122 48q-44 8 -75 6t-69 10q-26 20 -27 40t-1 48q0 22 6 39 t28 29q2 2 18 4t34 5t33 6t19 3q46 16 86 49t70 76t47 92t17 99q0 48 -17 96t-48 88t-74 65t-95 25q-34 0 -75 -14t-76 -39t-59 -58t-24 -71q0 -14 1 -22t7 -22q40 6 66 -26t29 -77t-21 -88t-82 -55q-86 -18 -143 34t-57 160q0 46 17 90t39 82q68 120 163 176t239 56h48 q78 -10 134 -45t93 -82t58 -98t31 -93q4 -58 2 -106t-11 -89t-25 -78t-40 -75q-2 -4 -10 -13t-17 -21t-18 -22t-13 -16l-40 -40q-4 -4 -10 -13t-6 -11q40 -36 78 -71t70 -74t58 -85t42 -104v-22t1 -35t1 -36v-23q-8 -102 -43 -190t-100 -152t-160 -100t-223 -36 q-80 6 -149 36t-121 85t-86 136t-42 187z" />
<glyph unicode="4" horiz-adv-x="1170" d="M21 746q5 30 17 46q0 12 19 45t45 71t49 70t33 42q36 40 61 74t47 68t45 70t57 78q36 46 73 90t71 94q2 2 10 15t18 28t18 28t10 17q16 22 30 47t32 45t40 33t52 13q24 4 55 -1t39 -37q0 -18 -3 -35t-5 -33q0 -8 -1 -37t-2 -63t-2 -63t-1 -37v-21v-36v-35v-20t-3 -13 t-5 -11l6 -550q38 0 58 -3t54 9q12 62 50 86t77 17t68 -45t23 -100q-4 -36 -21 -59t-39 -35t-45 -15t-37 1q-2 0 -33 -1t-67 -2t-65 -3l-29 -2l2 -392h88q2 0 7 -7t9 -13l13 -26l11 -22q2 -10 -3 -22t-7 -22q2 -2 5 -8t3 -8v-4q0 -18 -17 -25t-31 -11q-42 -8 -74 -11t-62 -3 t-63 1t-77 1q-24 0 -40 1t-46 7q-10 8 -18 27t-6 29l10 98q0 10 15 14t21 4q16 0 21 -1t7 -2t7 -2t21 -1q4 0 14 -1t12 9q0 6 1 25t1 25q0 10 -1 27t-1 21q0 22 1 70t4 96t4 85l1 37l-8 8l-526 28q-42 2 -65 25t-30 53t-2 60zM174 750q32 -14 89 -19t120 -5t122 2t95 0h14 q18 0 29 5t13 27q2 18 4 49t4 65t4 66t4 50l8 136q0 4 4 20t4 20v13v23v23v13q0 10 2 51t4 89t4 89t2 51q-4 -16 -10 -28q-4 -6 -5 -10t-3 -8l-4 -8q-8 0 -29 -28t-44 -64t-43 -69t-26 -41t-32 -45t-55 -79t-55 -79t-32 -45q-52 -58 -96 -133t-92 -131z" />
<glyph unicode="5" horiz-adv-x="1020" d="M50 454q0 146 112 226q8 8 16 8l76 8q32 4 56 -17t36 -54t11 -72t-18 -69t-52 -45t-91 -3q-12 -118 45 -184t223 -78q26 0 41 1t27 6t26 12l38 19q126 66 172 165t46 235q0 62 -16 125t-52 113t-96 80t-148 30q-34 0 -81 -5t-96 -12t-96 -12t-79 -5q-30 0 -47 15t-25 37 t-10 50t-2 52q0 10 5 20t5 22q0 30 -8 59t-10 57q-2 16 -1 57t3 83q2 50 2 106l-8 8v28q0 30 6 64t19 64t37 50t60 20q22 0 36 -1t36 -9l304 2l264 8q16 0 45 -1t31 -1l16 -16q0 -2 1 -21t1 -29q0 -50 4 -82t1 -48t-19 -21t-54 -1q-42 -8 -62 -7t-30 9t-15 21t-13 29 q-48 0 -111 -1t-129 -3t-129 -3t-111 -1q0 -6 -1 -24t-1 -37v-37v-24q0 -28 2 -70t3 -88t3 -89t4 -69h12h12q4 0 38 3t74 6t74 6t38 3q44 2 93 -4t96 -21t88 -37t65 -52q86 -114 116 -232t16 -234q0 -118 -45 -214t-122 -163t-178 -103t-213 -36q-6 0 -19 1t-27 1t-25 1 t-13 1l-58 16q-2 0 -16 10t-33 24t-39 29t-32 25q-34 26 -54 65t-31 82t-15 88t-4 85z" />
<glyph unicode="6" horiz-adv-x="1000" d="M38 846q0 44 3 99t10 111t18 109t27 95q-4 24 7 42t17 40q26 78 75 145t113 116t142 78t162 29q74 4 137 -26t109 -77t72 -103t26 -106q0 -72 -40 -105t-104 -33h-50q-32 14 -56 43t-24 67t16 72l32 68q-16 26 -49 37t-61 11q-56 0 -117 -21t-135 -81q-60 -54 -96 -134 t-56 -168t-27 -172t-7 -144v-35t8 -31q8 0 8 8q38 42 73 75t72 58t79 43t98 32q4 2 24 8t24 8h4q94 8 168 -24t125 -94t78 -151t27 -197q0 -90 -33 -185t-92 -174t-142 -129t-183 -50q-80 4 -153 36t-135 102t-110 183t-76 281q4 60 -2 122t-6 122zM212 502q12 -60 38 -124 t66 -116t93 -86t117 -34h32q4 2 25 11t31 13q120 64 170 169t50 241q0 48 -16 100t-45 96t-67 73t-82 29q-66 0 -126 -21t-111 -59t-92 -88t-67 -108q-6 -16 -11 -36t-5 -38v-22z" />
<glyph unicode="7" horiz-adv-x="1224" d="M52 1516q0 30 3 62t14 58t35 43t66 17l274 8h168q196 0 304 -1t158 -2t59 -2t9 -3q20 8 33 -13t1 -69q0 -24 -18 -54t-32 -48q-100 -134 -169 -267t-111 -273t-61 -292t-19 -326q0 -12 1 -38t2 -55t3 -53t2 -32q0 -4 4 -19t9 -33t9 -33t4 -19v-12q0 -16 -7 -25t-19 -19 q-22 -6 -32 -9t-18 -3h-17h-29h-44q-6 4 -9 11t-7 13q-6 50 -11 108t-7 119t-3 121t-1 112q0 194 42 387t110 371l230 330q-222 0 -367 3t-233 0t-126 -14t-44 -37q42 20 74 11t50 -36t22 -63t-8 -67t-42 -52t-78 -17q-30 -4 -64 9t-60 40t-41 68t-9 95z" />
<glyph unicode="8" horiz-adv-x="1116" d="M42 390q-4 46 3 85t11 87q22 30 32 60t26 62q8 18 16 28t20 24q8 6 26 24t39 38t40 38t27 24v8q0 2 -17 18t-38 37t-41 40t-26 29q-16 26 -24 52t-22 52q0 8 -2 36t-2 36q-2 48 3 90t17 81t29 78t37 83q22 52 68 93t100 68t108 38t94 5q84 10 162 -20t140 -86t102 -131 t50 -155q2 -56 -5 -116t-28 -118t-58 -108t-93 -86q120 -76 181 -174t59 -250q2 -44 0 -88t-16 -84q-18 -60 -66 -112t-110 -92t-131 -64t-129 -26q-92 -18 -194 3t-187 74t-142 134t-59 185zM206 366q14 -78 65 -125t114 -72t129 -31t110 -2q66 6 127 38t106 82t67 116 t12 140q-4 52 -35 100t-78 86t-103 61t-110 23q-90 -4 -170 -35t-138 -86t-85 -130t-11 -165zM276 1250q-4 -68 24 -125t73 -98t100 -63t107 -20q42 -8 94 18t96 74t71 114t19 138q-2 80 -26 132t-62 85t-87 50t-103 25q-58 -2 -112 -26t-96 -67t-69 -103t-29 -134z" />
<glyph unicode="9" horiz-adv-x="1072" d="M38 1088q0 132 37 243t109 191t178 125t242 45q62 0 120 -16t107 -46t87 -72t62 -92q12 -36 24 -84t20 -131t10 -212t-6 -329q0 -4 -2 -36t-5 -73t-6 -79t-7 -56q-40 -194 -145 -306t-305 -160h-36q-24 0 -54 3t-62 9t-62 14t-50 18q-66 26 -111 65t-73 84t-40 93t-12 90 q0 66 31 115t107 55q52 -4 81 -42t33 -85t-20 -88t-76 -51q0 -26 31 -53t76 -48t96 -35t91 -14q58 6 102 26t78 50t60 68t50 80q28 52 43 119t21 135t6 128v96q-12 -20 -31 -35t-40 -27t-41 -21t-38 -19q-38 -8 -74 -14t-74 -6q-48 0 -97 4t-95 20q-50 14 -102 38t-99 65 t-84 102t-55 149zM218 1204q-10 -100 13 -160t65 -97t96 -58t106 -41q6 0 26 -1t26 -1q126 0 205 67t113 191q6 64 -2 139t-37 139t-83 106t-138 42q-70 0 -137 -22t-121 -63t-90 -102t-42 -139z" />
<glyph unicode=":" horiz-adv-x="644" d="M142 1098q0 24 11 53t31 53t45 40t55 16t62 -6t58 -20t43 -40t17 -64q0 -34 -9 -71t-28 -67t-47 -50t-66 -20q-72 0 -122 49t-50 127zM158 502q0 24 14 52t36 52t50 39t58 15q62 0 102 -40t40 -118q0 -68 -29 -118t-103 -50q-72 0 -120 46t-48 122z" />
<glyph unicode=";" horiz-adv-x="506" d="M60 802q0 24 7 56t21 60t35 47t51 19q32 0 69 -9t69 -27t53 -47t21 -67q0 -34 -9 -70t-28 -66t-48 -49t-67 -19q-72 0 -123 48t-51 124zM74 120q0 70 44 118t110 48q60 0 96 -15t56 -45t27 -73t7 -99q0 -104 -36 -179t-138 -109q-30 -12 -54 -21t-58 -9q-16 0 -21 9 t-5 19q0 32 20 45t43 24t43 32t20 73q0 12 -2 25t-16 21q-68 4 -102 32t-34 104z" />
<glyph unicode="&#x3c;" horiz-adv-x="924" d="M80 616v20t1 29t3 29t4 22l278 154q26 8 75 30t100 45t92 42t49 25q20 14 37 7t30 -26t21 -45t12 -48q4 -24 -8 -23t-20 -7q0 -8 -47 -26t-135 -64l-244 -110l-6 -10l258 -70l186 -34q30 -4 44 -11t18 -17t2 -25t-2 -35q-12 -14 -13 -31t-4 -33t-15 -28t-42 -12l-232 68 l-318 88q-14 2 -34 9t-40 18t-34 28t-16 41z" />
<glyph unicode="=" horiz-adv-x="724" d="M95 534q-1 12 1 24t6 18q4 8 4 14v11t2 10t10 13q40 10 98 3t116 -3q18 -2 60 0t90 4t89 2t57 -6q10 -6 15 -28t4 -46t-8 -42t-21 -16q-8 -2 -39 -4t-74 -2h-93h-94t-77 1t-43 1q-8 0 -35 4t-43 8q-12 2 -18 12t-7 22zM97 764q-1 12 1 24t6 18q4 8 4 14v11t2 10t10 13 q40 10 98 3t116 -3q18 -2 60 0t90 4t89 2t57 -6q10 -6 15 -28t4 -46t-8 -42t-21 -16q-8 -2 -39 -4t-74 -2h-93h-94t-77 1t-43 1q-8 0 -35 4t-43 8q-12 2 -18 12t-7 22z" />
<glyph unicode="&#x3e;" horiz-adv-x="914" d="M82 863q2 15 2 35q12 14 13 31t4 33t15 28t42 12l232 -68l318 -88q14 -2 34 -9t40 -18t34 -28t16 -41v-20t-1 -29t-3 -29t-4 -22l-278 -154q-26 -10 -75 -31t-100 -44t-92 -42t-49 -25q-20 -16 -37 -8t-30 27t-21 45t-12 48q-2 12 0 16t7 6t11 3t10 5q0 8 47 26t135 64 l244 110l6 10l-258 70l-186 34q-30 4 -44 11t-18 17t-2 25z" />
<glyph unicode="?" horiz-adv-x="996" d="M52 1254q0 4 3 25t5 31q32 138 116 234t226 146q42 14 86 15t88 1h4q78 -22 145 -61t115 -94t76 -127t28 -156q0 -142 -34 -275t-128 -227q-6 -10 -41 -38t-82 -58t-97 -55t-86 -29q-6 -98 -4 -156t-8 -82q-6 -14 -24 -13t-38 -9q-50 -10 -63 3t-23 41q-10 26 -9 63t1 77 q2 4 3 21t2 36t2 35t1 18q2 36 10 55t23 28t35 13t44 12q54 16 127 62t157 142q28 66 55 125t27 135v46t-1 56t-5 54t-12 42q-18 36 -42 69t-56 59t-68 42t-78 16q-58 0 -115 -22t-102 -60t-74 -91t-29 -113v-28q0 -8 8 -8q36 34 80 36t80 -19t53 -59t-1 -82q-6 -42 -43 -69 t-87 -34t-103 8t-87 55q-24 38 -42 78t-18 86zM286 118q0 18 5 40t14 41t24 33t37 14t48 -6t49 -19t38 -33t15 -48q0 -24 -7 -50t-20 -47t-34 -34t-47 -13q-52 0 -87 34t-35 88z" />
<glyph unicode="@" horiz-adv-x="1918" d="M40 728q0 16 2 23t2 23q0 46 6 99t10 93q6 12 8 20t2 17t1 18t5 25q14 48 35 98t37 96q2 2 8 16t13 29t13 28t6 15q20 26 40 39t32 41q74 72 144 124t144 87t156 54t180 25q188 8 362 -36t311 -145t223 -260t100 -377q0 -54 2 -118t-6 -116q-12 -70 -26 -131t-37 -116 t-58 -105t-89 -98q-78 -74 -176 -74q-46 0 -88 15t-79 41t-67 62t-48 76q0 2 -4 12l-8 20l-8 20t-4 12q-4 10 -4 14t-10 4q-4 0 -6 -1t-4 -1t-12 -7t-12 -9q-72 -42 -136 -62t-148 -20h-18t-25 1t-25 1h-18q-36 2 -72 21t-67 46t-56 60t-37 65q0 6 -1 25t-1 23q0 10 1 28 t1 22q0 2 6 14l13 26t13 25t8 15q36 74 100 117t141 63t159 23t154 -3q2 6 4 19t5 29t5 29t2 19q2 34 -3 75t-22 77t-49 60t-84 26q-36 4 -74 -7t-69 -30t-50 -43t-19 -48q0 -4 10 -11t23 -21t23 -32t10 -42q0 -44 -37 -76t-83 -32q-56 10 -91 51t-31 133q0 38 13 71t35 61 t49 53t55 49q58 32 121 52t129 20q108 0 192 -66t106 -174q6 -34 7 -88t1 -92q0 -46 -9 -87t-9 -87q0 -60 6 -121t12 -121q2 -30 14 -71t31 -80t45 -66t58 -27q48 0 85 31t66 79t50 108t34 117t19 106t6 77q8 180 -43 328t-158 248t-269 148t-376 30q-86 0 -179 -39 t-179 -103t-155 -150t-105 -178q-18 -92 -34 -185t-17 -185t17 -183t68 -177q30 -66 86 -132t128 -118t152 -84t158 -32q54 0 82 19t48 42t38 42t52 19q62 0 82 -42t20 -96q0 -42 -21 -70t-53 -44t-71 -23t-75 -7q-176 0 -317 63t-267 177q-38 30 -85 87t-90 141t-74 195 t-37 247zM652 568q-4 -46 13 -75t45 -45t60 -23t60 -7q26 0 62 3t78 14t86 30t84 49q10 8 7 32t-3 28v120q0 2 -10 23t-14 23q-34 8 -87 7t-91 -1q-132 -16 -207 -61t-83 -117z" />
<glyph unicode="A" horiz-adv-x="1588" d="M52 86q0 26 3 53t27 37q24 8 39 11t24 3t14 -1t11 3q16 34 28 62t21 54t19 53t22 57q38 96 74 190t62 196q0 4 3 12t5 12q16 36 35 85t29 85q0 2 7 12t9 12q12 36 24 81t24 91t25 90t25 80q14 38 22 67t15 57t14 58t19 68q4 22 10 49t18 37q20 14 43 14h6q27 -2 49 -22 q14 -14 27 -55t27 -71q46 -102 76 -180t53 -145t43 -127t44 -126q14 -40 34 -87t36 -81q70 -158 135 -324t137 -324q24 -4 53 3t53 6t40 -20t16 -77q0 -48 -19 -53t-53 -5q-2 0 -8 -2t-16 -4t-22 -4q-6 2 -30 0t-28 0l-266 -8q-4 0 -6 10t-2 14q-6 2 -10 18t-5 37t4 39 t19 24l108 6l-4 12l-5 14t-11 34t-13 40t-11 34l-116 278l-562 -22v-10q-34 -94 -76 -189t-54 -179h4h4q4 2 24 0t24 -2h6q2 0 3 1t3 1q26 0 42 -16t16 -38q0 -24 1 -40t-2 -27t-14 -18t-33 -13h-84q-42 0 -73 2t-60 4t-60 4q-16 1 -34.5 1t-40.5 -1q-12 10 -26 26t-14 34z M548 714q12 -2 22 -4t19 -3t15 -1h16h84t103 2t104 6t87 12v4v4q-16 26 -28 54t-25 63t-28 79t-37 102q-6 8 -18 41t-27 77t-32 93t-31 89t-24 65t-10 23l-50 -196q-4 -10 -4 -24t-10 -26l-126 -444v-16z" />
<glyph unicode="B" horiz-adv-x="1056" d="M27 1648v5q0 18 6 26q7 9 26 10t61 5q4 2 20 5t20 3h8h8q14 0 50 -2t76 -3t76 -3t50 -4q6 0 21 -2t33 -4t34 -4t20 -4q80 -18 160 -43t144 -73t103 -128t39 -208q0 -48 -18 -100t-47 -100t-67 -87t-78 -61q-6 -4 -17 -24t-23 -24q6 -6 53 -31t103 -77t101 -136t47 -208 q0 -116 -63 -189t-161 -123q-24 -12 -58 -20t-56 -28q-56 -14 -94 -15t-94 -1h-183t-183 16l-8 4l-8 4q-8 4 -26 4t-28 2l-16 16q0 2 -1 15t-1 19q0 34 4 49t14 19t29 2t49 -2q0 4 -1 18t-1 18v32v49t1 48t1 33v466q6 38 8 62t2 58q0 68 -3 142t-6 149t-5 149q-1 37 -1 73 t1 71l-8 32h-6h-10q-4 0 -2 -1t-2 -1h-4q-22 0 -50 8t-38 18v8q0 46 -1 68zM304 1538q0 -68 2 -152t4 -172t3 -172t1 -152l8 -16q4 -2 10 -2h16q48 0 103 11t110 30t104 45t83 58q18 18 38 47t36 66t24 82q5 26 5 54q0 21 -3 43q-18 74 -67 120t-112 72t-132 36t-125 16 q-4 0 -15 1t-24 1t-24 1t-13 1l-8 4l-8 4q-14 -4 -15 -10t-1 -16zM320 332q0 -16 1 -47l2 -62t2 -56t1 -27l8 -8q6 -2 12 -2q4 -2 9 -2h9q8 0 28 2t22 2l12 -1t25 -1t25 -1l12 -1q74 6 139 16t118 33t90 61t57 100v24q-6 98 -42 170t-89 120t-112 75t-109 37q-3 2 -10 2 q-5 0 -12 -1q-16 -3 -40 -9t-59 -10q-18 -2 -38 -2t-43 2l-8 -8q1 -35 1 -71q0 -64 -4 -133q-7 -108 -7 -202z" />
<glyph unicode="C" horiz-adv-x="1286" d="M56 748q0 90 13 201t44 219t84 203t133 155q8 6 28 23t43 35t43 34t30 22q48 18 104 37t108 19q22 0 52 -5t61 -15t58 -24t45 -30q32 -32 65 -57t55 -63q2 16 1 35t2 35t14 27t37 11h12q14 -2 46 -1t46 -1q8 0 8 -8q4 -8 10 -32t6 -32q0 -20 1 -59t2 -82t1 -83v-60 q0 -2 1 -13t3 -23t3 -23t1 -13q0 -26 -14 -37t-33 -13t-41 0t-40 2q-16 0 -28 4t-24 20q-8 10 -14 31t-12 44t-11 45t-7 36q-8 30 -35 68t-64 73t-83 59t-90 24t-102 -1t-100 -29q-36 -40 -66 -67t-54 -54t-43 -59t-35 -80q-26 -74 -42 -133t-25 -116t-12 -119t-3 -140v-90 q6 -70 33 -151t72 -155t108 -131t143 -77h152q46 14 84 40t68 60t52 73t36 75q2 6 5 22t7 34t7 34t5 22q4 16 6 32t2 32q0 4 -1 10t-7 6h-64q-10 0 -17 18t-7 22v35t4 33q4 44 48 50q24 -2 40 -3t31 -2t30 -1h37q24 0 48 4t58 4q8 -22 16 -29t12 -13t7 -15t3 -33 q0 -4 -1 -22t-1 -22q-4 -22 -27 -26t-37 -14q-6 -4 -12 -32t-12 -63t-12 -69t-12 -52q-14 -46 -44 -97t-72 -97t-94 -82t-112 -54q-100 -15 -172 -15q-16 0 -31 1q-81 4 -133 17t-82 29t-48 26q-74 52 -130 132t-93 172t-56 189t-19 183z" />
<glyph unicode="D" horiz-adv-x="1402" d="M12 1530v19q0 64 12 100q14 41 45 60t78 22t109 5q29 1 57 1q203 0 373 -38q194 -43 338 -135q104 -52 173 -146t109 -210t53 -244q8 -79 8 -155q0 -47 -3 -93q-14 -170 -93 -304t-194 -227t-252 -140q-126 -43 -248 -43h-21h-116h-126t-126 1t-114 3q-28 22 -28 54 t-2 70q0 20 13 34t33 16q12 0 30 -1t38 -1t38 1t30 1h12t10 8l-4 270l-8 218q0 6 2 21t4 19v68v115v114v67q0 4 -1 19t-2 33t-1 33v19v43t2 51q0 28 2 58l8 8q-2 33 -2 64q0 23 1 46q2 31 2 64q0 22 -1 44q-10 0 -21 3t-20 4t-16 -4t-13 -21v-57t-9 -31t-30 -13t-61 -5 q-48 6 -58 26t-10 66zM406 1440q0 -4 4 -17t6 -17v-18t1 -27t1 -27v-18q2 -42 2 -80t-4 -80q1 -20 1 -65v-52q-1 -87 -2 -187t-3 -187t-2 -117q0 -12 2 -65t3 -114t2 -114t1 -65q0 -4 -4 -15t-2 -15q58 -4 132 -5h9q70 0 146 14q81 15 165 51t162 106q44 56 76 117t54 123 t33 119t13 103q1 34 1 65q0 124 -19 208q-24 105 -64 175q-40 72 -112 138t-167 114t-206 72q-74 16 -150 16q-38 0 -77 -4l-2 -128v-4z" />
<glyph unicode="E" horiz-adv-x="1204" d="M4 1566q12 70 48 98t118 28q56 8 105 8t91 -3t77 -5t61 2q158 0 313 3t311 7q4 -2 23 -5t19 -7q2 -6 4 -20t4 -29t2 -28v-15l-10 -146q0 -22 -6 -32t-16 -14t-23 -3t-27 1q-8 0 -24 1t-20 3l-36 16v126l-12 8q-25 1 -56 1h-31q-49 -1 -101 -4t-102 -5t-88 -2h-42 q-18 -2 -45 -2t-53 -2q-30 -2 -62 -4l-8 -8v-14t-1 -27t-1 -29v-22q0 -98 4 -203t8 -201q0 -22 -2 -58t10 -62q4 0 18 -1t18 -1q8 0 20 -1t23 1t19 6t8 16q0 16 1 16t1 14v27t16 15l80 6q22 0 33 -10t15 -25t4 -30v-23q0 -30 1 -46t3 -31t3 -37v-17q0 -19 -1 -47 q-4 -14 -4 -24t-1 -17t-6 -10t-17 -3q-14 6 -33 2t-36 -6t-30 1t-13 23l-10 34h-21t-38 -2t-37 -4t-16 -4l6 -584q70 -14 138 -17q51 -2 102 -2h34q68 1 138 4t142 3q14 10 17 17t2 13t-4 12t1 12q0 16 -3 23t-3 25q0 26 10 38t25 16t34 4h35q20 0 35 -3t29 -21q4 -34 8 -59 t4 -59q0 -12 1 -33v-14q0 -14 -1 -29q-2 -22 -6 -39t-16 -23l-86 -14h-29t-65 -2q-82 -2 -163 -2q-60 0 -120 1q-46 1 -93 1q-94 0 -190 -4q-10 0 -42 1t-68 3t-68 2h-42h-40h-40q-20 12 -24 40q2 10 -4 26t-2 26q4 34 22 42t38 8h114q2 10 4 18t2 16t2 14v48q0 30 2 84 t4 111t3 110v33q0 30 -1 50q-10 162 -12 333q-1 57 -1 113q0 112 3 218q-4 6 -6 28t-2 28v35v53t1 52t1 34q-4 0 -13 2t-13 2q10 -32 -4 -58t-41 -42t-61 -20q-8 -1 -15 -1q-26 0 -48 11q-29 14 -48 48q-16 28 -16 74q0 10 1 20z" />
<glyph unicode="F" horiz-adv-x="1058" d="M18 1608q0 40 5 64t19 36t38 16t64 4q128 4 253 5t251 5h41t70 -1t70 -2t41 -1q4 0 25 2t37 2q10 0 19 2t19 2q14 -4 27 -12t21 -20q4 -10 10 -40t6 -40q0 -12 1 -32t2 -43t2 -43t1 -32q1 -5 1 -9q0 -14 -10 -25q-13 -14 -31 -16q-16 0 -34 -7t-34 -9h-6q-12 0 -29 2 t-23 14q-2 10 -1 28t-1 30l-10 45t-2 47q-8 -2 -33 -3t-54 -2t-54 -2t-33 -1q-20 -2 -70 -4t-106 -3t-107 -3t-71 -2l-8 -8l-16 -668l16 -8q26 1 53 1t55 -1q56 -2 108 -6q18 10 18 24v26t10 21t50 9q8 0 21 4t26 6t23 -1t12 -17l14 -232q2 -24 -10 -35t-30 -14t-40 -1 t-36 2q-18 0 -20 16t-6 44q-4 0 -20 1t-20 1q-8 0 -23 -1t-17 -1q-10 0 -34 -2t-51 -3t-51 -3t-32 -4q-10 0 -9 -10t1 -14q0 -56 2 -120t3 -129t2 -129t1 -120q42 0 67 4t37 2t16 -16t4 -48v-66q-10 -16 -7 -30t-11 -14q-16 0 -46 -1t-44 5q-54 -6 -87 -7t-83 -1 q-24 0 -34 -1t-18 -2t-19 -1t-37 4q-6 2 -9 12t-3 22v24t-2 18q6 14 5 29t-1 27t6 19t24 7q4 0 26 -3t36 -3q0 22 1 63t1 86v87t-2 64q-4 74 -4 138t1 126t2 126t1 138v334v20q0 18 1 48t1 59v51v22l-16 16h-96l-8 8q-9 15 -9 22z" />
<glyph unicode="G" horiz-adv-x="1246" d="M32 940q0 10 2 42t2 42q2 4 3 16t1 16t4 11t4 11q34 162 105 289t197 237q52 46 139 75t181 35q24 2 47 2q69 0 136 -14q89 -18 145 -64q2 0 13 19t17 23h48q28 0 42 3t38 -13q14 -10 13 -29t-1 -35v-8v-286v-14q-2 -46 -23 -61t-61 -15q-18 0 -29 1t-27 7q-2 0 -3 6 t-3 10q-6 18 -8 26t-2 13v13t-2 26q-12 54 -43 97t-73 74t-95 47t-109 16q-82 0 -151 -35t-124 -93t-97 -132t-69 -151t-41 -152t-14 -135q0 -4 -1 -10t-1 -12v-16q6 -88 10 -167t26 -163q12 -52 38 -110t71 -109t110 -88t155 -47q104 12 181 76t127 153t75 190 q23 94 23 172v13v21t2 23q-2 8 -8 8h-12h-12q-2 0 -31 -2t-64 -3t-64 -2l-29 -1l-8 4q-4 2 -8 6q-14 0 -19 -2t-8 -3t-7 -3t-18 -2t-21 11t-10 26t-4 30t-1 21q-2 14 -5 26t-1 22t12 17t34 11q12 0 22 2t22 2h4q4 2 8 -1t6 -1l284 -12q19 5 34 5q25 0 38 -15q20 -24 23 -71 q1 -23 1 -50t-1 -58q-1 -20 -1 -41q0 -40 4 -80q2 -64 5 -136t5 -146t2 -146t-2 -136q-2 -32 -4 -63t-12 -58t-31 -46t-63 -27q-16 -2 -30 -2q-26 0 -45 7q-29 11 -47 32t-25 47t-9 48q-1 8 -1 15q0 39 18 62q21 27 48 41t50 20t23 16q1 23 1 41.5t-1 33.5q-2 29 -6 75 q-46 -68 -89 -126t-95 -99t-120 -64t-162 -23h-4q-164 10 -272 100t-170 225t-85 298q-18 129 -18 255q0 33 1 66z" />
<glyph unicode="H" horiz-adv-x="1410" d="M36 1664q0 22 22 31t42 9l250 8q10 0 19 -17t15 -38t10 -41t4 -28q0 -22 -7 -29t-17 -27h-72v-14q0 -6 -1 -12t1 -10q0 -6 1 -29t3 -48t3 -48t1 -29v-344q0 -8 8 -8q18 -6 30 -7t23 -1t24 1t35 -1q6 0 38 -4t70 -9t70 -8t38 -3h15t30 -1t35 -1h30q76 0 154 4t154 12 q12 0 19 55t10 125t3 133v79q0 4 -3 21t-5 21v16v16q2 4 5 20t3 20q0 28 -6 38t-28 10q-24 0 -30 1t-28 1q-16 0 -33 11t-17 27q0 4 1 10t1 8q8 54 15 79t17 34t24 9h36q14 0 42 -1t30 -1q4 0 24 -4t24 -4q2 0 13 1t23 2t22 2t12 1h4h4q38 -8 61 -8h8q23 2 32 -2t9 -23v-69 v-64q-4 -4 -12 -13t-12 -11h-4h-4q-10 2 -37 8t-35 8l-16 -8l-8 -548q-3 -62 -3 -141v-40q1 -103 2 -212t3 -213t2 -182h110q16 0 25 -14t13 -32t5 -37t1 -29q0 -22 -20 -33t-47 -16t-54 -5t-41 -2q-8 0 -28 -2t-43 -3t-44 -2t-29 -1q-2 -2 -11 -5t-13 -3h-4h-4q-28 6 -38 6 t-14 3t-9 12t-21 33l2 54q6 14 8 26t6 19t13 11t29 4h4q4 0 15 3t15 1q2 0 7 1t7 1q0 54 -2 138t-4 172t-3 172v53q0 49 1 85l-8 8h-64h-51t-37 2h-8h-8q-44 -3 -90 -3q-23 0 -46 1q-70 2 -142 3h-36q-54 0 -106 -2q-70 -3 -134 -15q-16 2 -16 -6v-18q-4 -44 -4 -117t3 -153 t6 -153t3 -117v-38q4 0 16 -3t16 -5q32 -4 51 -1t28 0t11 -18t2 -53q0 -16 -7 -53t-23 -47q-28 1 -52 1h-22q-32 -1 -62 -3t-62 -3t-74 -1h-40t-31 6t-21 20t-8 42v15q0 33 7 50q9 21 24 29t35 9t42 7q8 50 12 126t6 156q1 53 1 105v51q-1 76 -1 128q0 74 -3 171t-7 171v112 q0 6 -1 25t-2 40t-3 40t-2 23q-1 15 -1 30q0 31 3 65q1 8 1 15q0 42 -19 76q-18 -10 -42 -10q-22 0 -35 19t-19 46t-7 54t-1 43z" />
<glyph unicode="I" horiz-adv-x="1282" d="M48 1588q-1 8 -1 15q0 11 4 18q7 11 7 33q0 28 22 35t42 19q6 0 22 2t34 3t34 2t22 1h218q8 0 38 1t66 3t66 3t38 1q76 0 161 -5t161 -9q20 -2 64 -3t88 -5t77 -16t35 -34v-20t-4 -18l-8 -158q4 4 -7 2t-26 -6t-29 -8t-16 -4q-4 0 -24 1t-41 4t-38 7t-17 10v88l-8 8 q-4 2 -12 4t-12 4q-8 0 -23 2t-32 3t-31 2t-18 1q-12 0 -35 1t-45 2t-38 1h-18l-8 -8q3 -70 3 -157v-44q-1 -113 -5 -232t-8 -233t-4 -200q0 -50 -1 -113t-2 -128t-1 -128t4 -111q0 -10 1 -22t3 -24l4 -28l296 2v82q0 6 7 10t16 7t16 5t9 2h16t28 2h4q44 0 62 -9t24 -26 t5 -42t5 -57q0 -4 3 -22t5 -22v-5q0 -17 -11 -28q-13 -13 -31 -23q-24 0 -80 -1t-118 -1h-118h-80q-112 -2 -211 -4t-207 -12q-4 0 -15 -1t-25 -3t-26 -3t-14 -1q-12 0 -35 2t-48 5t-48 6t-35 5q-22 -4 -36 0t-22 10t-11 14t-3 14v66q0 22 1 55t3 55q4 6 15 11t17 5 q4 -2 21 1t21 3q14 -2 43 -3t41 1q10 -4 20 -11t20 -13q0 -10 1 -34t1 -34q0 -2 3 -8t5 -8h42q58 0 104 5t104 11q2 76 7 186t10 226t11 225t10 183v8v8q0 2 -1 12t-3 20t-3 20t-1 12v288l-16 224l-8 8q-50 4 -94 8q-38 4 -73 6t-51 4h-32h-32q-2 -16 -3 -41t-5 -50t-16 -45 t-34 -26h-48q-44 0 -63 6t-25 22t-7 46t-9 80z" />
<glyph unicode="J" horiz-adv-x="1368" d="M32 443q-1 13 -1 25q0 47 12 88q15 52 56 87q39 33 111 33h8q46 0 85 -36t39 -84q3 -18 3 -33q0 -24 -7 -43q-12 -32 -33 -54t-47 -34t-46 -16q-3 -12 -3 -24q0 -29 16 -58q23 -42 62 -77t88 -57t93 -22q96 8 157 39t96 82t50 118t21 145q2 34 4 80t3 95t1 96v87v80 q0 8 -2 37t-3 63t-2 63t-1 37q0 2 -1 30t-1 61t-1 60t-1 31q-2 20 -2 47t-1 54t-6 53t-17 48l-8 8q-2 2 -8 5t-8 3l-234 -4q-6 0 -7 -10t-2 -24t-6 -27t-17 -19q-28 -14 -62 -16t-64 -2q-36 0 -53 15t-24 38t-7 52v57v25t1 7t3 7t6 27l14 14t18 10q28 0 69 4q16 2 30 2 q21 0 35 -4q144 3 285 3h70q175 -1 351 -1q10 0 20 -2t20 -2q2 2 11 5t13 3l8 -4l8 -4q10 -2 40 -4t40 -4q10 -8 21 -24t11 -32l2 -138q0 -14 -18 -22t-42 -11t-48 -4t-36 -1q-2 0 -10 1t-18 4t-18 7t-8 10l-4 74q-24 -2 -46 -2q-18 0 -38 -1t-32 1h-28h-28q-2 -2 -5 -4 t-3 -4q0 -4 -1 -18t-2 -30t-1 -29v-15q2 0 6 -46t8 -122t7 -176t3 -207t-2 -213t-9 -197t-19 -159t-30 -96q-2 -4 -7 -16t-9 -16q-72 -104 -170 -156t-204 -60l-36 -4q-78 6 -149 30t-130 65t-101 101t-60 142q-14 48 -18 109z" />
<glyph unicode="K" horiz-adv-x="1250" d="M17 1651v11q0 16 2 28q3 16 11 14q0 2 7 4t7 4q0 6 8 7t19 1t22 -1t15 -1h234q24 0 32 -18t8 -36q0 -10 2 -25t1 -30t-6 -28t-17 -17l-16 -2q-16 -2 -35 -3t-35 -4t-16 -7l8 -762l250 262q32 36 55 63t44 54t43 56t52 69q14 16 41 52t57 75t57 76t39 55q-6 0 -23 -2 t-34 -2t-30 4t-13 16q0 34 -1 64v12q0 25 3 52q6 12 24 16q20 0 49 -2t59 -2t59 1t49 7q26 8 62 2t64 -6q40 0 46 -27t10 -55v-3q0 -5 -4 -15q-6 -14 -6 -18v-6q0 -4 1 -6t1 -4q0 -10 -9 -16t-21 -9t-26 -3t-22 2h-32q-4 0 -12 2t-12 -2q-22 -28 -51 -68t-61 -81t-61 -79 t-51 -62q-16 -18 -49 -63t-71 -96t-71 -96t-49 -63l162 -248q24 -56 65 -116t73 -112q20 -36 38 -67t35 -61t36 -60t45 -62q6 -8 7 -17t11 -9q22 0 45 2t47 2q18 0 27 -19t12 -43t3 -48v-34q0 -30 -41 -42t-95 -15q-32 -2 -64 -2q-21 0 -42 1q-52 2 -74 2h-26h-11h-22t-26 2 t-21 8q-6 10 -12 18q-12 16 -12 18t1 12t1 21t1 21t1 12q0 24 1 36t7 18t19 9t37 9h26q12 0 28 -2q0 8 -13 33t-31 54t-34 54t-22 35q-46 72 -93 157t-91 159q0 8 -8 8l-88 150q-62 -58 -122 -136t-124 -134q0 -4 -1 -16t-1 -16q0 -30 2 -73t5 -88t5 -87t4 -72q4 -2 12 -5 t12 -3l9 1t19 2t19 3t11 2q4 -2 20 -1t20 1q18 -8 26 -30t10 -47t1 -49t-1 -36t-11 -20t-21 -12q-12 0 -43 1t-66 1t-66 -1t-43 -1q-4 0 -16 -1t-27 -2t-28 -3t-17 -2h-10q-10 0 -35 9t-25 25q0 14 -1 40t2 51t14 45t33 24q8 0 20 4t18 4l-4 708q0 60 -1 142t-3 169t-3 169 t-1 142q0 24 -18 24h-14l-46 6q-12 16 -17 41t-6 48z" />
<glyph unicode="L" horiz-adv-x="1372" d="M48 60q0 10 1 28t5 36t12 32t22 14h122l16 16q0 2 3 20t5 42t5 49t3 41v40v68v68v40q0 6 1 27t2 45t3 45t2 27v14v216q0 96 6 184t6 182q0 12 -1 45t-4 72t-6 75t-7 52q-20 3 -39 3q-16 0 -32 -2q-35 -5 -62 -4t-44 17q-15 14 -15 54v10q0 20 1 49t23 39q4 0 16 1t16 1 q38 0 72 1h14q28 0 56 -3q28 -2 40 -2h20h20h40h266q50 0 58 -24t8 -76q-4 -16 -2 -31t2 -26t-6 -17t-24 -6q-22 0 -61 2t-61 2q-16 0 -47 3t-45 -7q0 -4 -1 -26t-1 -47v-48v-25q-21 -281 -21 -572v-26q1 -304 1 -600h86q8 -6 31 -3t31 3q20 0 19 1t19 1q92 0 182 -2t184 -2 h126q14 16 16 26t2 26q0 26 2 55t0 57q-1 31 -1 52v18q1 24 -1 26l-8 28h-104q-6 0 -15 14t-9 22v102q0 10 10 18t23 12t27 7t20 3q28 2 59 -1t39 -1q4 0 13 4t11 4q68 0 99 -33t31 -93l-8 -442q0 -40 -11 -67t-39 -31q-18 0 -50 -1t-67 -1t-67 1t-50 3q-6 0 -25 1t-42 1 h-42h-25q-46 2 -87 3t-80 2t-79 1h-86h-104h-116h-116q-6 0 -20 1t-31 2t-33 3t-22 2q-24 4 -52 17t-28 43z" />
<glyph unicode="M" horiz-adv-x="1674" d="M16 1590v16q0 4 4 24t4 24q0 2 -4 8t-4 8v8q0 14 9 23t22 15t28 8t25 2q18 0 73 1h37q37 0 76 -1q58 -2 107 -9t55 -21q16 -36 24 -88t18 -90q2 -8 9 -39t16 -68t18 -73t13 -54q4 -10 7 -20t9 -20q14 -84 42 -177t61 -187t67 -185t62 -173l8 -8q2 6 5 21t7 32t7 31t5 20 t11 29t18 48t18 47t11 28q12 36 31 83t39 97t38 98t26 84v8q24 106 50 191t48 191q6 30 17 54t15 58q2 14 3 32t6 35t16 28t33 11q20 0 38 -5t38 -5q16 0 26 3t32 13l186 -16q24 0 32 -11t8 -26t-4 -32t-4 -29v-64q4 -28 -18 -27t-52 -9q-6 -30 -8 -68t-2 -79t1 -80t1 -69 q0 -12 1 -56t2 -95t3 -95t2 -56q0 -4 2 -51t5 -107t5 -118t2 -82q0 -14 3 -71t8 -123t8 -122t3 -70q2 -2 7 -5t9 -3h4h4l66 12q6 6 12 -3t10 -26t6 -39q1 -7 1 -15q0 -15 -3 -29v-4v-4q-6 -16 -15 -24t-15 -26q-4 -2 -12 -5t-12 -3h-112q-28 0 -61 2t-61 -2q-14 0 -22 -4 t-17 -6t-21 -2t-30 10q-24 6 -27 26t-7 40q-2 26 -4 42t1 25t15 12t40 3q2 4 7 10t9 6l56 2v33t-2 52t-3 51t-1 34q1 32 1 71t-1 85q-2 92 -6 197t-9 218t-10 218t-8 197t-3 156q0 10 -1 27t-1 19l-8 16l-8 -8q0 -6 -4 -21t-8 -32t-7 -32t-5 -21q-4 -16 -12 -61t-19 -95 t-22 -94t-21 -58q-30 -94 -65 -201t-71 -216t-70 -216t-64 -201q-2 -2 -2 -4v-8q0 -18 -2 -23t-5 -8t-5 -8t-2 -23q0 -16 8 -26t-6 -20q-10 0 -40 -3t-40 -5q-4 0 -21 -3t-21 -5h-4h-4l-30 5t-34 5q-20 2 -38 4v60q2 20 -4 23t-8 23q0 10 -3 40t-5 40q-4 18 -10 46t-12 57 t-11 50t-7 23l-8 16q-2 2 -11 30t-24 72t-33 97t-35 105t-31 98t-22 76q0 2 -4 16t-8 30t-7 32t-5 26t-11 41t-23 72t-29 87t-28 84t-24 63t-13 25h-4l8 -448q6 -28 7 -105t1 -176t-1 -206t-1 -196t1 -147t7 -58l44 -2q2 0 8 -7t13 -16t12 -18t7 -11l8 -16l-2 -52 q0 -14 -12 -24t-27 -17t-31 -10t-22 -3t-25 1t-42 1t-47 1t-42 3q-28 4 -59 8t-53 24q0 16 -6 45t8 55q4 10 13 21t19 11l50 -2q8 0 12 21t4 23v4q0 4 -3 12t-5 12q3 64 3 143q0 40 -1 83q-2 130 -5 268t-7 268t-4 226v12q2 4 5 17t3 15t-1 15t-3 26t-3 25t-1 16v168 q6 20 -11 26t-40 8t-42 8t-19 30z" />
<glyph unicode="N" horiz-adv-x="1334" d="M20 1612q2 44 2 74q0 16 13 15t27 7q6 0 19 2t28 3t28 2t19 1q4 0 16 -3t16 -5q44 4 104 7q14 1 27 1q43 0 77 -8q8 -2 10 -21t2 -43t-2 -47t0 -31q0 -8 -5 -10t-13 -2t-14 -2t-6 -10l8 -12q4 -6 10 -12q38 -56 66 -101t49 -83t39 -69t40 -57q54 -78 111 -179t114 -209 t112 -212t103 -184q4 -8 12 -20l16 -24t14 -20l6 -8h8v8q0 4 -3 16t-5 16q4 110 5 239v65q0 97 -2 196q-3 132 -9 260t-16 240q-2 8 -2 32t-2 50q-2 30 -2 64l-16 8h-19t-8 2t-10 5t-25 9q-10 10 -13 28t-3 28v24t2 32t5 30t9 18q14 2 37 2t47 -1t46 -1t38 2q26 2 50 5t50 3 h28l26 -26q2 -18 6 -36l4 -32t4 -28v-22q0 -24 -14 -33t-30 -12t-30 -5t-16 -8v-48q0 -132 1 -250t9 -248q4 -66 6 -139t4 -147t6 -147t10 -137q0 -8 2 -45t3 -79t3 -79t4 -45v-20q0 -14 -1 -37t-6 -44t-17 -36t-34 -15h-136q-16 0 -29 15t-24 36t-18 43t-9 34l-208 378 q-16 8 -25 40t-15 48l-18 36t-31 59t-31 58t-16 33q-38 76 -73 142t-87 132q0 2 -4 8t-4 8q-8 12 -23 36l-30 48t-28 44t-15 24q-4 4 -12 17t-18 27t-20 27t-14 19q-4 2 -9 8t-7 8q-2 0 -3 -2t-3 -2l12 -758q2 -38 3 -87t2 -101t3 -102t8 -88l8 -8q26 -6 45 -8t31 -7t18 -19 t6 -44q0 -14 2 -33t0 -36t-14 -29t-38 -12q-4 -14 -15 -16q-4 -1 -8 -1q-8 0 -17 3q-14 4 -27 9t-21 3q-8 0 -34 1t-55 3t-55 3t-34 1h-10t-17 3t-16 7t-5 14q0 4 -2 19t-3 33t-3 33t-2 19q-2 20 10 26t28 8t34 4t28 12l-18 368v164q0 10 1 45t2 75t2 75t1 45q0 4 -1 18 t-2 30t-3 30t-2 18v16v16q0 6 2 22t3 34t2 34t1 22q-8 12 -7 17t-1 17q0 4 -1 20t-3 35t-3 36t-1 21q0 8 -1 32t-1 53t-1 54t-1 33h-26t-17 1t-17 2t-26 5q-8 0 -8 8q-4 24 -4 55v21z" />
<glyph unicode="O" horiz-adv-x="1208" d="M44 722q-1 36 -1 71q0 124 16 242q21 151 77 307q18 72 55 129t82 100t93 73t88 46q56 23 135 23q17 0 35 -1q102 -6 194 -48q96 -50 171 -125t125 -213q2 -4 5 -9t3 -7q22 -88 32 -177t14 -179q3 -48 3 -95q0 -173 -35 -333q-44 -204 -158 -362q-46 -36 -87 -68t-86 -54 t-94 -36t-109 -14h-10q-159 0 -262 60q-106 62 -168 164t-88 235t-30 271zM234 900q4 -90 8 -176q2 -56 9 -122t22 -132t39 -128t62 -110t90 -77q49 -27 113 -27h9q66 0 117 23t89 62t66 91t50 110q16 44 31 103t23 105q12 96 18 202q3 49 3 97q0 57 -4 113q-7 104 -28 199 t-64 170t-111 123t-168 60q-98 -2 -160 -54t-101 -128t-61 -165t-38 -165q-15 -69 -14 -141q-1 -17 0 -33z" />
<glyph unicode="P" horiz-adv-x="1234" d="M24 96q0 44 8 58t25 14t43 -7t60 -3q4 0 10 3t6 5q4 20 4 46t-1 52t-3 52t0 46q-4 58 -5 140t-1 169t-1 168t-7 139q-6 62 -6 135v148t-1 146t-7 131q-22 0 -43 -6t-31 -4q-12 -4 -19 2t-10 18t-5 26t-2 26q0 2 -4 12t-4 12v8q0 6 5 16t13 21t16 19t14 8q60 4 110 5t99 1 h98h107h35t42 -1t37 -1h16q19 1 38 1q86 0 170 -22q102 -27 184 -85t135 -146t59 -202q-8 -102 -54 -176t-115 -125t-157 -83t-181 -49t-186 -21q-46 -2 -89.5 -2t-83.5 2v-40t-1 -79t-1 -80v-39q0 -10 1 -29t1 -23q0 -16 3 -65t6 -105t6 -105t5 -65l8 -8h2h6h13h25h25h15 h14q14 0 28 -12t14 -28l-6 -82q0 -12 -19 -22t-29 -10h-68h-81t-71 1t-71 2t-81 5q-18 -2 -29 7t-19 23t-11 30t-3 28zM326 1525q0 -11 1 -26l2 -30t1 -21q0 -120 8 -246t14 -246q46 -3 92 -3q93 0 187 11q141 16 275 84q48 28 74 61t40 68t18 69t8 64q0 24 -9 45t-23 39 q-40 54 -87 84t-101 45t-114 18t-122 3q-29 1 -61 1t-67 -1q-23 -1 -45 -1q-44 0 -83 3l-8 -8v-13z" />
<glyph unicode="Q" horiz-adv-x="1230" d="M31 777q1 137 23 270t54 243q20 68 62 141t103 133t139 98t170 38q230 0 366 -130t182 -352q20 -94 24 -203q1 -27 1 -55q0 -82 -9 -167q-12 -113 -38 -222t-64 -205q-18 -38 -45 -81t-55 -75q-4 -6 -11 -14t-13 -16q-8 -8 -16 -18v-8q0 -2 5 -15t11 -29t13 -34t11 -28 q6 -12 13 -27t17 -28t22 -23t24 -10q30 0 42 9t16 25t1 35t-3 37q2 6 5 18t3 14l-4 8l-4 8v4q0 20 21 31t46 12t47 -6t22 -23q0 -6 1 -25t1 -23q0 -54 -11 -100t-35 -81t-62 -55t-92 -20q-56 0 -98 36t-69 78t-41 78t-16 36q-14 2 -34 -4t-51 -14t-75 -15t-108 -9 q-142 14 -237 84t-152 175t-80 236q-22 126 -22 257v11zM189 798v-28q0 -55 3 -107q4 -65 15 -119t29 -88q18 0 41 14t41 20t43 11t52 9t54 6t45 2q120 0 202 -43t138 -117q32 40 61 109t52 152t37 169t16 160q-4 108 -31 217t-78 195t-129 138q-72 48 -167 48h-15 q-72 0 -133 -40t-109 -102t-80 -135t-46 -139q-12 -30 -21 -82t-14 -116t-6 -134zM308 306q0 -36 24 -62t58 -44t71 -27t61 -9q14 0 52 2t76 10t68 23t30 39q0 42 -24 72t-59 49t-76 29t-75 10q-14 0 -48 -6t-69 -18t-62 -29t-27 -39z" />
<glyph unicode="R" horiz-adv-x="1196" d="M38 1622q-1 6 -1 11q0 18 15 31q14 12 58 19t93 11t92 6t55 2q50 -4 108 -9t116 -18t112 -37t98 -64q92 -56 144 -145t52 -203q0 -64 -28 -129t-74 -111q-4 -4 -16 -12t-25 -19t-23 -21t-10 -16q0 -2 2 -4q40 -22 78 -62t70 -89t53 -107t25 -116q0 -8 3 -39t6 -67t6 -69 t3 -41q2 -40 4 -77t12 -75q2 0 4 -3t4 -5h4q10 0 18 5t20 5q20 0 32 -12t19 -29t9 -36t2 -31q0 -30 -16 -43t-40 -16t-51 0t-47 1q-4 0 -20 -4t-20 -4h-76h-76q-8 6 -11 7t-6 0t-8 -2t-15 3q-16 6 -21 16t-4 22t4 26t3 26q0 22 8 29t24 11q4 2 20 3t35 1h35h20q0 4 -1 17 t-3 29t-3 29t-1 17q-4 34 -7 87t-8 110t-12 110t-15 85q-14 44 -40 79t-56 71q-20 24 -63 37t-91 17t-94 4h-72h-24h-33t-32 -2t-23 -4q-2 -2 -5 -7t-3 -9q-13 -71 -13 -146v-28q1 -25 1 -49q0 -64 -6 -125q-2 -20 -4 -48t-3 -58t-2 -58t-1 -48q0 -8 1 -33t1 -33 q20 -4 53 -5t49 -17v-48q0 -34 -5 -62t-51 -34q-4 0 -15 1t-25 3t-26 3t-14 1h-4h-4q-12 0 -38 -2t-54 -5t-54 -5t-38 -4l-16 16v112q0 24 11 27t28 -1t35 -5t32 15l4 200l6 84q0 102 -3 206q-1 35 -1 69q0 69 4 137l6 452q0 54 8 121q3 24 3 47q0 40 -9 74q-14 -6 -24 -10 l-24 -8h-42q-10 0 -31 7t-21 19q0 22 -6 48zM324 1036q0 -6 1 -24t1 -24q16 -10 41 -11t39 -1q10 0 28 -5t20 -5q4 0 25 3t45 7t46 7t30 5q68 6 116 40t76 80t36 96q3 20 3 39q0 28 -7 53q0 14 -10 33t-24 37t-27 34t-21 28q-18 24 -54 47t-77 41t-83 28t-72 10 q-28 0 -51 -2t-57 -6q-12 -32 -16 -72t-4 -81t2 -81t2 -70q-2 -46 -5 -103t-3 -103z" />
<glyph unicode="S" horiz-adv-x="1088" d="M24 1320q0 106 59 187t149 131q24 14 62 31t68 17q47 7 90 8q41 0 79 -7q79 -13 142 -40t107 -59t66 -56h6v74q0 34 27 43t59 9q30 2 44 2t22 -3t13 -12t15 -23q8 -52 12 -95t4 -105q0 -44 1 -71t-3 -43t-15 -24t-35 -12l-80 2q-24 0 -38 25t-26 41q-28 30 -67 67t-90 68 t-114 49q-47 14 -103 14q-19 0 -38 -2q-52 0 -95 -21t-73 -57t-47 -83t-17 -97q0 -6 -1 -30t9 -34q30 -54 81 -98t106 -78t108 -57t87 -37q120 -56 207 -109t145 -114t86 -136t28 -177q0 -206 -116 -307t-326 -101q-36 0 -84 4t-98 11t-97 18t-79 23q-4 2 -25 12t-25 12 l-4 2q-6 0 -11 -18t-9 -24q0 -8 -8 -8l-100 2q-12 0 -20 11t-12 21q0 2 1 15t2 28t2 28t1 17q0 36 2 62l4 52t3 53v19q0 21 -1 48q12 18 38 25t54 7t48 -5t20 -9q2 -30 1 -48t0 -32t6 -25t17 -27q20 -26 57 -47t84 -36t102 -23t109 -8q26 -5 68 -5h15q53 1 105 24t92 76 t44 155q1 7 1 15q0 30 -13 64q-16 43 -48 85t-77 81t-97 65q-34 20 -78 42t-89 45t-89 45t-78 40q-64 34 -124 73t-106 90t-74 116t-28 149z" />
<glyph unicode="T" horiz-adv-x="1196" d="M25 1602q1 18 4 34t7 40q12 14 39 19q22 4 49 4h11q33 -1 72 -3t75 -2h288q40 4 70 4t66 -4h282q48 0 88 1t48 -9q20 -18 29 -28t12 -25t2 -38v-18q0 -20 1 -49q0 -30 3 -43q2 -8 2 -13q0 -4 -1 -6q-2 -6 -11 -12t-35 -20q-16 -4 -21 -1t-21 3q-38 -2 -55 6t-23 22t-5 31 t-1 31t-10 24t-30 10h-22q-14 0 -48 -2t-70 -3t-64 -2l-28 -1l-8 -8v-32v-48q2 -66 3 -148q0 -41 0.5 -82.5t-0.5 -84.5q-1 -85 -1 -167t4 -146q0 -4 -1 -18t-2 -30t-1 -30v-16v-26t1 -39t1 -39v-26q0 -50 -1 -92l-2 -84l-2 -84t-1 -92v-44l8 -16q30 2 49 3t30 -5t15 -23 t4 -51q0 -52 -13 -87t-69 -35h-30q-6 0 -20 1t-29 2t-29 2t-20 1h-126q-12 0 -19 -4t-15 -4t-16 8t-20 32v9t2 5q2 4 2 29t2 29v24q4 26 20 38t37 15t44 2t39 1v70v68q0 12 -1 59t-3 101t-3 101t-1 59v44t1 66t2 65t1 43v24q0 8 -3 31t-4 48t-1 46t4 27q2 42 3 92t1 101v99 v88v112q-14 8 -27 8h-29h-69h-79h-79t-67 -2l4 -96q0 -4 -14 -15t-20 -11l-130 -6q-16 0 -20 13t-4 23t4 18t4 18q-6 44 -8 71q-1 18 -1 32v13z" />
<glyph unicode="U" horiz-adv-x="1334" d="M12 1614q0 28 10 50t28 36t40 8l190 2q14 0 34 -1t41 -1t39 1t28 5h4q10 0 18 -24t14 -53t9 -56t3 -33q0 -30 -27 -33t-51 -3h-13t-4 -2t-4 -2h-13h-15t-13 -10q1 -71 1 -125v-50q-1 -69 -2 -122t-1 -101t6 -112v-16q2 -18 4 -57t4 -82t4 -83t6 -58q6 -44 14 -100 t21 -115t33 -116t51 -103t77 -75t110 -31q90 0 151 35t101 90t62 123t34 134q12 84 18 145t9 117t4 116t1 142v51t-1 64t-1 56v29q0 6 -1 29t-2 48t-3 47t-2 28q0 10 2 30t2 41t-3 38t-15 23q-24 -2 -45 -6t-45 8l-8 8l-4 128q-2 18 1 25t11 10t21 4t31 9q12 -4 58 -4t97 1 t94 1t51 -4q18 -8 25 -15t8 -15v-6q0 -6 -1 -12q-2 -10 -2 -24q0 -10 1 -21t1 -13l-18 -40q-4 -16 -15 -19t-25 -4t-27 -3t-19 -14q-6 -154 -6 -300t-2 -282t-9 -262t-27 -238q-22 -84 -58 -165t-97 -144t-151 -100q-81 -33 -195 -33h-25q-38 0 -81 9t-75 27q-4 2 -20 8 t-20 8q-24 12 -48 36t-45 52t-38 58t-27 54q-42 90 -61 174t-28 168t-12 172t-11 184q-4 50 -6 99t-4 111t-4 144t-6 198q-2 2 -20 -2t-22 -4h-4h-4q-4 2 -25 9t-25 5q-10 16 -15 23t-5 23q-16 22 -16 50z" />
<glyph unicode="V" horiz-adv-x="1272" d="M18 1668q0 18 14 30t35 19t42 10t37 3h44t64 -3t63 -10t39 -21v-28q0 -28 1 -51t-13 -49q-2 -4 -23 -3t-21 -1q2 -26 11 -62t18 -74t17 -75t10 -63q30 -120 69 -247t83 -255t92 -251t96 -237q2 0 4 -2q12 68 29 149t36 164t38 164t37 151q10 38 21 86t22 97t19 99t10 94 q6 2 15 39t18 83t16 86t7 50q-16 6 -33 8t-32 6t-23 16t-4 36q0 50 6 75t21 37t42 15t69 9q1 1 4 1q6 0 19 -4q19 -5 23 -5l150 -16q16 12 21 3t15 -19l12 -118q0 -4 -12 -16t-20 -16q-2 -2 -19 -5t-21 -3q-4 -2 -13 -5t-11 -3l-8 -24q0 -4 -5 -18t-9 -31t-9 -32t-5 -17 l-8 -40t-13 -66t-14 -67t-9 -41l-76 -372v-8l-116 -558q4 -22 -6 -48t-14 -42q-20 -62 -25 -102t-19 -64t-46 -33t-104 -9q-24 0 -47 39t-47 100t-46 135t-42 142t-37 122t-29 76l-22 66l-34 102t-34 103t-22 67q-20 64 -40 144l-41 164t-45 163t-52 141q-26 14 -48 5 t-38 -9t-25 24t-9 100z" />
<glyph unicode="W" horiz-adv-x="1712" d="M14 1590v20v29t1 28t1 19v4q0 16 7 22t21 8t33 2t41 4q4 0 19 2t33 4t33 4t19 2q24 0 50 1h17q17 0 33 -1q24 -2 43 -9t29 -21q2 -22 3 -26t1 -3t0 -2v-23v-52q-14 -18 -37 -25t-45 -11v-16l68 -282l78 -350q40 -144 65 -282t57 -282l12 -78l3 10t6 22t5 22l2 10 q14 44 22 99t15 111t12 110t13 100q20 120 31 223t33 221q14 86 23 170t19 168q0 2 2 13t5 23t6 23t3 13q2 30 0 59t32 45q28 16 51 14t51 -2q16 0 28 -2t18 -24q2 -6 4 -20t3 -29t3 -29t2 -20l96 -458l114 -642q8 -14 14 -40t12 -53t13 -49t15 -28l48 260l52 384l64 590 l-70 -4q-4 4 -16 10t-12 8v4v4q6 24 6 49t5 47t19 36t48 14h4q2 0 14 -2t26 -3t25 -2t15 -1q10 0 37 -1t56 -1t55 1t36 1q12 -8 23 -21t11 -27l-8 -88l-4 -4q-4 -4 -6 -4q-4 -4 -16 -10t-16 -6l-60 -4q-8 -42 -12 -80t-10 -80q-8 -66 -17 -122t-16 -110t-14 -111t-13 -123 q-10 -102 -23 -222t-29 -220q-12 -70 -23 -120t-17 -112q0 -4 -1 -22t-2 -39t-3 -39t-2 -22q0 -6 -2 -19t-5 -29t-5 -29t-4 -19q-10 -14 -7 -29t-11 -15q-10 0 -28 -6q-7 -2 -12 -2q-9 0 -14 6q-26 0 -52 -3q-16 -2 -30 -2q-9 0 -18 1q-22 2 -39 13t-23 41l-94 440 q-20 58 -35 129t-28 146t-27 150t-32 143q-2 8 -6 35t-9 56t-11 52t-8 23q-4 0 -4 -4l-122 -778v-24q0 -6 -5 -27t-9 -47t-8 -47t-4 -27q-4 -40 -11 -83t-18 -80t-28 -65t-41 -36h-46q-34 0 -57 1t-59 7q-2 2 -8 7t-8 9q-12 30 -17 49t-7 36t-4 36t-10 49q0 2 -4 16t-7 32 t-6 32t-3 16l-48 242l-42 182q-14 36 -24 85t-19 107t-20 120t-25 122q-16 52 -25 104t-25 104q-12 44 -32 98t-30 100l-84 -4q-12 0 -20 11t-12 21z" />
<glyph unicode="X" horiz-adv-x="1512" d="M20 1618v4q0 2 4 12t4 12v64q18 24 40 24q24 0 38 -2t26 -3t27 -3t39 -2q26 0 41 1t28 3t29 6t46 10q2 0 8 -3t8 -5q8 0 32 -3t32 -5l8 -8l-4 -110q0 -8 -8 -8q-16 -8 -27 -13t-22 -7t-23 -2t-30 2q6 -6 26 -33t44 -59t44 -59t24 -33q28 -38 68 -85t82 -96t81 -96t67 -85 q2 -2 5 -4t3 -4h4h4q2 2 5 4t3 4l328 430q4 10 14 24t20 29t17 30t7 27q0 8 -12 9t-27 -1l-30 -4t-21 2q-8 8 -8 21t2 26t3 21t-7 6q0 28 22 53t50 25q70 -8 126 -8t126 -4q12 0 16 -2t22 -2q26 0 41 -18t19 -42t-1 -46t-19 -28q0 -16 -16 -19t-37 0l-42 6t-29 -1 q-4 -2 -20 -17t-22 -23q-22 -28 -49 -73t-55 -94t-55 -94t-51 -73q-4 -4 -14 -21t-22 -35t-23 -35t-13 -21q-4 -4 -19 -22t-33 -40t-33 -40t-17 -22q-4 -6 -20 -25t-20 -23q0 -2 -1 -6t-1 -6q0 -10 1 -14t9 -14q2 -6 14 -19t26 -28t26 -28t16 -17q8 -16 8 -18t16 -14 l142 -176l256 -416q2 0 20 -3t20 -3h20q8 0 15 1t9 1q8 0 14 -1t14 -7q4 -30 5 -35l1 -5l-1 -3t-1 -27q0 -2 -2 -11t-5 -18t-5 -18t-2 -11q-4 -8 -16 -11t-27 -4q-8 -1 -15 -1l-15 1q-15 1 -23 1q-22 0 -34 2t-34 2q-48 0 -90 -1t-90 -1h-19t-26 3t-23 10t-10 19l4 74 q-8 2 1 -8t9 -4q0 22 14 31t34 12t41 2t33 1q-6 22 -29 67t-56 98t-68 108t-65 97q-26 28 -61 73t-67 87t-55 73t-25 31h-8q-6 -10 -28 -35t-47 -53t-46 -55t-27 -41l-286 -432q18 2 30 4q10 2 19 4t11 2l24 2q10 0 18 2q6 0 11 1t7 1q26 -8 33 -21t5 -29t-9 -35t-7 -41 q0 -18 -6 -24t-16 -7t-22 -2t-24 -9q-38 -2 -80.5 -2t-89.5 2q-94 4 -170 4q-28 0 -32 28t-4 54q0 20 9 32t11 28q0 10 14 13t31 3h32t21 6q14 16 33 41t39 53t37 54t29 42l134 204q2 4 13 20t23 36t22 36t14 20q6 8 24 33t39 53t39 53t24 33q10 14 14 18t4 18q0 4 -1 7 t-1 5l-370 488q-8 14 -25 38t-37 51t-39 50t-27 33q-10 0 -41 1t-41 3q-28 4 -32 17t-4 33z" />
<glyph unicode="Y" horiz-adv-x="1328" d="M20 1656q0 24 18 36t43 17t51 5t42 -2q32 -1 60 -1h28h9q37 0 83 -7q40 -6 56 -45t16 -75q0 -6 -3 -19t-9 -27t-13 -24t-15 -10l-54 8q12 -30 29 -71t33 -80t30 -71t22 -48q6 -12 31 -64t53 -110t53 -109t31 -63q4 -10 17 -32t27 -47t26 -48t18 -31q4 2 30 56t62 135 t76 176t74 178t57 142t23 69v12q-4 0 -20 4t-20 6l-16 8v152q0 14 15 25t25 15q36 -5 71 -5q17 0 34 1q25 2 51 2t52 -2q8 0 30 -1t28 -3q14 -8 20 -28t8 -44q1 -16 1 -32v-15q-1 -23 -1 -35q0 -22 -10 -32t-24 -15t-31 -7t-29 -10q-56 -110 -106 -242t-102 -246 q-16 -38 -45 -101t-59 -132t-58 -133t-44 -102l4 -250v-41t10 -43q20 6 59 5t59 -3q4 0 14 -2t14 -2q8 -4 12 -22t7 -39t4 -39t1 -20v-16t-2 -24t-7 -22t-15 -10l-64 4l-372 -16h-8q-36 2 -42 30t-6 56q0 44 13 63t33 26t42 5t42 -1t33 9t13 36l-8 294q0 12 -13 38t-29 53 t-32 52t-22 35q-44 84 -85 166l-83 166q-10 20 -29 60t-42 90t-49 104t-52 101t-48 80t-38 41q-4 4 -23 9t-25 3q-16 28 -28 70t-12 76z" />
<glyph unicode="Z" horiz-adv-x="1022" d="M42 1528q0 30 3 66t25 58q4 4 29 8t61 8t78 8t79 6t65 3t36 1q6 0 32 2t56 3t56 2t32 1h12t23 -1t27 -2t22 -1q6 0 18 -1t25 -3t25 -3t16 -1t9 -3t9 -5l2 -2h6q2 0 14 1t26 2t25 1h15l4 -2q10 0 22 -11t22 -15q18 -10 29 -14t17 -9t8 -14t2 -29q0 -22 -10 -49t-24 -54 t-29 -53t-23 -46q-64 -162 -140 -335t-148 -329q-4 -10 -19 -45t-33 -75t-35 -79t-27 -59q-22 -40 -40 -74t-34 -67t-30 -70t-24 -81q6 -2 29 -3t31 -1q88 -6 181 -10q14 -1 28 0q78 0 149 18q8 20 5 26t-6 8t-3 8t12 30q4 32 5 54t7 34t23 16t53 2q16 -2 33 -3t31 -7 t23 -18t9 -34l16 -138q-8 -14 -14 -34t-14 -39t-18 -36t-26 -23q-52 -22 -113 -25q-26 -1 -53 -1q-35 0 -71 2q-63 4 -125 11q-48 5 -89 5h-23q-56 -4 -108 -5h-21q-43 0 -89 3h-4q-2 0 -4 2q-6 0 -21 4t-31 7t-31 7t-21 4q-12 14 -18 32t-6 34q0 34 22 62t34 54 q42 94 84 173t83 155t80 156t79 176q4 10 17 23t15 23q8 42 30 100t48 119t53 117t45 96q6 12 18 34t24 47t22 48t10 35q0 6 -1 10t-9 8h-69t-108 2t-108 2h-69q-6 0 -21 -1t-32 -3t-31 -3t-20 -3l-2 -4q2 -4 10 -11t16 -19t12 -29t2 -43q0 -56 -40 -88q-36 -28 -81 -28h-11 q-58 4 -87 21t-41 46t-13 69t-1 88z" />
<glyph unicode="[" horiz-adv-x="372" d="M46 1556v112q6 28 7 57t4 52t9 39t20 16q38 2 56 5t54 -1l60 4q28 6 42 0t20 -15t7 -21t1 -18q4 -32 2 -57t-30 -45q-28 -2 -55 -1t-29 1l-8 -8v-32v-48q2 -66 4 -165t4 -206t3 -206t5 -163q0 -4 -1 -18t-2 -30t-1 -30v-16v-26t1 -39t1 -39v-26q0 -50 -1 -118t-1 -140 t-1 -140t-1 -118v-44l8 -16q30 2 49 3t30 -5t15 -23t4 -51q0 -52 -12 -67t-68 -15h-30h-22t-34 1t-34 1h-22q-16 -8 -24 22t-11 75t-2 91t1 70v68q0 8 -1 42t-2 80t-3 100t-3 100t-2 80t-1 42v44t1 66t2 65t1 43v24q0 8 -3 31t-4 48t-1 46t4 27q2 42 2 109t-2 139t-4 138 t-2 106z" />
<glyph unicode="\" horiz-adv-x="986" d="M24 1682q-6 14 14 27t49 18t57 1t38 -22l62 -122q-2 -12 3 -27t12 -30l14 -30t9 -25q114 -210 183 -351t112 -237t71 -160t58 -122l10 -20t16 -36t16 -37t10 -21l100 -208q10 -20 26 -50t34 -64q12 -22 23 -43t23 -37q4 -10 5 -25t-13 -23q-18 -6 -51 -22t-59 -12 q-24 2 -44 27t-24 45l-214 440l-460 990l-8 16l-13 26t-12 25t-7 11z" />
<glyph unicode="]" horiz-adv-x="372" d="M48 3q2 25 30 45q28 2 55 1t29 -1l8 8v32v48q-4 66 -5 165t-3 206t-4 206t-4 163q0 2 1 17t2 31t1 30v16v26t-1 39t-1 39v26q0 50 1 118t1 140t1 140t1 118v44l-8 16q-30 -2 -49 -3t-30 5t-15 23t-4 51q0 52 12 67t68 15h30h22t34 -1t34 -1h22q16 8 24 -22t11 -75t2 -91 t-1 -70v-68q0 -8 1 -42t2 -80t3 -100t3 -100t2 -80t1 -42v-44t-1 -66t-2 -65t-1 -43v-24q0 -10 2 -32t4 -47t2 -46t-4 -27q-4 -42 -3 -109t3 -139t4 -138t2 -106v-112q-6 -28 -7 -57t-4 -52t-9 -39t-20 -16q-20 -2 -33 -3t-24 -2t-23 -1t-30 2l-60 -4q-28 -6 -42 0t-20 15 t-7 21t-1 18q-4 32 -2 57z" />
<glyph unicode="^" horiz-adv-x="820" d="M154 1116q0 4 28 31t67 58t78 56t61 25q22 22 56 4t74 -60l136 -122q2 -4 5 -12t3 -12v-4q0 -22 -13 -37t-31 -25t-39 -14t-39 -4h-16q-4 4 -15 14t-23 22t-22 21t-16 13q-20 12 -32 20t-36 8q-2 0 -7 -4t-13 -8q-8 -6 -18 -12l-60 -62q-16 -10 -23 -13t-21 -3 q-12 0 -26 15t-26 35t-21 40t-11 30z" />
<glyph unicode="_" horiz-adv-x="576" d="M39 62q-1 12 1 24t6 18q4 8 4 14v11t2 10t10 13q40 10 98 3t116 -3q18 -2 52 -1t71 1t70 -1t49 -7q10 -6 15 -28t4 -46t-8 -42t-21 -16q-8 -2 -35 -3t-64 -1t-80 1t-81 3t-67 3t-39 1q-8 0 -35 4t-43 8q-12 2 -18 12t-7 22z" />
<glyph unicode="`" horiz-adv-x="444" d="M66 1728q0 36 21 46t45 20q18 6 21 14t25 8q34 -22 63 -59t71 -77q12 -14 28 -26t31 -24t26 -27t11 -35q0 -40 -28 -64t-64 -24q-12 0 -43 23t-65 54t-63 62t-39 47q-4 6 -22 26t-18 36z" />
<glyph unicode="a" horiz-adv-x="1294" d="M70 338q2 34 5 71t11 71q16 70 80 132t163 103t226 52q32 3 66 3q98 0 205 -24q6 8 10 53t7 97t5 100t2 66v60q-38 84 -110 119t-158 35q-42 0 -63 -4t-63 -22q-10 -4 -37 -17t-55 -28t-49 -32t-21 -29q0 -18 5 -33t5 -33q0 -44 -24 -73t-70 -29q-32 0 -51 8t-31 22 t-19 35t-15 49q0 2 -4 8t-4 8q-2 12 6 32t18 41t22 41l18 30q28 40 83 73t120 56t128 36t109 13q68 0 137 -11t128 -38t104 -74t67 -119q2 -6 5 -21t3 -19t-4 -20t-4 -20q-10 -80 -20 -170t-18 -183t-14 -184t-6 -171q0 -18 1 -60t8 -85t22 -77t43 -34q34 0 45 24t19 53 t22 53t52 24q50 0 73 -34t23 -80q0 -94 -50 -152t-152 -58q-32 0 -70 11t-71 30t-56 48t-27 65q-16 0 -31 -9t-30 -20t-30 -21t-31 -14q-74 -20 -157 -39q-75 -17 -144 -17h-15q-76 2 -140 21t-110 59t-71 102q-22 53 -22 126q0 12 1 24zM232 294q0 -40 14 -67t35 -42 t46 -21t45 -6q74 0 133 24t127 50q14 6 40 11t52 13t48 18t28 22q0 6 -1 19t-2 29t-3 29t-2 19v4q0 4 3 26t6 50t5 53t4 35q-32 28 -79 43t-89 15q-32 0 -65 -5t-65 -13q-76 -18 -129 -39t-87 -54t-49 -84t-15 -129z" />
<glyph unicode="b" horiz-adv-x="1170" d="M22 1558q0 32 2 59t6 61q-2 20 12 27t34 8t41 0t33 5q58 0 92 -17t52 -48t23 -74t5 -97q-4 -36 -4 -79t2 -86t5 -81t7 -64q-4 -12 -7 -33t-1 -23l8 -8q8 4 25 23t25 29q58 70 146 102t174 32h64q12 -4 34 -12t45 -17t43 -19t30 -18q38 -26 81 -79t77 -135t51 -196 q9 -59 9 -126q0 -63 -8 -134q0 -58 -19 -124t-52 -130t-75 -120t-90 -92q-24 -18 -56 -36t-67 -32t-70 -23t-65 -9q-40 0 -72 1t-65 8t-72 21t-93 42q-14 8 -23 27t-25 19h-4q-2 -6 -1 -14t1 -14q0 -4 -1 -7t-7 -12t-20 -27t-40 -52q-6 -6 -27 -11t-23 -5q-58 0 -93 39 t-35 97q0 20 5 44t14 46t24 40t37 24q6 2 24 -3t22 -5q0 98 -3 194t-3 194q0 160 2 325q1 55 1 110q0 110 -3 221q4 20 1 48t-9 58t-12 58t-6 48v4q0 2 -3 8t-5 8q-6 -4 -25 -9t-37 -4t-30 11q-8 7 -8 20q0 6 2 14zM324 432q4 -46 12 -76t10 -40q16 -64 63 -115t117 -55 q14 -1 28 -1q93 0 167 35q85 40 144 111t90 163t31 192v24q1 10 1 21q0 27 -4 62q-5 49 -18 101t-34 104t-51 92t-68 63q-35 21 -77 21h-7h-50t-50 -10q-100 -36 -163 -113t-97 -174t-43 -204q-5 -57 -4 -110q-1 -47 3 -91z" />
<glyph unicode="c" horiz-adv-x="1032" d="M64 614q0 76 11 165t35 180t63 176t94 151t128 106t165 40q68 0 143 -16t138 -57t103 -110q36 -63 36 -156v-19q0 -50 -33 -83t-93 -33q-34 0 -62 25t-28 69q0 32 21 46t39 32l-20 68l-68 48q-10 12 -29 19t-41 12t-44 7t-36 2q-78 0 -131 -39t-88 -97t-54 -127t-29 -129 q0 -6 -4 -45t-9 -85t-9 -85t-6 -45v-38q0 -62 15 -140t48 -147t86 -116t129 -47q52 6 85 12t79 32q12 6 28 17t32 23t30 25t20 25q10 20 16 48t10 80q20 28 46 34t49 2t40 -13t19 -13q3 -23 3 -45q0 -32 -7 -61q-12 -48 -34 -92q-16 -34 -53 -72t-67 -62q-66 -52 -141 -71 q-62 -16 -146 -16q-18 0 -37 1h-72q-48 18 -85 36t-77 52q-46 44 -81 100t-63 118q-28 70 -46 151t-18 157z" />
<glyph unicode="d" horiz-adv-x="1138" d="M48 478q0 88 12 184t39 189t70 176t105 146t143 100t185 37q46 0 95 -16t89 -42q4 -2 25 -15t25 -17h2q2 0 2 1t2 1q0 6 1 24t1 22q-2 8 -5 29t-3 27v202q0 14 -23 27t-33 13q-20 0 -25 -13t-10 -28t-19 -27t-52 -12q-28 0 -45 12t-26 31t-13 42t-4 45v48q14 46 52 59 q35 12 76 12h6q44 -1 86 -6q12 -1 23 -1q26 0 43 8h37t39 -2q16 -4 24 -18t11 -31t4 -34t1 -29q0 -28 3 -79t6 -106t6 -107t3 -80v-84v-48t-1 -40t-3 -41t-4 -51l-10 -712q4 0 16 3t16 5h4q34 0 60 -29t26 -59q0 -52 -25 -101t-65 -77q-4 0 -22 -1t-22 -1q-32 0 -73 15 t-59 43q0 6 -2 19t-3 29t-2 29t-1 19q-2 10 -1 40t1 40h-8q-58 -114 -166 -181t-236 -67q-96 0 -168 43t-118 111t-69 153t-23 171zM218 461q2 -55 10 -93t18 -74q12 -32 21 -50t22 -30t32 -24t51 -30q26 -16 40 -16h36q22 -6 38 -6h7q17 2 33 6h4q76 38 136 105t101 148 t63 169t22 170q0 58 -10 135t-38 146t-76 117t-122 48q-64 0 -124 -39t-109 -97t-83 -126t-48 -126q-16 -120 -21 -199q-4 -56 -4 -101q0 -17 1 -33z" />
<glyph unicode="e" d="M37 563q-2 38 -2 74q0 44 3 85q0 96 24 193t56 187q20 12 26 37t14 43q2 2 7 11t9 13q58 80 129 133t171 53q132 0 219 -54t157 -156q10 -16 12 -35t12 -37q14 -32 25 -58t20 -50t14 -50t5 -58v-37t-4 -41t-14 -37t-30 -23q-53 2 -105 2q-122 0 -243 -10 q-172 -14 -348 -14q0 -78 4 -161t23 -160t57 -141t104 -104q30 -16 70 -16q25 -8 55 -8q17 0 36 3q51 7 96 27t76 47t31 55q0 10 -14 17t-31 15t-31 21t-14 35q0 24 12 45t32 37t44 25t46 9q20 0 43 -13t43 -33t33 -43t13 -43q0 -34 -7 -67t-17 -67q-16 -52 -59 -92 t-100 -67t-118 -41t-111 -14q-96 0 -171 33t-129 88t-90 127t-57 152t-26 163zM246 894l16 -8h386q12 2 36 2t48 3t43 11t19 26q0 50 -25 101t-66 93t-91 68t-100 26q-56 0 -100 -23t-76 -61t-52 -85t-30 -97q-2 -8 -2 -16t-2 -18t-4 -22z" />
<glyph unicode="f" horiz-adv-x="898" d="M22 1070q0 14 17 32t23 20q4 2 14 -2t14 -6q4 0 23 -4t37 -6h4q10 0 20 -4t6 12q0 8 2 30t4 46t4 46t2 30q2 66 18 131t45 123t73 107t104 85q36 22 85 23t89 1q70 -2 119 -38t80 -92t44 -125q11 -60 11 -119v-18q0 -58 -39 -90t-87 -32q-50 0 -82 26t-32 76q0 34 12 52 t29 26t34 11t27 9q0 36 -13 70t-35 61t-52 43t-64 16h-8q-64 -22 -104 -66t-63 -102t-32 -123t-9 -127v-96q4 -2 17 -2h27t26 1t16 1q2 0 15 4t17 4q2 0 12 1t16 1q4 0 14 -1t14 -1q16 -12 24 -31t8 -39v-10q0 -12 -4 -30t-6 -30q-6 -10 -22 -17t-26 -7q-4 0 -9 3t-7 5h-104 q-2 0 -4 -3t-4 -5q-2 -4 -5 -12t-3 -12q1 -30 1 -61q0 -83 -8 -164q-11 -111 -11 -225v-31t1 -38t1 -34v-17q0 -4 1 -15t2 -25t3 -26t2 -14v-23t1 -33t6 -29t15 -13h17t8 -1t8 -1h17q22 0 33 -16t11 -38q0 -10 -2 -8t-4 6t-4 5t-2 -7q0 -10 4 -19t4 -23q0 -20 -11 -33 t-27 -20t-34 -10t-32 -3h-102h-41t-27 2t-27 6t-39 12q-10 4 -16 17t-10 28t-5 30t-1 25q0 26 7 32t20 4t30 -4t37 8q4 92 5 177t1 167q0 60 -5 105t-5 103q0 46 4 108t4 110q0 4 1 11t-9 7l-84 2q-28 0 -42 13t-20 31t-7 39t-1 37z" />
<glyph unicode="g" horiz-adv-x="1052" d="M-2 -100q0 108 58 184t138 128q-32 52 -58 97t-32 109v8q0 28 12 57q14 33 32 63t33 52t15 30q-24 28 -46 62t-37 80t-21 108q-4 37 -4 83q0 31 2 65q12 110 60 190t118 131t156 73q73 19 144 19q13 0 26 -1q2 0 5 4t3 6q18 42 40 88t51 85t67 64t86 25q36 0 70 -7 t66 -29q16 -38 20 -57t4 -53q0 -48 -29 -72t-71 -24q-44 0 -70 23q-20 18 -20 50q0 10 2 21q-18 -4 -27 -25t-13 -47t-4 -52v-40v-28q84 -50 132 -104t71 -118t24 -141v-14q0 -72 -9 -157q-14 -80 -62 -154t-115 -131t-147 -91t-156 -34q-50 0 -96 20t-90 20 q-26 -46 -26 -87q0 -26 11 -49q27 -60 97 -110q10 0 28 1t38 3t39 3t29 1q52 0 117 -4t117 -20q40 -14 81 -39t74 -60t54 -77t21 -90q0 -60 -21 -109t-55 -88t-79 -69t-93 -52q-16 -8 -78 -16t-145 -8t-177 12t-173 46t-132 93t-55 153zM186 -120q0 -28 17 -51t41 -41 t53 -28t53 -10l180 -18q40 2 91 6t96 24t76 65t31 129v8q-32 40 -68 62t-76 33t-85 13t-95 2h-36l-214 -50q-16 -6 -27 -24t-20 -39t-13 -43t-4 -38zM250 980q0 -70 18 -137t52 -119t82 -84q45 -30 101 -30h7q78 0 142 34t109 90t68 129q18 58 18 119q0 16 -1 32 q-10 66 -31 104t-47 61t-54 38t-54 35q-2 2 -9 6t-15 7t-15 5l-7 2q-20 4 -43 5t-45 1q-56 0 -106 -25t-88 -66t-60 -95t-22 -112z" />
<glyph unicode="h" horiz-adv-x="1298" d="M-16 1546q0 44 24 88t64 66q12 8 30 13t34 5q74 0 125 -17t83 -53t46 -94t16 -138q0 -14 -2 -41t-3 -55t-3 -54t-2 -40q28 0 56 18t56 26q54 18 117 35t121 19q34 0 77 -10t86 -27t81 -39t60 -44q4 -2 13 -14t13 -16q4 -2 9 -8t7 -8q10 -22 23 -63t17 -73v-21t1 -31 t1 -31v-21q0 -66 2 -168t4 -211t4 -211t2 -168q0 -4 1 -10t7 -6h106q6 0 11 -7t10 -16t8 -18t3 -13l-24 -56q0 -14 -12 -21t-27 -10t-30 -3h-21h-27h-47h-48h-28q-4 0 -4 1t-12 1q-18 0 -39 -2t-42 -1t-39 7t-32 22q0 16 -1 19t-1 4v3v16q0 18 12 30t28 18t35 8t31 4 q14 4 19 16t5 27t-1 30t1 25q5 46 5 122v26q-1 94 -4 196t-7 197t-4 153q0 122 -74 185q-72 61 -192 61h-8q-36 0 -85 -15t-97 -40t-88 -58t-56 -67q-6 -82 -7 -192v-74q0 -74 1 -151q2 -115 5 -226t3 -191q20 0 39 4t39 4q46 0 63 -37t17 -75q0 -22 -8 -32t-22 -12t-31 0 t-35 2q-4 0 -28 3t-28 3h-4q-52 0 -99 -11t-97 -13h-32q-20 6 -39 7t-34 3t-24 10t-7 28q0 62 9 87t28 32t49 6h5q29 0 69 11q2 12 4 58t3 99t3 99t4 58v160q0 42 2 76t5 65t6 65t3 76v4q-2 20 -3 63t-1 85v74v32q0 6 1 43t4 81t4 81t1 43q-4 20 -5 43t-7 42t-17 32t-35 13 q0 -8 5 -30t1 -30q-10 -48 -36 -60t-66 -12h-7q-52 0 -73 28q-22 30 -22 84z" />
<glyph unicode="i" horiz-adv-x="514" d="M26 1224q0 28 21 65t51 49q56 6 93 6h18q41 -2 64 -10t33 -19t18 -21q12 -8 18 -27t9 -41t3 -42v-32q-3 -108 -3 -222q0 -57 1 -116t1 -116q0 -115 -3 -224q0 -12 -1 -52t-2 -86t-2 -86t-1 -52q8 -8 19 -9t21 -1q14 4 16 6l3 3t9 2t34 3q20 -4 31 -21t16 -38t6 -39t1 -22 q0 -30 -18 -47t-42 -35q-46 6 -76 6h-14q-32 -2 -59 -6t-60 -8q-16 -2 -39 -2t-52 2q-6 2 -28 3t-28 1q-18 6 -29 18t-17 29t-8 35t-2 34q2 62 22 71t47 2t53 -10t38 33v18v30t1 31t1 19q0 48 1 107v17q0 50 -5 94l-6 532l-6 88l-17 -17t-10 -6t-13 0t-26 3q-42 2 -63 25 q-19 21 -19 66v9zM72 1578q0 26 11 54t29 50t43 35q22 11 47 12q4 0 8 -1q64 -4 105 -48q39 -42 40 -104q0 -3 -1 -6q0 -16 -5 -41t-14 -48t-25 -39t-40 -16q-38 -10 -68 -10q-21 0 -37 5q-39 13 -60 40t-28 60q-5 26 -5 46v11z" />
<glyph unicode="j" horiz-adv-x="790" d="M34 114q4 30 15 67t29 69t44 57t62 31q16 3 29 3q45 0 71 -30q34 -39 38 -99q2 -28 -11 -58t-36 -49t-52 -24t-59 19q4 -48 16 -115t39 -130t72 -109t111 -52h11q43 0 72 28q33 32 52 80t28 100t13 86l8 550l4 326l-20 236q-12 -14 -18 -23t-12 -14t-16 -8t-28 -3 q-6 -1 -12 -1q-39 0 -61 23q-25 26 -29 62q-1 8 -1 16q0 28 11 57q14 37 48 59q51 3 86 3h17q39 -1 64 -4t45 -4t46 3q12 -8 19 -26t10 -40t4 -42t1 -32v-136t1 -164t3 -164t6 -138q4 -64 4 -128v-42q-2 -84 -6 -170q-2 -44 -3 -103t-7 -122t-21 -126t-44 -115t-77 -88 t-118 -44q-51 -10 -96 -10q-54 0 -98 15q-80 27 -132 88t-79 150t-35 191q0 6 -1 19t-2 28t-3 28t-2 19zM448 1520q0 26 10 55t28 51t42 37t54 15q64 0 106 -42t42 -108q0 -16 -7 -42t-23 -50t-44 -42q-25 -16 -62 -16h-8q-8 -1 -16 -1q-29 0 -50 12q-26 15 -42 39t-23 50 t-7 42z" />
<glyph unicode="k" horiz-adv-x="1264" d="M30 1604q0 44 26 81t74 37h4q27 7 52 7q26 0 49 -8q45 -15 77 -46t50 -74t22 -87v-53t1 -96t1 -118t1 -118t2 -96t1 -51q0 -14 1 -51t2 -78t3 -78t2 -51h8q102 98 195 181t189 187q-18 2 -32 6t-25 14t-18 29t-11 55q16 42 56 53t78 15q32 2 57 2h49h49h59q46 0 62 -27 t16 -67q0 -30 -15 -43t-37 -19t-48 -9t-46 -13q-4 -2 -16 -11t-16 -13q-64 -58 -115 -105t-89 -87q-4 -2 -9 -8t-7 -8q0 -6 6 -25t10 -23q2 -4 15 -28t17 -26l126 -204l63 -108t67 -115t58 -98t36 -57q18 -8 41 -3t43 5t35 -12t19 -52q-6 -36 -7 -57t-8 -32t-24 -14t-55 -3 q-32 0 -56 -1t-47 -2t-46 0t-55 5q-28 4 -31 24t-3 44q0 40 3 66t43 24q-4 6 -16 28t-26 47t-27 47t-15 28l-238 384q-8 10 -23 25t-17 15l-38 -22q-22 -22 -39 -40t-33 -36t-33 -36t-39 -40q-4 -2 -12 -8t-12 -8q-2 -10 -5 -40t-3 -40v-4v-4q0 -10 -2 -51t-4 -87t-3 -86 t-1 -50q0 -4 3 -9t5 -7h2h6h25t25 2q20 2 29 -3t13 -14t5 -22t5 -25l1 -13t1 -28v-27v-14q-4 -16 -18 -22t-32 -7t-39 1t-39 2q-10 0 -29 -1t-31 5l-148 -8q-22 0 -32 10t-13 26t-2 35t1 37q0 40 12 53t28 16t31 3t21 12q2 2 5 20t3 28q2 42 5 104t6 127t4 127t1 106 q-4 82 -6 166t-3 176t-1 196t-2 228q-2 16 -8 44t-8 28h-8q-22 -30 -41 -43t-53 -13q-50 0 -70 40t-20 82z" />
<glyph unicode="l" horiz-adv-x="526" d="M28 112q2 62 22 71t47 2t53 -10t38 33v18v30t1 31t1 19q0 48 1 107v17q0 50 -5 94l14 886l-6 88l-17 -17t-10 -6t-13 0t-26 3q-42 2 -63 25q-19 21 -19 66v9q0 28 21 65t51 49q56 6 93 6h18q41 -2 64 -10t33 -19t18 -21q12 -8 18 -27t9 -41t3 -42v-32q-2 -54 -4 -136 t-4 -179t-4 -200t-4 -200t-4 -180t-4 -137q0 -12 -1 -52t-2 -86t-2 -86t-1 -52q8 -8 19 -9t21 -1q14 4 16 6l3 3t9 2t34 3q20 -4 31 -21t16 -38t6 -39t1 -22q0 -30 -18 -47t-42 -35q-46 6 -76 6h-14q-32 -2 -59 -6t-60 -8q-16 -2 -39 -2t-52 2q-6 2 -28 3t-28 1 q-18 6 -29 18t-17 29t-8 35t-2 34z" />
<glyph unicode="m" horiz-adv-x="1748" d="M22 1242q-1 8 -1 16q0 61 43 97q48 41 120 41q58 0 104 -27t68 -85q2 0 6 -1t6 -1q18 0 17 8t11 18q22 18 53 35t66 31t70 23t63 9q50 0 88 -20t65 -53t44 -75t29 -86h4q2 0 21 23t43 51t48 55t36 33q42 24 97 52t105 28q92 0 155 -26t103 -75t64 -119t38 -158 q6 -30 10 -89t7 -121t5 -111t2 -59q2 -10 4 -45t4 -82t5 -100t5 -100t2 -82v-45l12 -2q44 4 56 -8t24 -58q1 -1 1 -4q0 -4 -3 -12q-4 -12 0 -40v-4q0 -42 -19 -58t-48 -19t-63 1t-62 2q-34 -2 -55 -2h-57q-26 0 -39 14t-18 35t-5 45v42q0 32 11 41t26 9t29 -1t20 13 q-2 6 -2 31t2 33q0 2 3 12t5 12v2v79v111t-2 110t-6 74q0 6 -1 34t-1 60t-1 59t-1 33q-6 38 -11 109t-22 142t-52 121q-32 46 -88 46h-9q-16 2 -34 -3t-36 -14t-34 -18t-30 -17q-58 -32 -86 -88t-37 -121q-7 -53 -7 -107v-24q2 -66 2 -120v-112v-102t2 -103t6 -113 q0 -22 10 -41t22 -37t22 -38t10 -46q0 -28 -19 -54t-51 -26h-10q-10 0 -35 1t-53 3t-53 3t-35 1q-24 14 -33 40t-9 52q0 40 13 60t37 50v2v6q-2 4 -5 20t-3 20v408q-15 26 -15 55q0 6 1 13q2 14 2 28q0 21 -4 42q-2 4 -6 23t-9 42t-11 45t-8 34q-6 28 -18 66t-31 72t-45 59 t-58 29h-10q-29 0 -59 -9q-35 -11 -66 -30t-56 -46t-37 -55q-2 -14 -4 -51t-5 -77t-5 -77t-2 -51v-18t-1 -37t-1 -43v-34q0 -14 -2 -37t-3 -47t-3 -42t-2 -20q0 -4 1 -18t2 -31t3 -32t2 -23q2 -14 1 -59q0 -22 -0.5 -45.5t0.5 -48.5q1 -49 5 -87t14 -38t31 -2t31 -2 q18 0 25 -10t8 -25t1 -30t2 -23q0 -4 1 -26t1 -26v-20q0 -12 -3 -28t-19 -16t-33 4t-33 4q-46 0 -76 -2t-78 -2h-16q-4 0 -20 4t-20 4q-2 0 -11 -4t-13 -4h-4h-4q-2 2 -11 7t-13 9q-2 0 -4 3t-4 5q-4 34 -6 56t-2 50q0 30 7 40t19 14t28 7t34 17q-1 23 -1 47q0 41 4 81 q7 64 7 128q0 12 -1 34t-1 24t1 19t1 35v34v18q-5 65 -5 120v18v11q0 58 -9 127q-8 62 -17 120t-15 120q-15 -2 -29 -2q-50 0 -75 24q-32 30 -36 82z" />
<glyph unicode="n" horiz-adv-x="1238" d="M30 1198q4 74 48 115t118 49q4 0 24 2t24 4q22 0 36 1t42 -7q6 -2 27 -8t27 -4q2 -2 3 -5t3 -3q4 -6 14 -28t14 -30h4q8 0 22 10t30 23t30 27t24 20q42 30 102 51t124 26q14 1 28 1q50 0 99 -14q63 -18 111 -66q2 -4 12 -20t21 -35t21 -35t10 -20l4 -12t10 -26t11 -26 t5 -14q8 -58 15 -95t13 -65t8 -54t0 -62q2 -28 6 -60t4 -34l14 -244l6 -378q0 -14 6 -16t16 -2t21 -1t17 -13q14 -22 17 -48q1 -11 1 -23q0 -15 -2 -31q0 -10 -2 -20t-18 -14q-52 -13 -109 -13h-21q-68 3 -132 3q-12 -2 -25 -1t-23 8t-16 24t-4 49q2 38 8 55t17 23t27 8 t38 8l22 18l2 416q-2 6 -3 25t-1 23q-2 20 -3 59t-2 81t-2 76t-1 44q0 24 -3 62t-13 83t-26 89t-43 79t-64 56q-34 19 -80 19h-9q-36 0 -80 -25t-86 -61t-78 -75t-54 -69q-12 -18 -17 -57t-6 -82t-1 -83t-2 -60q-4 -66 -8 -144t-7 -159t-3 -160t4 -143l18 -6t14 -2t21 1 t37 3q4 -4 7 -30t1 -55t-9 -53t-23 -24l-240 -12q-22 4 -37 6t-25 12t-14 34q-2 12 -2 30.5t2 43.5q2 32 13 39t25 5l28 -4t20 12q4 60 4 126v44q-2 90 -4 182t-4 181v44q0 65 4 127l14 56v13t-2 24t-3 23t-1 14q0 14 -1 33t-2 39t-3 39t-2 33q-10 10 -24 10q-2 -2 -4 -2h-4 q-4 -48 -39 -70q-19 -12 -42 -12q-18 0 -39 8q-18 0 -32 20t-18 76z" />
<glyph unicode="o" horiz-adv-x="976" d="M30 578q0 6 1 31t3 54t3 54t1 31q0 10 2 29t4 37t4 33t2 17q2 12 8 42t14 64t14 64t8 42q16 44 41 77t49 73q16 22 27 46t29 46q20 20 60 41t86 39t90 28q37 8 59 8h9q58 -4 119 -23t101 -57q48 -46 67 -89t41 -99q20 -64 35 -140t23 -155t9 -156v-22q0 -65 -5 -123 q-6 -72 -24 -145t-51 -139t-81 -122t-116 -96q-44 -26 -88 -43q-36 -14 -76 -14q-10 0 -20 1q-80 6 -148 37t-122 82t-92 118t-58 141q-12 44 -12 94t-16 94zM204 554q8 -112 42 -197t95 -135q56 -46 138 -46h13q10 -1 19 -1q52 0 95 28q50 33 85 86t56 116t27 119l12 308 q0 6 -2 24t-5 40t-6 43t-7 31q-2 10 -10 36t-18 56t-19 56t-13 36q-32 40 -66 75t-92 39h-12q-65 0 -121 -41q-61 -45 -105 -117t-70 -159t-28 -165q-11 -80 -11 -156q0 -39 3 -76z" />
<glyph unicode="p" horiz-adv-x="1088" d="M26 1333q4 41 32 74t88 37q10 0 37 -1t37 -1q44 -16 57 -50t19 -88q2 -10 -1 -31t9 -33q20 38 59 70t87 56t99 38t95 14q34 0 79 -8t90 -26t84 -46t61 -68q32 -54 53 -130t31 -157t14 -160t4 -139q0 -18 -1 -50t-1 -64t-1 -57t-1 -27v-9q0 -72 -30 -144q-32 -77 -89 -140 t-136 -105t-169 -50h-8q-17 -2 -33 -2q-25 0 -49 5q-40 9 -76 26t-68 41t-58 48q-4 0 -6 -2t-4 -2q0 -66 -1 -149t-1 -149q0 -16 -3 -28t-5 -22t0 -21t12 -25h24h40q34 0 44 -20t10 -46q0 -2 -2 -6t-4 -12q2 -24 3 -39t-7 -23t-26 -12t-52 -6q-4 0 -13 2t-20 5t-21 5t-12 2 t-13 -2t-26 -5t-31 -5t-28 -2h-70q-30 0 -49 11t-19 49v12q4 22 12 51t36 35q24 6 40 6q10 2 12 0t4 -3t4 0t12 7q0 14 1 52t3 82t3 82t1 52q0 58 1 106t1 95t-2 95t-8 106q-4 32 -5 106t-2 157t-1 158v107v27v46v46v27q0 8 -2 28t-3 42t-2 41t-1 25q2 -4 -3 -11t-14 -13 t-23 -10t-28 0q-36 10 -55 47q-16 31 -16 64q0 7 1 14zM360 598q4 -116 17 -191t40 -121t69 -69t106 -31h30q62 0 111 25t83 61t52 74q16 34 16 59v5l24 128v68q0 58 -5 146t-19 178t-39 170t-65 126q-6 8 -20 16t-29 15t-30 12t-23 5q-100 0 -178 -53t-120 -129 q-6 -12 -10 -50t-6 -89t-3 -108t-1 -108v-89v-50z" />
<glyph unicode="q" horiz-adv-x="1062" d="M52 674q2 6 5 28t3 28q10 124 51 242t113 210t176 148t240 56q50 0 97 -15t91 -41q-2 10 -3 31t2 41t13 35t32 15h4q12 -4 43 -4t45 -2q30 -26 39 -50t9 -62q0 -76 -3 -163t-6 -176t-5 -176t-2 -163v-12q0 -10 3 -37t5 -35q-2 -28 -2 -102t1 -156t1 -156v-102v-13t-1 -26 t-1 -29v-22q0 -12 1 -46t2 -74t4 -76t9 -50h16h16q2 0 12 5t12 3q12 -4 26 -8t14 -20l-2 -76q0 -16 -12 -26t-28 -15t-33 -6t-27 -1q-28 0 -52 4t-52 4h-44q-6 0 -33 -4t-33 -4q-54 8 -66 35t-12 69q0 26 16 37t38 13t44 -1t36 -3v66t-1 111t-1 110v67q0 8 -2 31t-3 49 t-2 48t-1 32h-8l-106 -104q-16 -16 -42 -28t-55 -20t-58 -12t-53 -4q-132 0 -232 69t-152 183q2 2 -5 15t-16 27t-17 28t-10 20q-8 26 -13 61t-8 71t-7 70t-10 58zM208 614q0 -46 16 -113t54 -130t101 -107q58 -40 143 -40h16q42 0 80 17t69 43t53 58t32 64q8 18 18 38 t14 42q8 48 11 118t3 144t1 145t5 119q-10 18 -8 39t0 41q-4 76 -67 118t-153 42q-46 0 -73 -6t-48 -16t-43 -24t-56 -32q-8 0 -8 -8q-58 -96 -90 -179t-47 -153t-19 -125t-4 -95z" />
<glyph unicode="r" horiz-adv-x="1000" d="M12 1280q0 4 2 8q0 4 4 16q2 10 6 22q16 54 60 80q39 23 85 23h10q51 -3 97 -39t66 -104q68 58 151 98t175 40q80 0 137 -36t93 -93t52 -127t16 -138v-72q-8 -40 -46 -73t-78 -33q-32 0 -64 2t-58 14t-43 35t-17 65q8 54 41 85q23 21 59 21q16 0 36 -4q0 84 -36 141 t-126 57q-58 0 -112 -30t-100 -68q-36 -46 -54 -89t-24 -86t-6 -87t-2 -92q0 -84 3 -176t7 -174q0 -18 3 -62l6 -88t5 -79l2 -35l8 -12h64q8 0 13 -9t7 -21t3 -24t1 -16q0 -34 -1 -58t-8 -39t-23 -24t-48 -13q-16 -2 -58 -2h-90h-90t-58 -2l-27 3t-13 7t-4 19v35v89t10 43 t38 11t82 -5l8 34q4 74 8 140q4 56 6 108t4 74v4q0 142 -11 291t-11 291q-10 0 -10 3t2 5l2 2l-8 -4q-4 -2 -9 -5t-7 -3q-68 0 -99 46t-31 110z" />
<glyph unicode="s" horiz-adv-x="970" d="M48 346q0 44 22 86t72 42q28 0 46 -16t30 -39t22 -48t22 -41q20 -28 54 -61t74 -61t82 -46t80 -18q12 0 32 3t46 12t57 27t67 52q40 86 41 157v6q0 67 -22 121q-23 56 -60 97t-73 67l-48 30q-52 18 -107 42t-109 40q-62 18 -120 58t-101 95t-68 120q-22 56 -22 114 q0 9 1 19q6 48 29 93t66 80t109 55t156 20q2 0 24 -5t50 -13t57 -16t45 -14q4 -2 24 -13t24 -13h6h2q12 18 21 34t20 26t28 16t45 6q10 0 30 -1t26 -15q22 -54 23 -124t1 -126v-56q-16 -40 -44 -54t-70 -14q-4 0 -13 1t-13 1q-10 18 -22 43t-22 45q-14 30 -36 61t-58 55 t-90 37q-37 9 -84 9q-22 0 -46 -2q-22 -2 -48 -14t-38 -24l-38 -94q0 -78 37 -128t91 -81t116 -50t114 -37q68 -22 131 -69t112 -108t78 -133t29 -144q0 -108 -43 -213t-135 -169q-30 -22 -73 -29t-71 -27h-152q-2 0 -20 9t-28 15q-44 26 -82 54t-80 58q-2 2 -7 5t-9 3 q-8 -40 -40 -64q-10 -2 -40 -4t-40 -4h-4q-24 0 -36 18t-16 38q-8 46 -11 109t-3 109z" />
<glyph unicode="t" horiz-adv-x="1032" d="M13 1342v6q0 7 1 16l6 42q0 20 7 29t18 12t25 3t30 2q4 0 20 3t20 5h4h4q4 -2 14 -4t20 -5t19 -5t11 -2l8 -4l8 -4q10 0 30 5t28 11q4 16 6 21t3 14t1 30t2 67q-6 16 -6 52t2 72q0 12 11 18t21 6l8 -4l8 -4q4 0 14 4t14 6h14h17h10t12 -1t19 -3q8 -4 12 -18t5 -30t0 -30 t-1 -18v-50t-1 -17t-1 1t-1 1t-1 -16v-49v-56q4 -2 16 -5t16 -3h4q14 0 38 -1t51 -2t51 0t36 5l34 10q20 0 28 -9t10 -24t0 -32t-2 -33q0 -56 -46 -56h-18q-6 0 -37 -1t-65 -3t-65 -3t-37 -1h-4h-4q-8 0 -8 -8l-2 -436q-2 -85 -2 -156.5t2 -129.5q4 -116 13 -192t23 -118 t30 -63t33 -27t33 -10h32q62 0 107 38t71 92t34 113q4 26 4 49q0 29 -6 54q-13 -5 -27 -5q-27 0 -54 19q-41 28 -43 92q0 60 30 104t98 44q70 0 107 -41t49 -99v-100q0 -102 -20 -194t-67 -163t-125 -112t-192 -41h-45t-43 10q-48 18 -84 56t-60 92t-38 118t-22 134 q-9 76 -9 149v14q1 79 1 165q0 14 -1 54t-2 94t-1 115t-1 115q0 27 -0.5 51t0.5 45q1 42 3 58q2 14 -5 16t-15 2q-40 0 -69 7t-69 7q-22 0 -50 -6t-42 14q-6 12 -10 18t-5 14z" />
<glyph unicode="u" horiz-adv-x="1194" d="M17 1349q1 19 1 25q8 18 18 30t26 19t42 10t66 3q32 0 57 3t46 2t41 -12t44 -37q2 -10 5 -37t3 -35q0 -4 -4 -25t-4 -25q-6 -46 -8 -116t-2 -145t1 -145t1 -118q0 -126 6 -238t42 -232q38 -126 196 -126q46 0 84 35t69 92t55 126t41 138t26 128t13 95q2 14 4 64t5 107 t6 108t3 65q-2 4 -5 16t-3 16t4 20t4 20v28v15t-1 23t-4 21t-11 9l-50 20q-16 0 -20 13t-4 23v12q0 10 2 27t4 27q12 22 44 31t70 12q28 2 56 2h19q37 -1 61 -1h56q24 -14 30 -23t6 -33q0 -46 -12 -63t-27 -24l-30 -14t-21 -33q-6 -24 -8 -65t-2 -86t1 -87v-26q0 -24 -1 -40 q-6 -144 -16 -285t-10 -285v-41t1 -54t1 -48v-27l8 -24h16q14 0 17 1l3 1l2 1t18 1q18 0 29 -11t17 -27t8 -34t2 -30q-6 -38 -22 -55t-38 -23t-49 -6t-53 -2q-38 0 -60 15t-33 39t-16 54t-9 60q-30 -30 -64 -59t-72 -52t-78 -37t-82 -14h-40q-122 12 -194 73t-111 153 t-53 207t-20 235q0 28 -1 73v8q0 40 9 71l-2 446q-22 -40 -48 -45t-49 10t-39 40q-14 22 -14 42q0 7 1 30z" />
<glyph unicode="v" horiz-adv-x="1204" d="M22 1328q0 42 9 63t27 30t43 9h55q4 0 13 -4t11 -4h4h4q4 0 17 1t28 2t28 3t17 2h8q12 0 19 -9t12 -21t7 -24t2 -20q0 -52 -29 -64t-77 -16v-8q30 -76 66 -178t75 -207t79 -205t80 -172q14 -24 33 -67t37 -85t31 -73l13 -31l8 -8q18 40 41 92t50 122t58 160t65 206 q10 26 26 89t32 134t28 135t12 92q-16 0 -17 3t0 6t1 5t-14 -2l-40 2q-20 0 -34 26t-14 42q0 12 4 27t12 28t18 23t20 10h19t11 -1t11 -1h19h39t32 -1t32 -1h39q52 0 69 -34t17 -80q0 -4 -1 -9t-1 -7t-5 -12l-10 -20l-10 -20t-7 -12q-22 -58 -47 -186t-87 -308l-236 -636 q-4 -14 -12 -33t-21 -37t-31 -31t-42 -13q-6 0 -20 1t-29 3t-29 5t-22 7q-14 6 -29 35t-29 64t-26 66t-20 43q-28 68 -70 169t-92 215t-101 233t-97 225q-12 16 -26 52t-27 77t-21 78t-8 55z" />
<glyph unicode="w" horiz-adv-x="1580" d="M32 1378q0 30 17 47t42 25t54 9t51 1q40 0 65 -3t69 -21q24 -20 32 -43t8 -55q0 -22 -10 -30t-25 -9t-34 1t-37 0v-8q0 -34 12 -83t22 -79q4 -18 12 -59t17 -92t18 -106t17 -102t14 -81t8 -40q22 -92 36 -175t30 -167q0 -4 3 -13t5 -11l4 -2l4 2q28 28 33 71t15 81 q0 4 8 35t17 68t17 68t10 35t8 22t14 40t15 43t11 31q20 52 32 109t28 109q0 2 2 16t5 30t5 30t2 16q16 38 23 71t7 73l-2 4v4q-20 4 -42 13t-22 33q0 46 7 75t41 57q14 -1 26 -1q31 0 56 7q34 10 80 10q22 0 46 -16t34 -32v-30q0 -16 -1 -43t-7 -41q-6 -10 -18 -14t-24 -6 t-22 -6t-10 -16q26 -88 56 -196t60 -219t61 -218t61 -195q4 -6 10 -22t13 -34t13 -32t12 -16q0 10 8 44t17 73t17 73t10 44q0 2 4 14t9 26t8 25t3 15q0 2 3 15t5 28t5 30t3 23q4 22 3 43t13 37q2 12 12 56t22 94t21 94t13 56q2 12 6 34t8 46t7 47t3 39q0 12 -12 14t-27 4 t-27 11t-12 39q0 4 4 17t4 15q2 10 2 37t-2 37q6 6 17 4t15 2q10 -4 19 -2t19 2q4 0 24 4t24 4h52q6 0 34 -2t34 -2q10 -4 24 -15t16 -17l16 -98q2 -12 -6 -18t-20 -12t-25 -11t-25 -13q-2 -14 -11 -54t-20 -93t-23 -114t-23 -114t-19 -94t-10 -55q-26 -130 -56 -271 t-58 -273l-2 -10t-3 -22t-3 -22t-2 -12q0 -14 2 -17t5 -4t6 -5t3 -18q0 -6 -2 -20t-5 -27t-10 -24t-15 -11l-116 14q-2 -2 -9 -3t-15 -1t-16 -1t-10 -3h-4h-4q-16 26 -20 54t-14 54q-2 4 -8 17t-8 15q-2 6 -9 26t-14 44t-14 45l-9 27q-6 12 -18 55t-28 99t-33 118t-31 114 t-24 86l-10 34l-32 92l-30 -108q-4 -10 -14 -48t-22 -82t-22 -83t-14 -47q-2 -6 -4 -30t-6 -30l-112 -322q2 -18 2 -40q0 -16 -1 -33q-3 -41 -33 -63q-38 -4 -70 -6t-68 -2q-34 0 -45 26t-11 54q0 12 1 21t9 19q-10 40 -20 70t-16 70q-4 16 -12 51t-17 74t-17 75t-14 52 q-4 8 -9 33t-11 54t-11 55t-9 36q0 2 -2 12t-5 22t-6 22l-3 10q-12 42 -26 112t-26 146t-24 146t-22 114q-6 24 -19 23t-26 0t-24 18t-11 77z" />
<glyph unicode="x" horiz-adv-x="1036" d="M6 1320q0 24 2 59t22 53q34 4 57 3t42 -3t39 -2t46 6q20 -6 35 -20t23 -32t12 -38t4 -36q40 -98 83 -187t83 -141q2 -6 10 -16t17 -23l18 -26t13 -25h8q28 38 49 90t69 134q2 2 11 23t21 47t24 54t20 46l38 88q0 28 17 42t41 19q20 4 40 4h8q24 -1 40 -1q40 -6 60 -12 t27 -13t8 -18t5 -27v-48q-4 -12 -13 -23t-19 -19q-16 2 -22 1t-11 -2t-12 -4t-23 -5q-18 -4 -30 -17t-20 -30t-15 -35t-15 -30t-26 -50t-38 -82t-38 -82t-26 -50q0 -2 -3 -4t-5 -6q-14 -22 -23 -39t-16 -32t-14 -32t-17 -41v-4v-4l282 -540q2 -4 14 -16t18 -16h6h17t4 -1 t4 -1h17h32l16 -16q2 -16 4 -23t2 -13v-13v-23q0 -18 -4 -35t-20 -29q-28 -2 -39 -7t-37 -5h-4q-4 2 -27 1t-27 -1q-8 2 -22 9t-22 5l-282 550q-2 4 -9 19t-17 15q-2 0 -4 -2l-194 -406q0 -2 -1 -5t-1 -7t1 -14t9 -10l44 4q2 -4 4 -6l4 -8q2 -2 4 -7t4 -9q2 -16 2 -38t2 -38 l-14 -32q0 -10 -25 -10t-37 -2q-6 0 -24 -1t-38 -3t-38 -4t-26 -2h-12q-14 0 -37 1t-47 6t-43 16t-21 31q-2 8 -6 34t-4 34q0 10 11 27t15 23q2 2 14 5t25 6t24 6t13 3q14 6 26 22t23 36t20 40t15 34q30 62 65 128t73 126q-4 14 6 35t24 44t25 47t11 44v8q-2 4 -4 12t-4 12 q-4 6 -14 24t-22 38t-22 38t-14 26q-8 6 -26 38t-41 75t-47 91t-45 89t-36 68t-19 27h-80q-18 0 -24 14t-6 22z" />
<glyph unicode="y" horiz-adv-x="1290" d="M26 1364q0 12 7 26t18 26t23 20t24 8l290 -8l4 -166q0 -14 -12 -21t-28 -7q-14 0 -19 9t-19 9q-4 0 -9 -1t-7 -1q6 -34 32 -89t60 -113t68 -112t52 -86q14 -22 48 -80t72 -123t72 -123t48 -82l24 -24q8 2 20 28t22 57t18 59t12 38q6 26 16 60t21 71t22 72t23 65 q14 36 27 83t23 97t16 98t6 88q-14 4 -23 3t-19 -1t-21 4t-27 20q-4 34 -7 71t-3 71v12q0 4 2 6l16 10h25h58h70t61 2h48h48q34 -10 34 -42l8 -130l-26 -8q-16 2 -26 4q-4 0 -9 1t-9 1q-6 0 -8 2l-56 -216q-42 -170 -94 -335t-106 -333q-34 -96 -63 -196t-81 -188 q-40 -66 -87 -138t-104 -132t-126 -99t-151 -39q-36 0 -70 16t-59 42t-40 60t-15 70v12q2 12 7 46t7 46q26 48 67 69q32 16 61 16q9 0 17 -1q37 -6 65 -41t32 -101q0 -22 -8 -38t-8 -38v-4q54 18 103 65t91 109t78 135t64 143l-48 78l-42 82q4 6 -6 16q-4 4 -10 8 q-26 46 -49 87t-47 87q-16 30 -29 52t-31 50q-6 10 -35 58t-67 114t-82 140t-81 136t-63 103t-28 41h-6h-16h-4q-4 0 -11 3t-15 8t-13 12t-3 17q2 22 1 28t-2 9t-2 9t-1 28z" />
<glyph unicode="z" horiz-adv-x="996" d="M48 1364q0 26 10 40t25 20t34 7t39 1q64 0 148 -1t146 -3q14 0 55 3t88 7t88 8t55 4q4 -2 20 -5t20 -3q6 -2 33 -1t33 1q2 -2 15 -9t17 -7t17 -1t27 -1t26 1t18 1q15 -7 15 -26q0 -4 -1 -9q-4 -27 -4 -47v-8q-16 -28 -40 -72t-51 -92t-50 -95t-35 -81l-318 -540 q-6 -10 -23 -36t-37 -56t-37 -56t-23 -36q-20 -22 -34 -53t-22 -61v-4v-4q2 0 8 -4t8 -4h96q84 0 181 5t181 9q0 6 3 25t5 23v14q0 8 -2 9t-3 -1t-3 -1t-2 9q0 26 12 39t29 16t37 2t38 -1h44q10 -8 13 -18t3 -22q0 -34 -1 -53t-2 -35t-1 -36t2 -54q-4 -18 -14 -36t-26 -28 q-8 -2 -23 -4t-32 -3t-32 -3t-23 -2h-64h-66q-8 8 -26 8q-30 0 -43 -2t-43 -2q-108 0 -237 -2h-51q-100 0 -188 6q-10 22 -16 40q0 6 3 18t5 26t5 27t3 17q6 24 19 47t29 44t33 40t31 39q58 76 96 142t80 150l5 7t10 15t8 15l3 7q30 50 74 123t91 151t87 152t60 128 q10 22 25 42t15 42v4q0 8 -8 8q-52 4 -88 6t-82 2q-32 0 -77 -2t-93 -6t-94 -9t-76 -11q-2 0 -5 -3l-5 -5v-2v-6q-2 -16 8 -16t14 -22v-16l-14 -10q-24 -10 -39 -15t-30 -7t-32 -2h-43q-16 14 -17 41t-1 57q-2 30 -9 53t-7 49z" />
<glyph unicode="{" horiz-adv-x="744" d="M10 1018q0 54 19 73t46 28t58 19t55 44q4 6 11 19t13 26t11 23t5 12l16 506q12 76 39 121t65 69t85 32t99 8q2 0 -1 12t-5 28t0 32t14 24q20 14 46 18t49 0t40 -15t21 -27q0 -42 1 -92t-3 -90v-30t-3 -41t-12 -36t-29 -15h-4q-10 2 -27 5t-33 7q-20 4 -38 8q-10 2 -13 10 t-3 17t-1 16t-7 7q-30 2 -54 -5t-41 -29t-26 -63t-7 -107v-72v-348q-6 -52 -15 -82t-23 -51t-32 -38t-42 -41q4 -26 19 -49t32 -54t31 -75t14 -110l-4 -414v-25t1 -57t2 -61t3 -39q-6 -22 7 -68t37 -90t54 -73t58 -17q6 14 6 27t2 21t8 13t22 5h8q6 -2 28 0t28 2q18 -2 30 0 t20 1t13 -9t9 -28v-68q-6 -42 -6 -84t-4 -75t-13 -52t-33 -17h-12h-58q-4 0 -25 8t-25 8q-4 18 -10 32l-12 32q-78 8 -130 44t-85 86t-52 110t-33 120q-10 54 -13 122t-5 124q0 8 -2 40t-3 69t-2 69t-1 40q0 4 4 28t4 28v68q0 52 -1 108t-23 104q-16 34 -43 45t-53 22 t-46 32t-20 75z" />
<glyph unicode="|" horiz-adv-x="276" d="M54 1596l4 86q8 14 34 19t55 4t51 -5t22 -8q4 -72 5 -194t2 -266t1 -298v-290v-242v-154v-51v-83v-83v-51q-52 -12 -83 -14t-48 2t-24 13t-9 21q0 24 1 64t2 83t0 83t-3 66z" />
<glyph unicode="}" horiz-adv-x="740" d="M16 -100q4 20 9 28t13 9t20 -1t30 0q6 0 28 -2t28 0h8q16 0 22 -5t8 -13t2 -21t6 -27q28 -12 58 17t54 73t37 90t7 68q2 10 3 39t2 61t1 57v25l-4 414q0 66 14 110t31 75t32 54t19 49q-24 24 -42 41t-32 38t-23 51t-15 82v348v72q2 66 -7 107t-26 63t-41 29t-54 5 q-6 0 -7 -7t-1 -16t-3 -17t-13 -10q-20 -4 -38 -8q-16 -4 -33 -7t-27 -5h-4q-20 0 -29 15t-12 36t-3 41v30q-4 40 -3 90t1 92q4 16 21 27t40 15t48 0t47 -18q12 -8 14 -24t0 -32t-5 -28t-1 -12q52 0 99 -8t85 -32t65 -69t39 -121l16 -506q0 -2 5 -12t11 -23t13 -26t11 -19 q24 -34 55 -44t58 -19t46 -28t19 -73t-20 -75t-46 -32t-54 -22t-42 -45q-22 -48 -23 -104t-1 -108v-68q0 -4 4 -28t4 -28q0 -8 -1 -40t-2 -69t-3 -69t-2 -40q-2 -56 -5 -124t-13 -122q-14 -60 -33 -120t-52 -110t-85 -86t-130 -44q-2 0 -5 -10t-7 -22q-6 -14 -10 -32 q-4 0 -25 -8t-25 -8h-58h-12q-24 -2 -33 17t-13 52t-4 75t-6 84v68z" />
<glyph unicode="~" horiz-adv-x="940" d="M46 894q0 10 10 20l14 14q52 46 106 84t130 38q62 0 96 -32t58 -70t45 -70t59 -32q34 0 66 29t42 61q6 12 7 29t4 32t11 25t30 10q16 0 40 -6t47 -16t39 -26t16 -34q0 -52 -30 -102t-75 -90t-100 -64t-105 -24q-64 0 -104 32t-65 69t-42 69t-37 32q-28 0 -49 -15t-40 -34 t-40 -34t-51 -15q-34 0 -45 23t-23 45q-10 20 -12 23t-2 29z" />
<glyph unicode="&#xa1;" horiz-adv-x="408" d="M52 1250q0 28 1 57t31 41q70 10 102 8t45 -10t15 -19t10 -21q12 -8 18 -27t9 -41t3 -42v-32q-4 -162 8 -335t8 -337q0 -12 -1 -52t-2 -86t-2 -86t-1 -52q6 -6 7 -8t1 -1t3 3t15 2q20 -2 31 -20t16 -39t6 -39t1 -22q0 -30 -17 -50t-51 -20q-32 -4 -67 -5t-61 16t-39 61 t-1 132v18v30t1 31t1 19q0 48 1 107t-5 111l-6 532l-12 84q-20 -2 -31 1t-17 12t-10 28t-10 51zM56 1588q0 28 11 55t29 49t43 35t55 11q68 -4 99 -45t33 -88t-25 -87t-77 -44q-56 0 -88 11t-48 28t-22 37t-10 38z" />
<glyph unicode="&#xa3;" horiz-adv-x="1204" d="M52 60q0 10 1 29t5 39t12 34t22 14h54l16 16q0 2 3 19t5 40t5 47t3 40v40v68v68v40q0 6 1 27t2 45t3 45t2 27v116q-10 0 -16 1t-10 1q-8 0 -35 4t-43 8q-12 2 -18 12t-7 22t1 24t6 18q4 8 4 14v11t2 10t10 13q22 4 49 4t57 -2q0 88 6 170t6 170q8 150 61 235t130 124 t170 41t184 -13t172 -37t133 -32q32 -14 42 -25t8 -24t-9 -29t-9 -38q-14 -36 -18 -53t-34 -11q-38 12 -97 35t-125 43t-134 32t-125 1t-99 -50t-56 -117q-8 -108 -13 -213t-7 -213h97t106 -1t91 -3t52 -6q10 -6 15 -28t4 -46t-8 -42t-21 -16q-6 -2 -40 -3t-82 -1t-105 1 t-113 3q-2 -150 -1 -298t1 -298q138 32 241 48t193 10t179 -36t199 -86q12 -10 8 -36t-19 -50t-36 -40t-41 -6q-86 32 -177 57t-191 31t-209 -16t-231 -84q-18 -4 -34 -10t-34 -10t-40 -5t-52 9q-24 4 -48 23t-24 49z" />
<glyph unicode="&#xa8;" horiz-adv-x="796" d="M68 1686q0 68 40 99t91 31t95 -30t54 -84q4 -30 -1 -61t-21 -55t-41 -40t-59 -16q-66 0 -112 44t-46 112zM434 1686q0 68 40 99t91 31t95 -30t54 -84q4 -30 -1 -61t-21 -55t-41 -40t-59 -16q-66 0 -112 44t-46 112z" />
<glyph unicode="&#xad;" horiz-adv-x="480" d="M29 650q-1 12 1 24t6 18q4 8 4 14v11t2 10t10 13q40 10 98 3t116 -3q18 -2 39 0t43 4t42 2t36 -6q10 -6 15 -28t4 -46t-8 -42t-21 -16q-12 -4 -52 -5t-86 -1t-89 1t-57 1q-8 0 -35 4t-43 8q-12 2 -18 12t-7 22z" />
<glyph unicode="&#xaf;" horiz-adv-x="480" d="M35 1522q-1 12 1 24t6 18q4 8 4 14v11t2 10t10 13q40 10 98 3t116 -3q18 -2 39 0t43 4t42 2t36 -6q10 -6 15 -28t4 -46t-8 -42t-21 -16q-12 -4 -52 -5t-86 -1t-89 1t-57 1q-8 0 -35 4t-43 8q-12 2 -18 12t-7 22z" />
<glyph unicode="&#xb4;" horiz-adv-x="452" d="M66 1568q0 20 11 35t26 27t31 24t28 26q42 40 71 77t63 59q22 0 25 -8t21 -14q24 -10 45 -20t21 -46q0 -16 -18 -36t-22 -26q-10 -16 -39 -47t-63 -62t-65 -54t-43 -23q-36 0 -64 24t-28 64z" />
<glyph unicode="&#xb8;" horiz-adv-x="516" d="M24 -270q0 18 8 38t23 36t34 23t39 1q32 -10 45 -26t17 -33t6 -29t12 -12q58 -22 99 -8t58 43t5 61t-58 44q-26 8 -56 5t-57 -3t-49 7t-30 35q-4 26 -5 34t-1 11t1 9t1 30q0 8 -1 21t-1 21q16 24 35 29t45 5h31t26 -5t18 -18t7 -37v-36l12 -4q12 -4 20 -4q40 -6 68 -14 t50 -23t39 -38t35 -61v-60q-8 -72 -45 -111t-86 -58t-102 -22t-93 -1q-34 6 -64 22t-51 37t-31 45t-4 46z" />
<glyph unicode="&#xbf;" horiz-adv-x="962" d="M-8 436q0 142 34 275t128 227q6 10 41 38t82 58t97 55t86 29q6 98 4 156t8 82q6 14 24 13t38 9q50 10 63 -3t23 -41q10 -26 9 -63t-1 -77q-2 -4 -3 -21t-2 -36t-2 -35t-1 -18q-2 -36 -10 -55t-23 -28t-35 -13t-44 -12q-54 -16 -127 -62t-157 -142q-28 -66 -55 -125 t-27 -135v-46t1 -56t5 -54t12 -42q18 -36 42 -69t56 -59t68 -42t78 -16q58 0 115 22t102 60t74 91t29 113v28q0 8 -8 8q-36 -34 -80 -36t-80 19t-53 59t1 82q6 42 43 69t87 34t103 -8t87 -55q24 -38 42 -78t18 -86q0 -4 -3 -25t-5 -31q-32 -138 -116 -234t-226 -146 q-42 -14 -86 -15t-88 -1h-4q-78 22 -145 61t-115 94t-76 127t-28 156zM420 1564q0 24 7 50t20 47t34 34t47 13q52 0 87 -34t35 -88q0 -18 -5 -40t-14 -41t-24 -33t-37 -14t-48 6t-49 19t-38 33t-15 48z" />
<glyph unicode="&#xc0;" horiz-adv-x="1588" d="M52 86q0 26 3 53t27 37q24 8 39 11t24 3t14 -1t11 3q16 34 28 62t21 54t19 53t22 57q38 96 74 190t62 196q0 4 3 12t5 12q16 36 35 85t29 85q0 2 7 12t9 12q12 36 24 81t24 91t25 90t25 80q14 38 22 67t15 57t14 58t19 68q4 22 10 49t18 37q22 16 49 14t49 -22 q14 -14 27 -55t27 -71q46 -102 76 -180t53 -145t43 -127t44 -126q14 -40 34 -87t36 -81q70 -158 135 -324t137 -324q24 -4 53 3t53 6t40 -20t16 -77q0 -48 -19 -53t-53 -5q-2 0 -8 -2t-16 -4t-22 -4q-6 2 -30 0t-28 0l-266 -8q-4 0 -6 10t-2 14q-6 2 -10 18t-5 37t4 39 t19 24l108 6l-4 12l-5 14t-11 34t-13 40t-11 34l-116 278l-562 -22v-10q-34 -94 -76 -189t-54 -179h4h4q4 2 24 0t24 -2h6q2 0 3 1t3 1q26 0 42 -16t16 -38q0 -24 1 -40t-2 -27t-14 -18t-33 -13h-84q-42 0 -73 2t-60 4t-60 4t-75 0q-12 10 -26 26t-14 34zM548 714 q12 -2 22 -4t19 -3t15 -1h16h84t103 2t104 6t87 12v4v4q-16 26 -28 54t-25 63t-28 79t-37 102q-6 8 -18 41t-27 77t-32 93t-31 89t-24 65t-10 23l-50 -196q-4 -10 -4 -24t-10 -26l-126 -444v-16zM564 1990q0 36 21 46t45 20q18 6 21 14t25 8q34 -22 63 -59t71 -77 q12 -14 28 -26t31 -24t26 -27t11 -35q0 -40 -28 -64t-64 -24q-12 0 -43 23t-65 54t-63 62t-39 47q-4 6 -22 26t-18 36z" />
<glyph unicode="&#xc1;" horiz-adv-x="1588" d="M52 86q0 26 3 53t27 37q24 8 39 11t24 3t14 -1t11 3q16 34 28 62t21 54t19 53t22 57q38 96 74 190t62 196q0 4 3 12t5 12q16 36 35 85t29 85q0 2 7 12t9 12q12 36 24 81t24 91t25 90t25 80q14 38 22 67t15 57t14 58t19 68q4 22 10 49t18 37q22 16 49 14t49 -22 q14 -14 27 -55t27 -71q46 -102 76 -180t53 -145t43 -127t44 -126q14 -40 34 -87t36 -81q70 -158 135 -324t137 -324q24 -4 53 3t53 6t40 -20t16 -77q0 -48 -19 -53t-53 -5q-2 0 -8 -2t-16 -4t-22 -4q-6 2 -30 0t-28 0l-266 -8q-4 0 -6 10t-2 14q-6 2 -10 18t-5 37t4 39 t19 24l108 6l-4 12l-5 14t-11 34t-13 40t-11 34l-116 278l-562 -22v-10q-34 -94 -76 -189t-54 -179h4h4q4 2 24 0t24 -2h6q2 0 3 1t3 1q26 0 42 -16t16 -38q0 -24 1 -40t-2 -27t-14 -18t-33 -13h-84q-42 0 -73 2t-60 4t-60 4t-75 0q-12 10 -26 26t-14 34zM548 714 q12 -2 22 -4t19 -3t15 -1h16h84t103 2t104 6t87 12v4v4q-16 26 -28 54t-25 63t-28 79t-37 102q-6 8 -18 41t-27 77t-32 93t-31 89t-24 65t-10 23l-50 -196q-4 -10 -4 -24t-10 -26l-126 -444v-16zM622 1850q0 20 11 35t26 27t31 24t28 26q42 40 71 77t63 59q22 0 25 -8 t21 -14q24 -10 45 -20t21 -46q0 -16 -18 -36t-22 -26q-10 -16 -39 -47t-63 -62t-65 -54t-43 -23q-36 0 -64 24t-28 64z" />
<glyph unicode="&#xc2;" horiz-adv-x="1588" d="M52 86q0 26 3 53t27 37q24 8 39 11t24 3t14 -1t11 3q16 34 28 62t21 54t19 53t22 57q38 96 74 190t62 196q0 4 3 12t5 12q16 36 35 85t29 85q0 2 7 12t9 12q12 36 24 81t24 91t25 90t25 80q14 38 22 67t15 57t14 58t19 68q4 22 10 49t18 37q22 16 49 14t49 -22 q14 -14 27 -55t27 -71q46 -102 76 -180t53 -145t43 -127t44 -126q14 -40 34 -87t36 -81q70 -158 135 -324t137 -324q24 -4 53 3t53 6t40 -20t16 -77q0 -48 -19 -53t-53 -5q-2 0 -8 -2t-16 -4t-22 -4q-6 2 -30 0t-28 0l-266 -8q-4 0 -6 10t-2 14q-6 2 -10 18t-5 37t4 39 t19 24l108 6l-4 12l-5 14t-11 34t-13 40t-11 34l-116 278l-562 -22v-10q-34 -94 -76 -189t-54 -179h4h4q4 2 24 0t24 -2h6q2 0 3 1t3 1q26 0 42 -16t16 -38q0 -24 1 -40t-2 -27t-14 -18t-33 -13h-84q-42 0 -73 2t-60 4t-60 4t-75 0q-12 10 -26 26t-14 34zM540 1892 q0 4 28 31t67 58t78 56t61 25q22 22 56 4t74 -60l136 -122q2 -4 5 -12t3 -12v-4q0 -22 -13 -37t-31 -25t-39 -14t-39 -4h-16q-4 4 -15 14t-23 22t-22 21t-16 13q-10 6 -15 15t-9 16t-10 13t-18 6q-2 0 -10 -7t-18 -17q-12 -10 -26 -22l-60 -62q-16 -10 -23 -13t-21 -3 q-12 0 -26 15t-26 35t-21 40t-11 30zM548 714q12 -2 22 -4t19 -3t15 -1h16h84t103 2t104 6t87 12v4v4q-16 26 -28 54t-25 63t-28 79t-37 102q-6 8 -18 41t-27 77t-32 93t-31 89t-24 65t-10 23l-50 -196q-4 -10 -4 -24t-10 -26l-126 -444v-16z" />
<glyph unicode="&#xc3;" horiz-adv-x="1588" d="M52 86q0 26 3 53t27 37q24 8 39 11t24 3t14 -1t11 3q16 34 28 62t21 54t19 53t22 57q38 96 74 190t62 196q0 4 3 12t5 12q16 36 35 85t29 85q0 2 7 12t9 12q12 36 24 81t24 91t25 90t25 80q14 38 22 67t15 57t14 58t19 68q4 22 10 49t18 37q22 16 49 14t49 -22 q14 -14 27 -55t27 -71q46 -102 76 -180t53 -145t43 -127t44 -126q14 -40 34 -87t36 -81q70 -158 135 -324t137 -324q24 -4 53 3t53 6t40 -20t16 -77q0 -48 -19 -53t-53 -5q-2 0 -8 -2t-16 -4t-22 -4q-6 2 -30 0t-28 0l-266 -8q-4 0 -6 10t-2 14q-6 2 -10 18t-5 37t4 39 t19 24l108 6l-4 12l-5 14t-11 34t-13 40t-11 34l-116 278l-562 -22v-10q-34 -94 -76 -189t-54 -179h4h4q4 2 24 0t24 -2h6q2 0 3 1t3 1q26 0 42 -16t16 -38q0 -24 1 -40t-2 -27t-14 -18t-33 -13h-84q-42 0 -73 2t-60 4t-60 4t-75 0q-12 10 -26 26t-14 34zM384 1970 q0 10 10 20l14 14q52 46 106 84t130 38q62 0 96 -32t58 -70t45 -70t59 -32q34 0 66 29t42 61q6 12 7 29t4 32t11 25t30 10q16 0 40 -6t47 -16t39 -26t16 -34q0 -52 -30 -102t-75 -90t-100 -64t-105 -24q-64 0 -104 32t-65 69t-42 69t-37 32q-28 0 -49 -15t-40 -34t-40 -34 t-51 -15q-34 0 -45 23t-23 45q-10 20 -12 23t-2 29zM548 714q12 -2 22 -4t19 -3t15 -1h16h84t103 2t104 6t87 12v4v4q-16 26 -28 54t-25 63t-28 79t-37 102q-6 8 -18 41t-27 77t-32 93t-31 89t-24 65t-10 23l-50 -196q-4 -10 -4 -24t-10 -26l-126 -444v-16z" />
<glyph unicode="&#xc4;" horiz-adv-x="1588" d="M52 86q0 26 3 53t27 37q24 8 39 11t24 3t14 -1t11 3q16 34 28 62t21 54t19 53t22 57q38 96 74 190t62 196q0 4 3 12t5 12q16 36 35 85t29 85q0 2 7 12t9 12q12 36 24 81t24 91t25 90t25 80q14 38 22 67t15 57t14 58t19 68q4 22 10 49t18 37q22 16 49 14t49 -22 q14 -14 27 -55t27 -71q46 -102 76 -180t53 -145t43 -127t44 -126q14 -40 34 -87t36 -81q70 -158 135 -324t137 -324q24 -4 53 3t53 6t40 -20t16 -77q0 -48 -19 -53t-53 -5q-2 0 -8 -2t-16 -4t-22 -4q-6 2 -30 0t-28 0l-266 -8q-4 0 -6 10t-2 14q-6 2 -10 18t-5 37t4 39 t19 24l108 6l-4 12l-5 14t-11 34t-13 40t-11 34l-116 278l-562 -22v-10q-34 -94 -76 -189t-54 -179h4h4q4 2 24 0t24 -2h6q2 0 3 1t3 1q26 0 42 -16t16 -38q0 -24 1 -40t-2 -27t-14 -18t-33 -13h-84q-42 0 -73 2t-60 4t-60 4t-75 0q-12 10 -26 26t-14 34zM372 1950 q0 68 40 99t91 31t95 -30t54 -84q4 -30 -1 -61t-21 -55t-41 -40t-59 -16q-66 0 -112 44t-46 112zM548 714q12 -2 22 -4t19 -3t15 -1h16h84t103 2t104 6t87 12v4v4q-16 26 -28 54t-25 63t-28 79t-37 102q-6 8 -18 41t-27 77t-32 93t-31 89t-24 65t-10 23l-50 -196 q-4 -10 -4 -24t-10 -26l-126 -444v-16zM738 1950q0 68 40 99t91 31t95 -30t54 -84q4 -30 -1 -61t-21 -55t-41 -40t-59 -16q-66 0 -112 44t-46 112z" />
<glyph unicode="&#xc5;" horiz-adv-x="1588" d="M52 86q0 26 3 53t27 37q24 8 39 11t24 3t14 -1t11 3q16 34 28 62t21 54t19 53t22 57q38 96 74 190t62 196q0 4 3 12t5 12q16 36 35 85t29 85q0 2 7 12t9 12q12 36 24 81t24 91t25 90t25 80q14 38 22 67t15 57t14 58t19 68q4 22 10 49t18 37q22 16 49 14t49 -22 q14 -14 27 -55t27 -71q46 -102 76 -180t53 -145t43 -127t44 -126q14 -40 34 -87t36 -81q70 -158 135 -324t137 -324q24 -4 53 3t53 6t40 -20t16 -77q0 -48 -19 -53t-53 -5q-2 0 -8 -2t-16 -4t-22 -4q-6 2 -30 0t-28 0l-266 -8q-4 0 -6 10t-2 14q-6 2 -10 18t-5 37t4 39 t19 24l108 6l-4 12l-5 14t-11 34t-13 40t-11 34l-116 278l-562 -22v-10q-34 -94 -76 -189t-54 -179h4h4q4 2 24 0t24 -2h6q2 0 3 1t3 1q26 0 42 -16t16 -38q0 -24 1 -40t-2 -27t-14 -18t-33 -13h-84q-42 0 -73 2t-60 4t-60 4t-75 0q-12 10 -26 26t-14 34zM508 1878 q-2 62 27 97t73 53t92 24t82 6q58 0 98 -16t61 -43t25 -61t-10 -70q-4 -40 -32 -64t-66 -38t-81 -19t-75 -5q-24 0 -57 8t-63 24t-52 41t-22 63zM548 714q12 -2 22 -4t19 -3t15 -1h16h84t103 2t104 6t87 12v4v4q-16 26 -28 54t-25 63t-28 79t-37 102q-6 8 -18 41t-27 77 t-32 93t-31 89t-24 65t-10 23l-50 -196q-4 -10 -4 -24t-10 -26l-126 -444v-16zM656 1906q-4 -26 21 -36t57 -8t59 14t27 30q0 20 -25 29t-55 8t-56 -11t-28 -26z" />
<glyph unicode="&#xc6;" horiz-adv-x="1692" d="M52 86q0 26 3 53t27 37q24 8 39 11t24 3t14 -1t11 3q16 34 28 62t21 54t19 53t22 57q38 96 74 190t62 196q0 4 3 12t5 12q16 36 35 85t29 85q0 2 7 12t9 12q12 36 24 81t24 91t25 90t25 80q14 38 22 67t15 57t14 58t19 68q6 44 14 76t52 36q78 0 195 3t240 6t239 7t194 6 q2 0 9 -6t16 -13t16 -13t7 -8q2 -6 4 -20t4 -29t2 -28v-15l-10 -146q0 -22 -6 -32t-16 -14t-23 -3t-27 1q-8 0 -24 1t-20 3l-36 16v126l-12 8q-38 2 -84 1t-93 -4t-93 -5t-84 -2h-42q-18 -2 -45 -2t-53 -2q-30 -2 -62 -4l-8 -8v-14t-1 -27t-1 -29v-22q0 -98 4 -203t8 -201 q0 -22 -2 -58t10 -62q4 0 18 -1t18 -1q8 0 20 -1t23 1t19 6t8 16q0 16 1 16t1 14v27t16 15l80 6q22 0 33 -10t15 -25t4 -30v-23q0 -30 1 -46t3 -31t3 -37t-1 -64q-4 -14 -4 -24t-1 -17t-6 -10t-17 -3q-14 6 -33 2t-36 -6t-30 1t-13 23l-10 34h-21t-38 -2t-37 -4t-16 -4 l-18 -584q70 -14 138 -17t136 -2t138 4t142 3q14 10 17 17t2 13t-4 12t1 12q0 16 -3 23t-3 25q0 26 10 38t25 16t34 4h35q20 0 35 -3t29 -21q4 -34 8 -59t4 -59q0 -12 1 -33t-1 -43t-6 -39t-16 -23l-86 -14h-29t-65 -2q-144 -4 -283 -1t-283 -3q-10 0 -42 1t-68 3t-68 2h-42 h-80q-20 12 -24 40q0 6 -1 20t-3 30t-3 30t1 20q4 34 22 42t38 8h106q2 10 4 18t2 16t2 14v48q0 42 3 111t5 133l-238 -10v-10q-34 -94 -76 -189t-54 -179h8q4 2 24 0t24 -2h6q2 0 3 1t3 1q26 0 42 -16t16 -38q0 -24 1 -40t-2 -27t-14 -18t-33 -13h-84q-42 0 -73 2t-60 4 t-60 4t-75 0q-12 10 -26 26t-14 34zM548 714q12 -2 22 -4t19 -3t15 -1h126q-8 150 -5 307t7 303q-4 4 -6 21t-2 27l-36 -140q-4 -10 -4 -24t-10 -26l-126 -444v-16z" />
<glyph unicode="&#xc7;" horiz-adv-x="1286" d="M56 748q0 90 13 201t44 219t84 203t133 155q8 6 28 23t43 35t43 34t30 22q48 18 104 37t108 19q22 0 52 -5t61 -15t58 -24t45 -30q32 -32 65 -57t55 -63q2 16 1 35t2 35t14 27t37 11h12q14 -2 46 -1t46 -1q8 0 8 -8q4 -8 10 -32t6 -32q0 -20 1 -59t2 -82t1 -83v-60 q0 -2 1 -13t3 -23t3 -23t1 -13q0 -26 -14 -37t-33 -13t-41 0t-40 2q-16 0 -28 4t-24 20q-8 10 -14 31t-12 44t-11 45t-7 36q-8 30 -35 68t-64 73t-83 59t-90 24t-102 -1t-100 -29q-36 -40 -66 -67t-54 -54t-43 -59t-35 -80q-26 -74 -42 -133t-25 -116t-12 -119t-3 -140v-90 q6 -70 33 -151t72 -155t108 -131t143 -77h152q46 14 84 40t68 60t52 73t36 75q2 6 5 22t7 34t7 34t5 22q4 16 6 32t2 32q0 4 -1 10t-7 6h-64q-10 0 -17 18t-7 22v35t4 33q4 44 48 50q24 -2 40 -3t31 -2t30 -1h37q24 0 48 4t58 4q8 -22 16 -29t12 -13t7 -15t3 -33 q0 -4 -1 -22t-1 -22q-4 -22 -27 -26t-37 -14q-6 -4 -12 -32t-12 -63t-12 -69t-12 -52q-14 -46 -44 -97t-72 -97t-94 -82t-112 -54q-122 -18 -203 -14t-133 17t-82 29t-48 26q-74 52 -130 132t-93 172t-56 189t-19 183zM414 -270q0 18 8 38t23 36t34 23t39 1q32 -10 45 -26 t17 -33t6 -29t12 -12q58 -22 99 -8t58 43t5 61t-58 44q-26 8 -56 5t-57 -3t-49 7t-30 35q-4 26 -5 34t-1 11t1 9t1 30q0 8 -1 21t-1 21q16 24 35 29t45 5h31t26 -5t18 -18t7 -37v-36l12 -4q12 -4 20 -4q40 -6 68 -14t50 -23t39 -38t35 -61v-60q-8 -72 -45 -111t-86 -58 t-102 -22t-93 -1q-34 6 -64 22t-51 37t-31 45t-4 46z" />
<glyph unicode="&#xc8;" horiz-adv-x="1204" d="M4 1566q12 70 48 98t118 28q56 8 105 8t91 -3t77 -5t61 2q158 0 313 3t311 7q4 -2 23 -5t19 -7q2 -6 4 -20t4 -29t2 -28v-15l-10 -146q0 -22 -6 -32t-16 -14t-23 -3t-27 1q-8 0 -24 1t-20 3l-36 16v126l-12 8q-38 2 -87 1t-101 -4t-102 -5t-88 -2h-42q-18 -2 -45 -2 t-53 -2q-30 -2 -62 -4l-8 -8v-14t-1 -27t-1 -29v-22q0 -98 4 -203t8 -201q0 -22 -2 -58t10 -62q4 0 18 -1t18 -1q8 0 20 -1t23 1t19 6t8 16q0 16 1 16t1 14v27t16 15l80 6q22 0 33 -10t15 -25t4 -30v-23q0 -30 1 -46t3 -31t3 -37t-1 -64q-4 -14 -4 -24t-1 -17t-6 -10t-17 -3 q-14 6 -33 2t-36 -6t-30 1t-13 23l-10 34h-21t-38 -2t-37 -4t-16 -4l6 -584q70 -14 138 -17t136 -2t138 4t142 3q14 10 17 17t2 13t-4 12t1 12q0 16 -3 23t-3 25q0 26 10 38t25 16t34 4h35q20 0 35 -3t29 -21q4 -34 8 -59t4 -59q0 -12 1 -33t-1 -43t-6 -39t-16 -23l-86 -14 h-29t-65 -2q-144 -4 -283 -1t-283 -3q-10 0 -42 1t-68 3t-68 2h-42h-40h-40q-20 12 -24 40q2 10 -4 26t-2 26q4 34 22 42t38 8h114q2 10 4 18t2 16t2 14v48q0 30 2 84t4 111t3 110t-1 83q-10 162 -12 333t2 331q-4 6 -6 28t-2 28v35v53t1 52t1 34q-4 0 -13 2t-13 2 q10 -32 -4 -58t-41 -42t-61 -20t-63 10t-48 48t-15 94zM430 2010q0 36 21 46t45 20q18 6 21 14t25 8q34 -22 63 -59t71 -77q12 -14 28 -26t31 -24t26 -27t11 -35q0 -40 -28 -64t-64 -24q-12 0 -43 23t-65 54t-63 62t-39 47q-4 6 -22 26t-18 36z" />
<glyph unicode="&#xc9;" horiz-adv-x="1204" d="M4 1566q12 70 48 98t118 28q56 8 105 8t91 -3t77 -5t61 2q158 0 313 3t311 7q4 -2 23 -5t19 -7q2 -6 4 -20t4 -29t2 -28v-15l-10 -146q0 -22 -6 -32t-16 -14t-23 -3t-27 1q-8 0 -24 1t-20 3l-36 16v126l-12 8q-38 2 -87 1t-101 -4t-102 -5t-88 -2h-42q-18 -2 -45 -2 t-53 -2q-30 -2 -62 -4l-8 -8v-14t-1 -27t-1 -29v-22q0 -98 4 -203t8 -201q0 -22 -2 -58t10 -62q4 0 18 -1t18 -1q8 0 20 -1t23 1t19 6t8 16q0 16 1 16t1 14v27t16 15l80 6q22 0 33 -10t15 -25t4 -30v-23q0 -30 1 -46t3 -31t3 -37t-1 -64q-4 -14 -4 -24t-1 -17t-6 -10t-17 -3 q-14 6 -33 2t-36 -6t-30 1t-13 23l-10 34h-21t-38 -2t-37 -4t-16 -4l6 -584q70 -14 138 -17t136 -2t138 4t142 3q14 10 17 17t2 13t-4 12t1 12q0 16 -3 23t-3 25q0 26 10 38t25 16t34 4h35q20 0 35 -3t29 -21q4 -34 8 -59t4 -59q0 -12 1 -33t-1 -43t-6 -39t-16 -23l-86 -14 h-29t-65 -2q-144 -4 -283 -1t-283 -3q-10 0 -42 1t-68 3t-68 2h-42h-40h-40q-20 12 -24 40q2 10 -4 26t-2 26q4 34 22 42t38 8h114q2 10 4 18t2 16t2 14v48q0 30 2 84t4 111t3 110t-1 83q-10 162 -12 333t2 331q-4 6 -6 28t-2 28v35v53t1 52t1 34q-4 0 -13 2t-13 2 q10 -32 -4 -58t-41 -42t-61 -20t-63 10t-48 48t-15 94zM430 1850q0 20 11 35t26 27t31 24t28 26q42 40 71 77t63 59q22 0 25 -8t21 -14q24 -10 45 -20t21 -46q0 -16 -18 -36t-22 -26q-10 -16 -39 -47t-63 -62t-65 -54t-43 -23q-36 0 -64 24t-28 64z" />
<glyph unicode="&#xca;" horiz-adv-x="1204" d="M4 1566q12 70 48 98t118 28q56 8 105 8t91 -3t77 -5t61 2q158 0 313 3t311 7q4 -2 23 -5t19 -7q2 -6 4 -20t4 -29t2 -28v-15l-10 -146q0 -22 -6 -32t-16 -14t-23 -3t-27 1q-8 0 -24 1t-20 3l-36 16v126l-12 8q-38 2 -87 1t-101 -4t-102 -5t-88 -2h-42q-18 -2 -45 -2 t-53 -2q-30 -2 -62 -4l-8 -8v-14t-1 -27t-1 -29v-22q0 -98 4 -203t8 -201q0 -22 -2 -58t10 -62q4 0 18 -1t18 -1q8 0 20 -1t23 1t19 6t8 16q0 16 1 16t1 14v27t16 15l80 6q22 0 33 -10t15 -25t4 -30v-23q0 -30 1 -46t3 -31t3 -37t-1 -64q-4 -14 -4 -24t-1 -17t-6 -10t-17 -3 q-14 6 -33 2t-36 -6t-30 1t-13 23l-10 34h-21t-38 -2t-37 -4t-16 -4l6 -584q70 -14 138 -17t136 -2t138 4t142 3q14 10 17 17t2 13t-4 12t1 12q0 16 -3 23t-3 25q0 26 10 38t25 16t34 4h35q20 0 35 -3t29 -21q4 -34 8 -59t4 -59q0 -12 1 -33t-1 -43t-6 -39t-16 -23l-86 -14 h-29t-65 -2q-144 -4 -283 -1t-283 -3q-10 0 -42 1t-68 3t-68 2h-42h-40h-40q-20 12 -24 40q2 10 -4 26t-2 26q4 34 22 42t38 8h114q2 10 4 18t2 16t2 14v48q0 30 2 84t4 111t3 110t-1 83q-10 162 -12 333t2 331q-4 6 -6 28t-2 28v35v53t1 52t1 34q-4 0 -13 2t-13 2 q10 -32 -4 -58t-41 -42t-61 -20t-63 10t-48 48t-15 94zM348 1892q0 4 28 31t67 58t78 56t61 25q22 22 56 4t74 -60l136 -122q2 -4 5 -12t3 -12v-4q0 -22 -13 -37t-31 -25t-39 -14t-39 -4h-16q-4 4 -15 14t-23 22t-22 21t-16 13q-10 6 -15 15t-9 16t-10 13t-18 6q-2 0 -10 -7 t-18 -17q-12 -10 -26 -22l-60 -62q-16 -10 -23 -13t-21 -3q-12 0 -26 15t-26 35t-21 40t-11 30z" />
<glyph unicode="&#xcb;" horiz-adv-x="1204" d="M4 1566q12 70 48 98t118 28q56 8 105 8t91 -3t77 -5t61 2q158 0 313 3t311 7q4 -2 23 -5t19 -7q2 -6 4 -20t4 -29t2 -28v-15l-10 -146q0 -22 -6 -32t-16 -14t-23 -3t-27 1q-8 0 -24 1t-20 3l-36 16v126l-12 8q-38 2 -87 1t-101 -4t-102 -5t-88 -2h-42q-18 -2 -45 -2 t-53 -2q-30 -2 -62 -4l-8 -8v-14t-1 -27t-1 -29v-22q0 -98 4 -203t8 -201q0 -22 -2 -58t10 -62q4 0 18 -1t18 -1q8 0 20 -1t23 1t19 6t8 16q0 16 1 16t1 14v27t16 15l80 6q22 0 33 -10t15 -25t4 -30v-23q0 -30 1 -46t3 -31t3 -37t-1 -64q-4 -14 -4 -24t-1 -17t-6 -10t-17 -3 q-14 6 -33 2t-36 -6t-30 1t-13 23l-10 34h-21t-38 -2t-37 -4t-16 -4l6 -584q70 -14 138 -17t136 -2t138 4t142 3q14 10 17 17t2 13t-4 12t1 12q0 16 -3 23t-3 25q0 26 10 38t25 16t34 4h35q20 0 35 -3t29 -21q4 -34 8 -59t4 -59q0 -12 1 -33t-1 -43t-6 -39t-16 -23l-86 -14 h-29t-65 -2q-144 -4 -283 -1t-283 -3q-10 0 -42 1t-68 3t-68 2h-42h-40h-40q-20 12 -24 40q2 10 -4 26t-2 26q4 34 22 42t38 8h114q2 10 4 18t2 16t2 14v48q0 30 2 84t4 111t3 110t-1 83q-10 162 -12 333t2 331q-4 6 -6 28t-2 28v35v53t1 52t1 34q-4 0 -13 2t-13 2 q10 -32 -4 -58t-41 -42t-61 -20t-63 10t-48 48t-15 94zM268 1968q0 68 40 99t91 31t95 -30t54 -84q4 -30 -1 -61t-21 -55t-41 -40t-59 -16q-66 0 -112 44t-46 112zM634 1968q0 68 40 99t91 31t95 -30t54 -84q4 -30 -1 -61t-21 -55t-41 -40t-59 -16q-66 0 -112 44t-46 112z " />
<glyph unicode="&#xcc;" horiz-adv-x="1282" d="M48 1588q-4 22 3 33t7 33q0 28 22 35t42 19q6 0 22 2t34 3t34 2t22 1h218q8 0 38 1t66 3t66 3t38 1q76 0 161 -5t161 -9q20 -2 64 -3t88 -5t77 -16t35 -34v-20t-4 -18l-8 -158q4 4 -7 2t-26 -6t-29 -8t-16 -4q-4 0 -24 1t-41 4t-38 7t-17 10v88l-8 8q-4 2 -12 4t-12 4 q-8 0 -23 2t-32 3t-31 2t-18 1q-12 0 -35 1t-45 2t-38 1h-18l-8 -8q4 -88 3 -201t-5 -232t-8 -233t-4 -200q0 -50 -1 -113t-2 -128t-1 -128t4 -111q0 -10 1 -22t3 -24l4 -28l296 2v82q0 6 7 10t16 7t16 5t9 2h16t28 2h4q44 0 62 -9t24 -26t5 -42t5 -57q0 -4 3 -22t5 -22 q2 -20 -11 -33t-31 -23q-24 0 -80 -1t-118 -1h-118h-80q-112 -2 -211 -4t-207 -12q-4 0 -15 -1t-25 -3t-26 -3t-14 -1q-12 0 -35 2t-48 5t-48 6t-35 5q-22 -4 -36 0t-22 10t-11 14t-3 14v66q0 22 1 55t3 55q4 6 15 11t17 5q4 -2 21 1t21 3q14 -2 43 -3t41 1q10 -4 20 -11 t20 -13q0 -10 1 -34t1 -34q0 -2 3 -8t5 -8h42q58 0 104 5t104 11q2 76 7 186t10 226t11 225t10 183v8v8q0 2 -1 12t-3 20t-3 20t-1 12v288l-16 224l-8 8q-50 4 -94 8q-38 4 -73 6t-51 4h-32h-32q-2 -16 -3 -41t-5 -50t-16 -45t-34 -26h-48q-44 0 -63 6t-25 22t-7 46t-9 80z M470 2010q0 36 21 46t45 20q18 6 21 14t25 8q34 -22 63 -59t71 -77q12 -14 28 -26t31 -24t26 -27t11 -35q0 -40 -28 -64t-64 -24q-12 0 -43 23t-65 54t-63 62t-39 47q-4 6 -22 26t-18 36z" />
<glyph unicode="&#xcd;" horiz-adv-x="1282" d="M48 1588q-4 22 3 33t7 33q0 28 22 35t42 19q6 0 22 2t34 3t34 2t22 1h218q8 0 38 1t66 3t66 3t38 1q76 0 161 -5t161 -9q20 -2 64 -3t88 -5t77 -16t35 -34v-20t-4 -18l-8 -158q4 4 -7 2t-26 -6t-29 -8t-16 -4q-4 0 -24 1t-41 4t-38 7t-17 10v88l-8 8q-4 2 -12 4t-12 4 q-8 0 -23 2t-32 3t-31 2t-18 1q-12 0 -35 1t-45 2t-38 1h-18l-8 -8q4 -88 3 -201t-5 -232t-8 -233t-4 -200q0 -50 -1 -113t-2 -128t-1 -128t4 -111q0 -10 1 -22t3 -24l4 -28l296 2v82q0 6 7 10t16 7t16 5t9 2h16t28 2h4q44 0 62 -9t24 -26t5 -42t5 -57q0 -4 3 -22t5 -22 q2 -20 -11 -33t-31 -23q-24 0 -80 -1t-118 -1h-118h-80q-112 -2 -211 -4t-207 -12q-4 0 -15 -1t-25 -3t-26 -3t-14 -1q-12 0 -35 2t-48 5t-48 6t-35 5q-22 -4 -36 0t-22 10t-11 14t-3 14v66q0 22 1 55t3 55q4 6 15 11t17 5q4 -2 21 1t21 3q14 -2 43 -3t41 1q10 -4 20 -11 t20 -13q0 -10 1 -34t1 -34q0 -2 3 -8t5 -8h42q58 0 104 5t104 11q2 76 7 186t10 226t11 225t10 183v8v8q0 2 -1 12t-3 20t-3 20t-1 12v288l-16 224l-8 8q-50 4 -94 8q-38 4 -73 6t-51 4h-32h-32q-2 -16 -3 -41t-5 -50t-16 -45t-34 -26h-48q-44 0 -63 6t-25 22t-7 46t-9 80z M470 1850q0 20 11 35t26 27t31 24t28 26q42 40 71 77t63 59q22 0 25 -8t21 -14q24 -10 45 -20t21 -46q0 -16 -18 -36t-22 -26q-10 -16 -39 -47t-63 -62t-65 -54t-43 -23q-36 0 -64 24t-28 64z" />
<glyph unicode="&#xce;" horiz-adv-x="1282" d="M48 1588q-4 22 3 33t7 33q0 28 22 35t42 19q6 0 22 2t34 3t34 2t22 1h218q8 0 38 1t66 3t66 3t38 1q76 0 161 -5t161 -9q20 -2 64 -3t88 -5t77 -16t35 -34v-20t-4 -18l-8 -158q4 4 -7 2t-26 -6t-29 -8t-16 -4q-4 0 -24 1t-41 4t-38 7t-17 10v88l-8 8q-4 2 -12 4t-12 4 q-8 0 -23 2t-32 3t-31 2t-18 1q-12 0 -35 1t-45 2t-38 1h-18l-8 -8q4 -88 3 -201t-5 -232t-8 -233t-4 -200q0 -50 -1 -113t-2 -128t-1 -128t4 -111q0 -10 1 -22t3 -24l4 -28l296 2v82q0 6 7 10t16 7t16 5t9 2h16t28 2h4q44 0 62 -9t24 -26t5 -42t5 -57q0 -4 3 -22t5 -22 q2 -20 -11 -33t-31 -23q-24 0 -80 -1t-118 -1h-118h-80q-112 -2 -211 -4t-207 -12q-4 0 -15 -1t-25 -3t-26 -3t-14 -1q-12 0 -35 2t-48 5t-48 6t-35 5q-22 -4 -36 0t-22 10t-11 14t-3 14v66q0 22 1 55t3 55q4 6 15 11t17 5q4 -2 21 1t21 3q14 -2 43 -3t41 1q10 -4 20 -11 t20 -13q0 -10 1 -34t1 -34q0 -2 3 -8t5 -8h42q58 0 104 5t104 11q2 76 7 186t10 226t11 225t10 183v8v8q0 2 -1 12t-3 20t-3 20t-1 12v288l-16 224l-8 8q-50 4 -94 8q-38 4 -73 6t-51 4h-32h-32q-2 -16 -3 -41t-5 -50t-16 -45t-34 -26h-48q-44 0 -63 6t-25 22t-7 46t-9 80z M388 1892q0 4 28 31t67 58t78 56t61 25q22 22 56 4t74 -60l136 -122q2 -4 5 -12t3 -12v-4q0 -22 -13 -37t-31 -25t-39 -14t-39 -4h-16q-4 4 -15 14t-23 22t-22 21t-16 13q-10 6 -15 15t-9 16t-10 13t-18 6q-2 0 -10 -7t-18 -17q-12 -10 -26 -22l-60 -62q-16 -10 -23 -13 t-21 -3q-12 0 -26 15t-26 35t-21 40t-11 30z" />
<glyph unicode="&#xcf;" horiz-adv-x="1282" d="M48 1588q-4 22 3 33t7 33q0 28 22 35t42 19q6 0 22 2t34 3t34 2t22 1h218q8 0 38 1t66 3t66 3t38 1q76 0 161 -5t161 -9q20 -2 64 -3t88 -5t77 -16t35 -34v-20t-4 -18l-8 -158q4 4 -7 2t-26 -6t-29 -8t-16 -4q-4 0 -24 1t-41 4t-38 7t-17 10v88l-8 8q-4 2 -12 4t-12 4 q-8 0 -23 2t-32 3t-31 2t-18 1q-12 0 -35 1t-45 2t-38 1h-18l-8 -8q4 -88 3 -201t-5 -232t-8 -233t-4 -200q0 -50 -1 -113t-2 -128t-1 -128t4 -111q0 -10 1 -22t3 -24l4 -28l296 2v82q0 6 7 10t16 7t16 5t9 2h16t28 2h4q44 0 62 -9t24 -26t5 -42t5 -57q0 -4 3 -22t5 -22 q2 -20 -11 -33t-31 -23q-24 0 -80 -1t-118 -1h-118h-80q-112 -2 -211 -4t-207 -12q-4 0 -15 -1t-25 -3t-26 -3t-14 -1q-12 0 -35 2t-48 5t-48 6t-35 5q-22 -4 -36 0t-22 10t-11 14t-3 14v66q0 22 1 55t3 55q4 6 15 11t17 5q4 -2 21 1t21 3q14 -2 43 -3t41 1q10 -4 20 -11 t20 -13q0 -10 1 -34t1 -34q0 -2 3 -8t5 -8h42q58 0 104 5t104 11q2 76 7 186t10 226t11 225t10 183v8v8q0 2 -1 12t-3 20t-3 20t-1 12v288l-16 224l-8 8q-50 4 -94 8q-38 4 -73 6t-51 4h-32h-32q-2 -16 -3 -41t-5 -50t-16 -45t-34 -26h-48q-44 0 -63 6t-25 22t-7 46t-9 80z M308 1968q0 68 40 99t91 31t95 -30t54 -84q4 -30 -1 -61t-21 -55t-41 -40t-59 -16q-66 0 -112 44t-46 112zM674 1968q0 68 40 99t91 31t95 -30t54 -84q4 -30 -1 -61t-21 -55t-41 -40t-59 -16q-66 0 -112 44t-46 112z" />
<glyph unicode="&#xd1;" horiz-adv-x="1334" d="M20 1612q2 44 2 74q0 16 13 15t27 7q6 0 19 2t28 3t28 2t19 1q4 0 16 -3t16 -5q44 4 104 7t104 -7q8 -2 10 -21t2 -43t-2 -47t0 -31q0 -8 -5 -10t-13 -2t-14 -2t-6 -10l8 -12q4 -6 10 -12q38 -56 66 -101t49 -83t39 -69t40 -57q54 -78 111 -179t114 -209t112 -212 t103 -184q4 -8 12 -20l16 -24t14 -20l6 -8h8v8q0 4 -3 16t-5 16q4 110 5 239t-2 261t-9 260t-16 240q-2 8 -2 32t-2 50q-2 30 -2 64l-16 8h-19t-8 2t-10 5t-25 9q-10 10 -13 28t-3 28v24t2 32t5 30t9 18q14 2 37 2t47 -1t46 -1t38 2q26 2 50 5t50 3h28l26 -26q2 -18 6 -36 l4 -32t4 -28v-22q0 -24 -14 -33t-30 -12t-30 -5t-16 -8v-48q0 -132 1 -250t9 -248q4 -66 6 -139t4 -147t6 -147t10 -137q0 -8 2 -45t3 -79t3 -79t4 -45v-20q0 -14 -1 -37t-6 -44t-17 -36t-34 -15h-136q-16 0 -29 15t-24 36t-18 43t-9 34l-208 378q-16 8 -25 40t-15 48 l-18 36t-31 59t-31 58t-16 33q-38 76 -73 142t-87 132q0 2 -4 8t-4 8q-8 12 -23 36l-30 48t-28 44t-15 24q-4 4 -12 17t-18 27t-20 27t-14 19q-4 2 -9 8t-7 8q-2 0 -3 -2t-3 -2l12 -758q2 -38 3 -87t2 -101t3 -102t8 -88l8 -8q26 -6 45 -8t31 -7t18 -19t6 -44q0 -14 2 -33 t0 -36t-14 -29t-38 -12q-4 -14 -15 -16t-25 2t-27 9t-21 3q-8 0 -34 1t-55 3t-55 3t-34 1h-10t-17 3t-16 7t-5 14q0 4 -2 19t-3 33t-3 33t-2 19q-2 20 10 26t28 8t34 4t28 12l-18 368v164q0 10 1 45t2 75t2 75t1 45q0 4 -1 18t-2 30t-3 30t-2 18v16v16q0 6 2 22t3 34t2 34 t1 22q-8 12 -7 17t-1 17q0 4 -1 20t-3 35t-3 36t-1 21q0 8 -1 32t-1 53t-1 54t-1 33h-26t-17 1t-17 2t-26 5q-8 0 -8 8q-6 32 -4 76zM256 1970q0 10 10 20l14 14q52 46 106 84t130 38q62 0 96 -32t58 -70t45 -70t59 -32q34 0 66 29t42 61q6 12 7 29t4 32t11 25t30 10 q16 0 40 -6t47 -16t39 -26t16 -34q0 -52 -30 -102t-75 -90t-100 -64t-105 -24q-64 0 -104 32t-65 69t-42 69t-37 32q-28 0 -49 -15t-40 -34t-40 -34t-51 -15q-34 0 -45 23t-23 45q-10 20 -12 23t-2 29z" />
<glyph unicode="&#xd2;" horiz-adv-x="1208" d="M44 722q-6 162 15 313t77 307q18 72 55 129t82 100t93 73t88 46q68 28 170 22t194 -48q96 -50 171 -125t125 -213q2 -4 5 -9t3 -7q22 -88 32 -177t14 -179q12 -224 -32 -428t-158 -362q-46 -36 -87 -68t-86 -54t-94 -36t-109 -14q-166 -2 -272 60t-168 164t-88 235 t-30 271zM234 900q4 -90 8 -176q2 -56 9 -122t22 -132t39 -128t62 -110t90 -77t122 -27q66 0 117 23t89 62t66 91t50 110q16 44 31 103t23 105q12 96 18 202t-1 210t-28 199t-64 170t-111 123t-168 60q-98 -2 -160 -54t-101 -128t-61 -165t-38 -165q-18 -84 -14 -174z M432 2010q0 36 21 46t45 20q18 6 21 14t25 8q34 -22 63 -59t71 -77q12 -14 28 -26t31 -24t26 -27t11 -35q0 -40 -28 -64t-64 -24q-12 0 -43 23t-65 54t-63 62t-39 47q-4 6 -22 26t-18 36z" />
<glyph unicode="&#xd3;" horiz-adv-x="1208" d="M44 722q-6 162 15 313t77 307q18 72 55 129t82 100t93 73t88 46q68 28 170 22t194 -48q96 -50 171 -125t125 -213q2 -4 5 -9t3 -7q22 -88 32 -177t14 -179q12 -224 -32 -428t-158 -362q-46 -36 -87 -68t-86 -54t-94 -36t-109 -14q-166 -2 -272 60t-168 164t-88 235 t-30 271zM234 900q4 -90 8 -176q2 -56 9 -122t22 -132t39 -128t62 -110t90 -77t122 -27q66 0 117 23t89 62t66 91t50 110q16 44 31 103t23 105q12 96 18 202t-1 210t-28 199t-64 170t-111 123t-168 60q-98 -2 -160 -54t-101 -128t-61 -165t-38 -165q-18 -84 -14 -174z M432 1850q0 20 11 35t26 27t31 24t28 26q42 40 71 77t63 59q22 0 25 -8t21 -14q24 -10 45 -20t21 -46q0 -16 -18 -36t-22 -26q-10 -16 -39 -47t-63 -62t-65 -54t-43 -23q-36 0 -64 24t-28 64z" />
<glyph unicode="&#xd4;" horiz-adv-x="1208" d="M44 722q-6 162 15 313t77 307q18 72 55 129t82 100t93 73t88 46q68 28 170 22t194 -48q96 -50 171 -125t125 -213q2 -4 5 -9t3 -7q22 -88 32 -177t14 -179q12 -224 -32 -428t-158 -362q-46 -36 -87 -68t-86 -54t-94 -36t-109 -14q-166 -2 -272 60t-168 164t-88 235 t-30 271zM234 900q4 -90 8 -176q2 -56 9 -122t22 -132t39 -128t62 -110t90 -77t122 -27q66 0 117 23t89 62t66 91t50 110q16 44 31 103t23 105q12 96 18 202t-1 210t-28 199t-64 170t-111 123t-168 60q-98 -2 -160 -54t-101 -128t-61 -165t-38 -165q-18 -84 -14 -174z M350 1892q0 4 28 31t67 58t78 56t61 25q22 22 56 4t74 -60l136 -122q2 -4 5 -12t3 -12v-4q0 -22 -13 -37t-31 -25t-39 -14t-39 -4h-16q-4 4 -15 14t-23 22t-22 21t-16 13q-10 6 -15 15t-9 16t-10 13t-18 6q-2 0 -10 -7t-18 -17q-12 -10 -26 -22l-60 -62q-16 -10 -23 -13 t-21 -3q-12 0 -26 15t-26 35t-21 40t-11 30z" />
<glyph unicode="&#xd5;" horiz-adv-x="1208" d="M44 722q-6 162 15 313t77 307q18 72 55 129t82 100t93 73t88 46q68 28 170 22t194 -48q96 -50 171 -125t125 -213q2 -4 5 -9t3 -7q22 -88 32 -177t14 -179q12 -224 -32 -428t-158 -362q-46 -36 -87 -68t-86 -54t-94 -36t-109 -14q-166 -2 -272 60t-168 164t-88 235 t-30 271zM194 1970q0 10 10 20l14 14q52 46 106 84t130 38q62 0 96 -32t58 -70t45 -70t59 -32q34 0 66 29t42 61q6 12 7 29t4 32t11 25t30 10q16 0 40 -6t47 -16t39 -26t16 -34q0 -52 -30 -102t-75 -90t-100 -64t-105 -24q-64 0 -104 32t-65 69t-42 69t-37 32q-28 0 -49 -15 t-40 -34t-40 -34t-51 -15q-34 0 -45 23t-23 45q-10 20 -12 23t-2 29zM234 900q4 -90 8 -176q2 -56 9 -122t22 -132t39 -128t62 -110t90 -77t122 -27q66 0 117 23t89 62t66 91t50 110q16 44 31 103t23 105q12 96 18 202t-1 210t-28 199t-64 170t-111 123t-168 60 q-98 -2 -160 -54t-101 -128t-61 -165t-38 -165q-18 -84 -14 -174z" />
<glyph unicode="&#xd6;" horiz-adv-x="1208" d="M44 722q-6 162 15 313t77 307q18 72 55 129t82 100t93 73t88 46q68 28 170 22t194 -48q96 -50 171 -125t125 -213q2 -4 5 -9t3 -7q22 -88 32 -177t14 -179q12 -224 -32 -428t-158 -362q-46 -36 -87 -68t-86 -54t-94 -36t-109 -14q-166 -2 -272 60t-168 164t-88 235 t-30 271zM234 900q4 -90 8 -176q2 -56 9 -122t22 -132t39 -128t62 -110t90 -77t122 -27q66 0 117 23t89 62t66 91t50 110q16 44 31 103t23 105q12 96 18 202t-1 210t-28 199t-64 170t-111 123t-168 60q-98 -2 -160 -54t-101 -128t-61 -165t-38 -165q-18 -84 -14 -174z M274 1968q0 68 40 99t91 31t95 -30t54 -84q4 -30 -1 -61t-21 -55t-41 -40t-59 -16q-66 0 -112 44t-46 112zM640 1968q0 68 40 99t91 31t95 -30t54 -84q4 -30 -1 -61t-21 -55t-41 -40t-59 -16q-66 0 -112 44t-46 112z" />
<glyph unicode="&#xd8;" horiz-adv-x="1208" d="M44 722q-6 162 15 313t77 307q18 72 55 129t82 100t93 73t88 46q68 28 170 22t194 -48q96 -50 171 -125t125 -213q2 -4 5 -9t3 -7q22 -88 32 -177t14 -179q12 -224 -32 -428t-158 -362q-46 -36 -87 -68t-86 -54t-94 -36t-109 -14q-166 -2 -272 60t-168 164t-88 235 t-30 271zM125 61q1 15 5 25q12 16 23 37t23 43q18 34 34 64t26 50l100 208q2 4 10 21t16 37t16 36l10 20q30 58 58 122t71 160t112 237t183 351q2 10 9 25l14 30t12 30t3 27l62 122q10 18 38 22t57 -1t49 -18t14 -27l-40 -98q-2 0 -7 -11t-12 -25l-13 -26l-8 -16l-460 -990 l-214 -440q-4 -20 -24 -45t-44 -27q-26 -4 -59 12t-51 22q-14 8 -13 23zM234 900q4 -90 8 -176q2 -56 9 -122t22 -132t39 -128t62 -110t90 -77t122 -27q66 0 117 23t89 62t66 91t50 110q16 44 31 103t23 105q12 96 18 202t-1 210t-28 199t-64 170t-111 123t-168 60 q-98 -2 -160 -54t-101 -128t-61 -165t-38 -165q-18 -84 -14 -174z" />
<glyph unicode="&#xd9;" horiz-adv-x="1334" d="M12 1614q0 28 10 50t28 36t40 8l190 2q14 0 34 -1t41 -1t39 1t28 5h4q10 0 18 -24t14 -53t9 -56t3 -33q0 -30 -27 -33t-51 -3h-13t-4 -2t-4 -2h-13h-15t-13 -10q2 -106 1 -175t-2 -122t-1 -101t6 -112v-16q2 -18 4 -57t4 -82t4 -83t6 -58q6 -44 14 -100t21 -115t33 -116 t51 -103t77 -75t110 -31q90 0 151 35t101 90t62 123t34 134q12 84 18 145t9 117t4 116t1 142v51t-1 64t-1 56v29q0 6 -1 29t-2 48t-3 47t-2 28q0 10 2 30t2 41t-3 38t-15 23q-24 -2 -45 -6t-45 8l-8 8l-4 128q-2 18 1 25t11 10t21 4t31 9q12 -4 58 -4t97 1t94 1t51 -4 q18 -8 25 -15t8 -15t-1 -18t-2 -24q0 -10 1 -21t1 -13l-18 -40q-4 -16 -15 -19t-25 -4t-27 -3t-19 -14q-6 -154 -6 -300t-2 -282t-9 -262t-27 -238q-22 -84 -58 -165t-97 -144t-151 -100t-220 -33q-38 0 -81 9t-75 27q-4 2 -20 8t-20 8q-24 12 -48 36t-45 52t-38 58t-27 54 q-42 90 -61 174t-28 168t-12 172t-11 184q-4 50 -6 99t-4 111t-4 144t-6 198q-2 2 -20 -2t-22 -4h-4h-4q-4 2 -25 9t-25 5q-10 16 -15 23t-5 23q-16 22 -16 50zM496 2010q0 36 21 46t45 20q18 6 21 14t25 8q34 -22 63 -59t71 -77q12 -14 28 -26t31 -24t26 -27t11 -35 q0 -40 -28 -64t-64 -24q-12 0 -43 23t-65 54t-63 62t-39 47q-4 6 -22 26t-18 36z" />
<glyph unicode="&#xda;" horiz-adv-x="1334" d="M12 1614q0 28 10 50t28 36t40 8l190 2q14 0 34 -1t41 -1t39 1t28 5h4q10 0 18 -24t14 -53t9 -56t3 -33q0 -30 -27 -33t-51 -3h-13t-4 -2t-4 -2h-13h-15t-13 -10q2 -106 1 -175t-2 -122t-1 -101t6 -112v-16q2 -18 4 -57t4 -82t4 -83t6 -58q6 -44 14 -100t21 -115t33 -116 t51 -103t77 -75t110 -31q90 0 151 35t101 90t62 123t34 134q12 84 18 145t9 117t4 116t1 142v51t-1 64t-1 56v29q0 6 -1 29t-2 48t-3 47t-2 28q0 10 2 30t2 41t-3 38t-15 23q-24 -2 -45 -6t-45 8l-8 8l-4 128q-2 18 1 25t11 10t21 4t31 9q12 -4 58 -4t97 1t94 1t51 -4 q18 -8 25 -15t8 -15t-1 -18t-2 -24q0 -10 1 -21t1 -13l-18 -40q-4 -16 -15 -19t-25 -4t-27 -3t-19 -14q-6 -154 -6 -300t-2 -282t-9 -262t-27 -238q-22 -84 -58 -165t-97 -144t-151 -100t-220 -33q-38 0 -81 9t-75 27q-4 2 -20 8t-20 8q-24 12 -48 36t-45 52t-38 58t-27 54 q-42 90 -61 174t-28 168t-12 172t-11 184q-4 50 -6 99t-4 111t-4 144t-6 198q-2 2 -20 -2t-22 -4h-4h-4q-4 2 -25 9t-25 5q-10 16 -15 23t-5 23q-16 22 -16 50zM496 1850q0 20 11 35t26 27t31 24t28 26q42 40 71 77t63 59q22 0 25 -8t21 -14q24 -10 45 -20t21 -46 q0 -16 -18 -36t-22 -26q-10 -16 -39 -47t-63 -62t-65 -54t-43 -23q-36 0 -64 24t-28 64z" />
<glyph unicode="&#xdb;" horiz-adv-x="1334" d="M12 1614q0 28 10 50t28 36t40 8l190 2q14 0 34 -1t41 -1t39 1t28 5h4q10 0 18 -24t14 -53t9 -56t3 -33q0 -30 -27 -33t-51 -3h-13t-4 -2t-4 -2h-13h-15t-13 -10q2 -106 1 -175t-2 -122t-1 -101t6 -112v-16q2 -18 4 -57t4 -82t4 -83t6 -58q6 -44 14 -100t21 -115t33 -116 t51 -103t77 -75t110 -31q90 0 151 35t101 90t62 123t34 134q12 84 18 145t9 117t4 116t1 142v51t-1 64t-1 56v29q0 6 -1 29t-2 48t-3 47t-2 28q0 10 2 30t2 41t-3 38t-15 23q-24 -2 -45 -6t-45 8l-8 8l-4 128q-2 18 1 25t11 10t21 4t31 9q12 -4 58 -4t97 1t94 1t51 -4 q18 -8 25 -15t8 -15t-1 -18t-2 -24q0 -10 1 -21t1 -13l-18 -40q-4 -16 -15 -19t-25 -4t-27 -3t-19 -14q-6 -154 -6 -300t-2 -282t-9 -262t-27 -238q-22 -84 -58 -165t-97 -144t-151 -100t-220 -33q-38 0 -81 9t-75 27q-4 2 -20 8t-20 8q-24 12 -48 36t-45 52t-38 58t-27 54 q-42 90 -61 174t-28 168t-12 172t-11 184q-4 50 -6 99t-4 111t-4 144t-6 198q-2 2 -20 -2t-22 -4h-4h-4q-4 2 -25 9t-25 5q-10 16 -15 23t-5 23q-16 22 -16 50zM414 1892q0 4 28 31t67 58t78 56t61 25q22 22 56 4t74 -60l136 -122q2 -4 5 -12t3 -12v-4q0 -22 -13 -37 t-31 -25t-39 -14t-39 -4h-16q-4 4 -15 14t-23 22t-22 21t-16 13q-10 6 -15 15t-9 16t-10 13t-18 6q-2 0 -10 -7t-18 -17q-12 -10 -26 -22l-60 -62q-16 -10 -23 -13t-21 -3q-12 0 -26 15t-26 35t-21 40t-11 30z" />
<glyph unicode="&#xdc;" horiz-adv-x="1334" d="M12 1614q0 28 10 50t28 36t40 8l190 2q14 0 34 -1t41 -1t39 1t28 5h4q10 0 18 -24t14 -53t9 -56t3 -33q0 -30 -27 -33t-51 -3h-13t-4 -2t-4 -2h-13h-15t-13 -10q2 -106 1 -175t-2 -122t-1 -101t6 -112v-16q2 -18 4 -57t4 -82t4 -83t6 -58q6 -44 14 -100t21 -115t33 -116 t51 -103t77 -75t110 -31q90 0 151 35t101 90t62 123t34 134q12 84 18 145t9 117t4 116t1 142v51t-1 64t-1 56v29q0 6 -1 29t-2 48t-3 47t-2 28q0 10 2 30t2 41t-3 38t-15 23q-24 -2 -45 -6t-45 8l-8 8l-4 128q-2 18 1 25t11 10t21 4t31 9q12 -4 58 -4t97 1t94 1t51 -4 q18 -8 25 -15t8 -15t-1 -18t-2 -24q0 -10 1 -21t1 -13l-18 -40q-4 -16 -15 -19t-25 -4t-27 -3t-19 -14q-6 -154 -6 -300t-2 -282t-9 -262t-27 -238q-22 -84 -58 -165t-97 -144t-151 -100t-220 -33q-38 0 -81 9t-75 27q-4 2 -20 8t-20 8q-24 12 -48 36t-45 52t-38 58t-27 54 q-42 90 -61 174t-28 168t-12 172t-11 184q-4 50 -6 99t-4 111t-4 144t-6 198q-2 2 -20 -2t-22 -4h-4h-4q-4 2 -25 9t-25 5q-10 16 -15 23t-5 23q-16 22 -16 50zM338 1968q0 68 40 99t91 31t95 -30t54 -84q4 -30 -1 -61t-21 -55t-41 -40t-59 -16q-66 0 -112 44t-46 112z M704 1968q0 68 40 99t91 31t95 -30t54 -84q4 -30 -1 -61t-21 -55t-41 -40t-59 -16q-66 0 -112 44t-46 112z" />
<glyph unicode="&#xdd;" horiz-adv-x="1328" d="M20 1656q0 24 18 36t43 17t51 5t42 -2q48 -2 88 -1t92 -7q40 -6 56 -45t16 -75q0 -6 -3 -19t-9 -27t-13 -24t-15 -10l-54 8q12 -30 29 -71t33 -80t30 -71t22 -48q6 -12 31 -64t53 -110t53 -109t31 -63q4 -10 17 -32t27 -47t26 -48t18 -31q4 2 30 56t62 135t76 176t74 178 t57 142t23 69v12q-4 0 -20 4t-20 6l-16 8v152q0 14 15 25t25 15q54 -8 105 -4t103 0q8 0 30 -1t28 -3q14 -8 20 -28t8 -44t1 -47t-1 -35q0 -22 -10 -32t-24 -15t-31 -7t-29 -10q-56 -110 -106 -242t-102 -246q-16 -38 -45 -101t-59 -132t-58 -133t-44 -102l4 -250v-41 t10 -43q20 6 59 5t59 -3q4 0 14 -2t14 -2q8 -4 12 -22t7 -39t4 -39t1 -20v-16t-2 -24t-7 -22t-15 -10l-64 4l-372 -16h-8q-36 2 -42 30t-6 56q0 44 13 63t33 26t42 5t42 -1t33 9t13 36l-8 294q0 12 -13 38t-29 53t-32 52t-22 35q-44 84 -85 166l-83 166q-10 20 -29 60 t-42 90t-49 104t-52 101t-48 80t-38 41q-4 4 -23 9t-25 3q-16 28 -28 70t-12 76zM492 1850q0 20 11 35t26 27t31 24t28 26q42 40 71 77t63 59q22 0 25 -8t21 -14q24 -10 45 -20t21 -46q0 -16 -18 -36t-22 -26q-10 -16 -39 -47t-63 -62t-65 -54t-43 -23q-36 0 -64 24t-28 64z " />
<glyph unicode="&#xde;" horiz-adv-x="1088" d="M22 1525q4 41 32 74t88 37q10 0 37 -1t37 -1q44 -16 57 -50t19 -88v-44t1 -83t3 -84t8 -45q20 38 59 70t87 56t99 38t95 14q34 0 79 -8t90 -26t84 -46t61 -68q32 -54 53 -130t31 -157t14 -160t4 -139q0 -18 -1 -50t-1 -64t-1 -57t-1 -27q2 -76 -30 -153t-89 -140 t-136 -105t-169 -50h-8q-42 -6 -82 3t-76 26t-68 41t-58 48q-4 0 -6 -2t-4 -2q0 -66 -1 -149t-1 -149q0 -16 -3 -28t-5 -22t0 -21t12 -25h24h40q34 0 44 -20t10 -46q0 -2 -2 -6t-4 -12q2 -24 3 -39t-7 -23t-26 -12t-52 -6q-4 0 -13 2t-20 5t-21 5t-12 2t-13 -2t-26 -5 t-31 -5t-28 -2h-70q-30 0 -49 11t-19 49v12q4 22 12 51t36 35q24 6 40 6q10 2 12 0t4 -3t4 0t12 7q0 14 1 52t3 82t3 82t1 52q0 58 1 106t1 95t-2 95t-8 106q-4 32 -5 106t-2 157t-1 158v107v27v46v46v27t-1 31t-3 60t-3 75t-2 74t-2 59t-1 29q2 -4 -3 -11t-14 -13t-23 -10 t-28 0q-36 10 -55 47t-15 78zM360 598q4 -116 17 -191t40 -121t69 -69t106 -31h30q62 0 111 25t83 61t52 74t16 64l24 128v68q0 58 -5 146t-19 178t-39 170t-65 126q-6 8 -20 16t-29 15t-30 12t-23 5q-100 0 -178 -53t-120 -129q-6 -12 -10 -50t-6 -89t-3 -108t-1 -108v-89 v-50z" />
<glyph unicode="&#xdf;" horiz-adv-x="1056" d="M27 1648q-1 22 6 31t26 10t61 5q4 2 20 5t20 3h8h8q14 0 50 -2t76 -3t76 -3t50 -4q6 0 21 -2t33 -4t34 -4t20 -4q80 -18 160 -43t144 -73t103 -128t39 -208q0 -48 -18 -100t-47 -100t-67 -87t-78 -61q-6 -4 -17 -24t-23 -24q6 -6 53 -31t103 -77t101 -136t47 -208 q0 -116 -63 -189t-161 -123q-24 -12 -58 -20t-56 -28q-56 -14 -94 -15t-94 -1h-183t-183 16l-8 4l-8 4q-8 4 -26 4t-28 2l-16 16q0 2 -1 15t-1 19q0 34 4 49t14 19t29 2t49 -2q0 4 -1 18t-1 18v32v49t1 48t1 33v466q6 38 8 62t2 58q0 68 -3 142t-6 149t-5 149t0 144l-8 32 h-6h-10q-4 0 -2 -1t-2 -1h-4q-22 0 -50 8t-38 18v8q0 46 -1 68zM304 1538q0 -68 2 -152t4 -172t3 -172t1 -152l8 -16q4 -2 10 -2h16q48 0 103 11t110 30t104 45t83 58q18 18 38 47t36 66t24 82t2 97q-18 74 -67 120t-112 72t-132 36t-125 16q-4 0 -15 1t-24 1t-24 1t-13 1 l-8 4l-8 4q-14 -4 -15 -10t-1 -16zM320 332q0 -16 1 -47l2 -62t2 -56t1 -27l8 -8q6 -2 12 -2q4 -2 9 -2h9q8 0 28 2t22 2l12 -1t25 -1t25 -1l12 -1q74 6 139 16t118 33t90 61t57 100v24q-6 98 -42 170t-89 120t-112 75t-109 37q-6 4 -22 1t-40 -9t-59 -10t-81 0l-8 -8 q4 -96 -3 -204t-7 -202z" />
<glyph unicode="&#xe0;" horiz-adv-x="1294" d="M70 338q2 34 5 71t11 71q16 70 80 132t163 103t226 52t271 -21q6 8 10 53t7 97t5 100t2 66v60q-38 84 -110 119t-158 35q-42 0 -63 -4t-63 -22q-10 -4 -37 -17t-55 -28t-49 -32t-21 -29q0 -18 5 -33t5 -33q0 -44 -24 -73t-70 -29q-32 0 -51 8t-31 22t-19 35t-15 49 q0 2 -4 8t-4 8q-2 12 6 32t18 41t22 41l18 30q28 40 83 73t120 56t128 36t109 13q68 0 137 -11t128 -38t104 -74t67 -119q2 -6 5 -21t3 -19t-4 -20t-4 -20q-10 -80 -20 -170t-18 -183t-14 -184t-6 -171q0 -18 1 -60t8 -85t22 -77t43 -34q34 0 45 24t19 53t22 53t52 24 q50 0 73 -34t23 -80q0 -94 -50 -152t-152 -58q-32 0 -70 11t-71 30t-56 48t-27 65q-16 0 -31 -9t-30 -20t-30 -21t-31 -14q-74 -20 -157 -39t-159 -17t-140 21t-110 59t-71 102t-21 150zM232 294q0 -40 14 -67t35 -42t46 -21t45 -6q74 0 133 24t127 50q14 6 40 11t52 13 t48 18t28 22q0 6 -1 19t-2 29t-3 29t-2 19v4q0 4 3 26t6 50t5 53t4 35q-32 28 -79 43t-89 15q-32 0 -65 -5t-65 -13q-76 -18 -129 -39t-87 -54t-49 -84t-15 -129zM476 1728q0 36 21 46t45 20q18 6 21 14t25 8q34 -22 63 -59t71 -77q12 -14 28 -26t31 -24t26 -27t11 -35 q0 -40 -28 -64t-64 -24q-12 0 -43 23t-65 54t-63 62t-39 47q-4 6 -22 26t-18 36z" />
<glyph unicode="&#xe1;" horiz-adv-x="1294" d="M70 338q2 34 5 71t11 71q16 70 80 132t163 103t226 52t271 -21q6 8 10 53t7 97t5 100t2 66v60q-38 84 -110 119t-158 35q-42 0 -63 -4t-63 -22q-10 -4 -37 -17t-55 -28t-49 -32t-21 -29q0 -18 5 -33t5 -33q0 -44 -24 -73t-70 -29q-32 0 -51 8t-31 22t-19 35t-15 49 q0 2 -4 8t-4 8q-2 12 6 32t18 41t22 41l18 30q28 40 83 73t120 56t128 36t109 13q68 0 137 -11t128 -38t104 -74t67 -119q2 -6 5 -21t3 -19t-4 -20t-4 -20q-10 -80 -20 -170t-18 -183t-14 -184t-6 -171q0 -18 1 -60t8 -85t22 -77t43 -34q34 0 45 24t19 53t22 53t52 24 q50 0 73 -34t23 -80q0 -94 -50 -152t-152 -58q-32 0 -70 11t-71 30t-56 48t-27 65q-16 0 -31 -9t-30 -20t-30 -21t-31 -14q-74 -20 -157 -39t-159 -17t-140 21t-110 59t-71 102t-21 150zM232 294q0 -40 14 -67t35 -42t46 -21t45 -6q74 0 133 24t127 50q14 6 40 11t52 13 t48 18t28 22q0 6 -1 19t-2 29t-3 29t-2 19v4q0 4 3 26t6 50t5 53t4 35q-32 28 -79 43t-89 15q-32 0 -65 -5t-65 -13q-76 -18 -129 -39t-87 -54t-49 -84t-15 -129zM476 1568q0 20 11 35t26 27t31 24t28 26q42 40 71 77t63 59q22 0 25 -8t21 -14q24 -10 45 -20t21 -46 q0 -16 -18 -36t-22 -26q-10 -16 -39 -47t-63 -62t-65 -54t-43 -23q-36 0 -64 24t-28 64z" />
<glyph unicode="&#xe2;" horiz-adv-x="1294" d="M70 338q2 34 5 71t11 71q16 70 80 132t163 103t226 52t271 -21q6 8 10 53t7 97t5 100t2 66v60q-38 84 -110 119t-158 35q-42 0 -63 -4t-63 -22q-10 -4 -37 -17t-55 -28t-49 -32t-21 -29q0 -18 5 -33t5 -33q0 -44 -24 -73t-70 -29q-32 0 -51 8t-31 22t-19 35t-15 49 q0 2 -4 8t-4 8q-2 12 6 32t18 41t22 41l18 30q28 40 83 73t120 56t128 36t109 13q68 0 137 -11t128 -38t104 -74t67 -119q2 -6 5 -21t3 -19t-4 -20t-4 -20q-10 -80 -20 -170t-18 -183t-14 -184t-6 -171q0 -18 1 -60t8 -85t22 -77t43 -34q34 0 45 24t19 53t22 53t52 24 q50 0 73 -34t23 -80q0 -94 -50 -152t-152 -58q-32 0 -70 11t-71 30t-56 48t-27 65q-16 0 -31 -9t-30 -20t-30 -21t-31 -14q-74 -20 -157 -39t-159 -17t-140 21t-110 59t-71 102t-21 150zM232 294q0 -40 14 -67t35 -42t46 -21t45 -6q74 0 133 24t127 50q14 6 40 11t52 13 t48 18t28 22q0 6 -1 19t-2 29t-3 29t-2 19v4q0 4 3 26t6 50t5 53t4 35q-32 28 -79 43t-89 15q-32 0 -65 -5t-65 -13q-76 -18 -129 -39t-87 -54t-49 -84t-15 -129zM394 1610q0 4 28 31t67 58t78 56t61 25q22 22 56 4t74 -60l136 -122q2 -4 5 -12t3 -12v-4q0 -22 -13 -37 t-31 -25t-39 -14t-39 -4h-16q-4 4 -15 14t-23 22t-22 21t-16 13q-10 6 -15 15t-9 16t-10 13t-18 6q-2 0 -10 -7t-18 -17q-12 -10 -26 -22l-60 -62q-16 -10 -23 -13t-21 -3q-12 0 -26 15t-26 35t-21 40t-11 30z" />
<glyph unicode="&#xe3;" horiz-adv-x="1294" d="M70 338q2 34 5 71t11 71q16 70 80 132t163 103t226 52t271 -21q6 8 10 53t7 97t5 100t2 66v60q-38 84 -110 119t-158 35q-42 0 -63 -4t-63 -22q-10 -4 -37 -17t-55 -28t-49 -32t-21 -29q0 -18 5 -33t5 -33q0 -44 -24 -73t-70 -29q-32 0 -51 8t-31 22t-19 35t-15 49 q0 2 -4 8t-4 8q-2 12 6 32t18 41t22 41l18 30q28 40 83 73t120 56t128 36t109 13q68 0 137 -11t128 -38t104 -74t67 -119q2 -6 5 -21t3 -19t-4 -20t-4 -20q-10 -80 -20 -170t-18 -183t-14 -184t-6 -171q0 -18 1 -60t8 -85t22 -77t43 -34q34 0 45 24t19 53t22 53t52 24 q50 0 73 -34t23 -80q0 -94 -50 -152t-152 -58q-32 0 -70 11t-71 30t-56 48t-27 65q-16 0 -31 -9t-30 -20t-30 -21t-31 -14q-74 -20 -157 -39t-159 -17t-140 21t-110 59t-71 102t-21 150zM232 294q0 -40 14 -67t35 -42t46 -21t45 -6q74 0 133 24t127 50q14 6 40 11t52 13 t48 18t28 22q0 6 -1 19t-2 29t-3 29t-2 19v4q0 4 3 26t6 50t5 53t4 35q-32 28 -79 43t-89 15q-32 0 -65 -5t-65 -13q-76 -18 -129 -39t-87 -54t-49 -84t-15 -129zM236 1688q0 10 10 20l14 14q52 46 106 84t130 38q62 0 96 -32t58 -70t45 -70t59 -32q34 0 66 29t42 61 q6 12 7 29t4 32t11 25t30 10q16 0 40 -6t47 -16t39 -26t16 -34q0 -52 -30 -102t-75 -90t-100 -64t-105 -24q-64 0 -104 32t-65 69t-42 69t-37 32q-28 0 -49 -15t-40 -34t-40 -34t-51 -15q-34 0 -45 23t-23 45q-10 20 -12 23t-2 29z" />
<glyph unicode="&#xe4;" horiz-adv-x="1294" d="M70 338q2 34 5 71t11 71q16 70 80 132t163 103t226 52t271 -21q6 8 10 53t7 97t5 100t2 66v60q-38 84 -110 119t-158 35q-42 0 -63 -4t-63 -22q-10 -4 -37 -17t-55 -28t-49 -32t-21 -29q0 -18 5 -33t5 -33q0 -44 -24 -73t-70 -29q-32 0 -51 8t-31 22t-19 35t-15 49 q0 2 -4 8t-4 8q-2 12 6 32t18 41t22 41l18 30q28 40 83 73t120 56t128 36t109 13q68 0 137 -11t128 -38t104 -74t67 -119q2 -6 5 -21t3 -19t-4 -20t-4 -20q-10 -80 -20 -170t-18 -183t-14 -184t-6 -171q0 -18 1 -60t8 -85t22 -77t43 -34q34 0 45 24t19 53t22 53t52 24 q50 0 73 -34t23 -80q0 -94 -50 -152t-152 -58q-32 0 -70 11t-71 30t-56 48t-27 65q-16 0 -31 -9t-30 -20t-30 -21t-31 -14q-74 -20 -157 -39t-159 -17t-140 21t-110 59t-71 102t-21 150zM232 294q0 -40 14 -67t35 -42t46 -21t45 -6q74 0 133 24t127 50q14 6 40 11t52 13 t48 18t28 22q0 6 -1 19t-2 29t-3 29t-2 19v4q0 4 3 26t6 50t5 53t4 35q-32 28 -79 43t-89 15q-32 0 -65 -5t-65 -13q-76 -18 -129 -39t-87 -54t-49 -84t-15 -129zM252 1612q0 68 40 99t91 31t95 -30t54 -84q4 -30 -1 -61t-21 -55t-41 -40t-59 -16q-66 0 -112 44t-46 112z M618 1612q0 68 40 99t91 31t95 -30t54 -84q4 -30 -1 -61t-21 -55t-41 -40t-59 -16q-66 0 -112 44t-46 112z" />
<glyph unicode="&#xe5;" horiz-adv-x="1294" d="M70 338q2 34 5 71t11 71q16 70 80 132t163 103t226 52t271 -21q6 8 10 53t7 97t5 100t2 66v60q-38 84 -110 119t-158 35q-42 0 -63 -4t-63 -22q-10 -4 -37 -17t-55 -28t-49 -32t-21 -29q0 -18 5 -33t5 -33q0 -44 -24 -73t-70 -29q-32 0 -51 8t-31 22t-19 35t-15 49 q0 2 -4 8t-4 8q-2 12 6 32t18 41t22 41l18 30q28 40 83 73t120 56t128 36t109 13q68 0 137 -11t128 -38t104 -74t67 -119q2 -6 5 -21t3 -19t-4 -20t-4 -20q-10 -80 -20 -170t-18 -183t-14 -184t-6 -171q0 -18 1 -60t8 -85t22 -77t43 -34q34 0 45 24t19 53t22 53t52 24 q50 0 73 -34t23 -80q0 -94 -50 -152t-152 -58q-32 0 -70 11t-71 30t-56 48t-27 65q-16 0 -31 -9t-30 -20t-30 -21t-31 -14q-74 -20 -157 -39t-159 -17t-140 21t-110 59t-71 102t-21 150zM232 294q0 -40 14 -67t35 -42t46 -21t45 -6q74 0 133 24t127 50q14 6 40 11t52 13 t48 18t28 22q0 6 -1 19t-2 29t-3 29t-2 19v4q0 4 3 26t6 50t5 53t4 35q-32 28 -79 43t-89 15q-32 0 -65 -5t-65 -13q-76 -18 -129 -39t-87 -54t-49 -84t-15 -129zM358 1606q-2 62 27 97t73 53t92 24t82 6q58 0 98 -16t61 -43t25 -61t-10 -70q-4 -40 -32 -64t-66 -38t-81 -19 t-75 -5q-24 0 -57 8t-63 24t-52 41t-22 63zM506 1634q-4 -26 21 -36t57 -8t59 14t27 30q0 20 -25 29t-55 8t-56 -11t-28 -26z" />
<glyph unicode="&#xe6;" horiz-adv-x="1788" d="M70 338q2 34 5 71t11 71q16 70 80 132t163 103t226 52t271 -21q6 8 10 53t7 97t5 100t2 66v60q-38 84 -110 119t-158 35q-42 0 -63 -4t-63 -22q-10 -4 -37 -17t-55 -28t-49 -32t-21 -29q0 -18 5 -33t5 -33q0 -44 -24 -73t-70 -29q-32 0 -51 8t-31 22t-19 35t-15 49 q0 2 -4 8t-4 8q-2 12 6 32t18 41t22 41l18 30q28 40 83 73t120 56t128 36t109 13q62 0 124 -9t117 -30t100 -59t73 -94q54 70 122 114t158 44q132 0 219 -54t157 -156q10 -16 12 -35t12 -37q14 -32 25 -58t20 -50t14 -50t5 -58v-37t-4 -41t-14 -37t-30 -23q-176 6 -348 -8 t-348 -14q0 -78 4 -161t23 -160t57 -141t104 -104q30 -16 70 -16q40 -12 91 -5t96 27t76 47t31 55q0 10 -14 17t-31 15t-31 21t-14 35q0 24 12 45t32 37t44 25t46 9q20 0 43 -13t43 -33t33 -43t13 -43q0 -34 -7 -67t-17 -67q-16 -52 -59 -92t-100 -67t-118 -41t-111 -14 q-136 2 -241 54t-161 148q-40 -50 -99 -87t-128 -63t-142 -38t-137 -10q-76 2 -140 21t-110 59t-71 102t-21 150zM232 294q0 -40 14 -67t35 -42t46 -21t45 -6q38 0 107 12t141 33t134 51t86 64q-6 58 -17 125t-1 147q-16 14 -38 20t-47 8t-50 1t-45 -1q-32 0 -65 -5t-65 -13 q-76 -18 -129 -39t-87 -54t-49 -84t-15 -129zM1056 896l16 -8h386q12 2 36 2t48 3t43 11t19 26q0 50 -25 101t-66 93t-91 68t-100 26q-56 0 -100 -23t-76 -61t-52 -85t-30 -97q-2 -8 -2 -16t-2 -18t-4 -22z" />
<glyph unicode="&#xe7;" horiz-adv-x="1032" d="M64 614q0 76 11 165t35 180t63 176t94 151t128 106t165 40q68 0 143 -16t138 -57t103 -110t36 -175q0 -50 -33 -83t-93 -33q-34 0 -62 25t-28 69q0 32 21 46t39 32l-20 68l-68 48q-10 12 -29 19t-41 12t-44 7t-36 2q-78 0 -131 -39t-88 -97t-54 -127t-29 -129 q0 -6 -4 -45t-9 -85t-9 -85t-6 -45v-38q0 -62 15 -140t48 -147t86 -116t129 -47q52 6 85 12t79 32q12 6 28 17t32 23t30 25t20 25q10 20 16 48t10 80q20 28 46 34t49 2t40 -13t19 -13q8 -58 -4 -106t-34 -92q-16 -34 -53 -72t-67 -62q-66 -52 -141 -71t-183 -15h-72 q-48 18 -85 36t-77 52q-46 44 -81 100t-63 118q-28 70 -46 151t-18 157zM344 -270q0 18 8 38t23 36t34 23t39 1q32 -10 45 -26t17 -33t6 -29t12 -12q58 -22 99 -8t58 43t5 61t-58 44q-26 8 -56 5t-57 -3t-49 7t-30 35q-4 26 -5 34t-1 11t1 9t1 30q0 8 -1 21t-1 21 q16 24 35 29t45 5h31t26 -5t18 -18t7 -37v-36l12 -4q12 -4 20 -4q40 -6 68 -14t50 -23t39 -38t35 -61v-60q-8 -72 -45 -111t-86 -58t-102 -22t-93 -1q-34 6 -64 22t-51 37t-31 45t-4 46z" />
<glyph unicode="&#xe8;" d="M37 563q-5 83 1 159q0 96 24 193t56 187q20 12 26 37t14 43q2 2 7 11t9 13q58 80 129 133t171 53q132 0 219 -54t157 -156q10 -16 12 -35t12 -37q14 -32 25 -58t20 -50t14 -50t5 -58v-37t-4 -41t-14 -37t-30 -23q-176 6 -348 -8t-348 -14q0 -78 4 -161t23 -160t57 -141 t104 -104q30 -16 70 -16q40 -12 91 -5t96 27t76 47t31 55q0 10 -14 17t-31 15t-31 21t-14 35q0 24 12 45t32 37t44 25t46 9q20 0 43 -13t43 -33t33 -43t13 -43q0 -34 -7 -67t-17 -67q-16 -52 -59 -92t-100 -67t-118 -41t-111 -14q-96 0 -171 33t-129 88t-90 127t-57 152 t-26 163zM246 894l16 -8h386q12 2 36 2t48 3t43 11t19 26q0 50 -25 101t-66 93t-91 68t-100 26q-56 0 -100 -23t-76 -61t-52 -85t-30 -97q-2 -8 -2 -16t-2 -18t-4 -22zM320 1728q0 36 21 46t45 20q18 6 21 14t25 8q34 -22 63 -59t71 -77q12 -14 28 -26t31 -24t26 -27t11 -35 q0 -40 -28 -64t-64 -24q-12 0 -43 23t-65 54t-63 62t-39 47q-4 6 -22 26t-18 36z" />
<glyph unicode="&#xe9;" d="M37 563q-5 83 1 159q0 96 24 193t56 187q20 12 26 37t14 43q2 2 7 11t9 13q58 80 129 133t171 53q132 0 219 -54t157 -156q10 -16 12 -35t12 -37q14 -32 25 -58t20 -50t14 -50t5 -58v-37t-4 -41t-14 -37t-30 -23q-176 6 -348 -8t-348 -14q0 -78 4 -161t23 -160t57 -141 t104 -104q30 -16 70 -16q40 -12 91 -5t96 27t76 47t31 55q0 10 -14 17t-31 15t-31 21t-14 35q0 24 12 45t32 37t44 25t46 9q20 0 43 -13t43 -33t33 -43t13 -43q0 -34 -7 -67t-17 -67q-16 -52 -59 -92t-100 -67t-118 -41t-111 -14q-96 0 -171 33t-129 88t-90 127t-57 152 t-26 163zM246 894l16 -8h386q12 2 36 2t48 3t43 11t19 26q0 50 -25 101t-66 93t-91 68t-100 26q-56 0 -100 -23t-76 -61t-52 -85t-30 -97q-2 -8 -2 -16t-2 -18t-4 -22zM320 1568q0 20 11 35t26 27t31 24t28 26q42 40 71 77t63 59q22 0 25 -8t21 -14q24 -10 45 -20t21 -46 q0 -16 -18 -36t-22 -26q-10 -16 -39 -47t-63 -62t-65 -54t-43 -23q-36 0 -64 24t-28 64z" />
<glyph unicode="&#xea;" d="M37 563q-5 83 1 159q0 96 24 193t56 187q20 12 26 37t14 43q2 2 7 11t9 13q58 80 129 133t171 53q132 0 219 -54t157 -156q10 -16 12 -35t12 -37q14 -32 25 -58t20 -50t14 -50t5 -58v-37t-4 -41t-14 -37t-30 -23q-176 6 -348 -8t-348 -14q0 -78 4 -161t23 -160t57 -141 t104 -104q30 -16 70 -16q40 -12 91 -5t96 27t76 47t31 55q0 10 -14 17t-31 15t-31 21t-14 35q0 24 12 45t32 37t44 25t46 9q20 0 43 -13t43 -33t33 -43t13 -43q0 -34 -7 -67t-17 -67q-16 -52 -59 -92t-100 -67t-118 -41t-111 -14q-96 0 -171 33t-129 88t-90 127t-57 152 t-26 163zM238 1610q0 4 28 31t67 58t78 56t61 25q22 22 56 4t74 -60l136 -122q2 -4 5 -12t3 -12v-4q0 -22 -13 -37t-31 -25t-39 -14t-39 -4h-16q-4 4 -15 14t-23 22t-22 21t-16 13q-10 6 -15 15t-9 16t-10 13t-18 6q-2 0 -10 -7t-18 -17q-12 -10 -26 -22l-60 -62 q-16 -10 -23 -13t-21 -3q-12 0 -26 15t-26 35t-21 40t-11 30zM246 894l16 -8h386q12 2 36 2t48 3t43 11t19 26q0 50 -25 101t-66 93t-91 68t-100 26q-56 0 -100 -23t-76 -61t-52 -85t-30 -97q-2 -8 -2 -16t-2 -18t-4 -22z" />
<glyph unicode="&#xeb;" d="M37 563q-5 83 1 159q0 96 24 193t56 187q20 12 26 37t14 43q2 2 7 11t9 13q58 80 129 133t171 53q132 0 219 -54t157 -156q10 -16 12 -35t12 -37q14 -32 25 -58t20 -50t14 -50t5 -58v-37t-4 -41t-14 -37t-30 -23q-176 6 -348 -8t-348 -14q0 -78 4 -161t23 -160t57 -141 t104 -104q30 -16 70 -16q40 -12 91 -5t96 27t76 47t31 55q0 10 -14 17t-31 15t-31 21t-14 35q0 24 12 45t32 37t44 25t46 9q20 0 43 -13t43 -33t33 -43t13 -43q0 -34 -7 -67t-17 -67q-16 -52 -59 -92t-100 -67t-118 -41t-111 -14q-96 0 -171 33t-129 88t-90 127t-57 152 t-26 163zM162 1686q0 68 40 99t91 31t95 -30t54 -84q4 -30 -1 -61t-21 -55t-41 -40t-59 -16q-66 0 -112 44t-46 112zM246 894l16 -8h386q12 2 36 2t48 3t43 11t19 26q0 50 -25 101t-66 93t-91 68t-100 26q-56 0 -100 -23t-76 -61t-52 -85t-30 -97q-2 -8 -2 -16t-2 -18 t-4 -22zM528 1686q0 68 40 99t91 31t95 -30t54 -84q4 -30 -1 -61t-21 -55t-41 -40t-59 -16q-66 0 -112 44t-46 112z" />
<glyph unicode="&#xec;" horiz-adv-x="514" d="M26 1224q0 28 21 65t51 49q70 8 111 6t64 -10t33 -19t18 -21q12 -8 18 -27t9 -41t3 -42v-32q-4 -162 -2 -338t-2 -340q0 -12 -1 -52t-2 -86t-2 -86t-1 -52q8 -8 19 -9t21 -1q14 4 16 6l3 3t9 2t34 3q20 -4 31 -21t16 -38t6 -39t1 -22q0 -30 -18 -47t-42 -35q-58 8 -90 6 t-59 -6t-60 -8t-91 0q-6 2 -28 3t-28 1q-18 6 -29 18t-17 29t-8 35t-2 34q2 62 22 71t47 2t53 -10t38 33v18v30t1 31t1 19q0 48 1 107t-5 111l-6 532l-6 88l-17 -17t-10 -6t-13 0t-26 3q-42 2 -63 25t-19 75zM30 1720q0 36 21 46t45 20q18 6 21 14t25 8q34 -22 63 -59 t71 -77q12 -14 28 -26t31 -24t26 -27t11 -35q0 -40 -28 -64t-64 -24q-12 0 -43 23t-65 54t-63 62t-39 47q-4 6 -22 26t-18 36z" />
<glyph unicode="&#xed;" horiz-adv-x="514" d="M26 1224q0 28 21 65t51 49q70 8 111 6t64 -10t33 -19t18 -21q12 -8 18 -27t9 -41t3 -42v-32q-4 -162 -2 -338t-2 -340q0 -12 -1 -52t-2 -86t-2 -86t-1 -52q8 -8 19 -9t21 -1q14 4 16 6l3 3t9 2t34 3q20 -4 31 -21t16 -38t6 -39t1 -22q0 -30 -18 -47t-42 -35q-58 8 -90 6 t-59 -6t-60 -8t-91 0q-6 2 -28 3t-28 1q-18 6 -29 18t-17 29t-8 35t-2 34q2 62 22 71t47 2t53 -10t38 33v18v30t1 31t1 19q0 48 1 107t-5 111l-6 532l-6 88l-17 -17t-10 -6t-13 0t-26 3q-42 2 -63 25t-19 75zM86 1568q0 20 11 35t26 27t31 24t28 26q42 40 71 77t63 59 q22 0 25 -8t21 -14q24 -10 45 -20t21 -46q0 -16 -18 -36t-22 -26q-10 -16 -39 -47t-63 -62t-65 -54t-43 -23q-36 0 -64 24t-28 64z" />
<glyph unicode="&#xee;" horiz-adv-x="514" d="M6 1610q0 4 28 31t67 58t78 56t61 25q22 22 56 4t74 -60l136 -122q2 -4 5 -12t3 -12v-4q0 -22 -13 -37t-31 -25t-39 -14t-39 -4h-16q-4 4 -15 14t-23 22t-22 21t-16 13q-10 6 -15 15t-9 16t-10 13t-18 6q-2 0 -10 -7t-18 -17q-12 -10 -26 -22l-60 -62q-16 -10 -23 -13 t-21 -3q-12 0 -26 15t-26 35t-21 40t-11 30zM26 1224q0 28 21 65t51 49q70 8 111 6t64 -10t33 -19t18 -21q12 -8 18 -27t9 -41t3 -42v-32q-4 -162 -2 -338t-2 -340q0 -12 -1 -52t-2 -86t-2 -86t-1 -52q8 -8 19 -9t21 -1q14 4 16 6l3 3t9 2t34 3q20 -4 31 -21t16 -38t6 -39 t1 -22q0 -30 -18 -47t-42 -35q-58 8 -90 6t-59 -6t-60 -8t-91 0q-6 2 -28 3t-28 1q-18 6 -29 18t-17 29t-8 35t-2 34q2 62 22 71t47 2t53 -10t38 33v18v30t1 31t1 19q0 48 1 107t-5 111l-6 532l-6 88l-17 -17t-10 -6t-13 0t-26 3q-42 2 -63 25t-19 75z" />
<glyph unicode="&#xef;" horiz-adv-x="514" d="M-138 1670q0 68 40 99t91 31t95 -30t54 -84q4 -30 -1 -61t-21 -55t-41 -40t-59 -16q-66 0 -112 44t-46 112zM26 1224q0 28 21 65t51 49q70 8 111 6t64 -10t33 -19t18 -21q12 -8 18 -27t9 -41t3 -42v-32q-4 -162 -2 -338t-2 -340q0 -12 -1 -52t-2 -86t-2 -86t-1 -52 q8 -8 19 -9t21 -1q14 4 16 6l3 3t9 2t34 3q20 -4 31 -21t16 -38t6 -39t1 -22q0 -30 -18 -47t-42 -35q-58 8 -90 6t-59 -6t-60 -8t-91 0q-6 2 -28 3t-28 1q-18 6 -29 18t-17 29t-8 35t-2 34q2 62 22 71t47 2t53 -10t38 33v18v30t1 31t1 19q0 48 1 107t-5 111l-6 532l-6 88 l-17 -17t-10 -6t-13 0t-26 3q-42 2 -63 25t-19 75zM228 1670q0 68 40 99t91 31t95 -30t54 -84q4 -30 -1 -61t-21 -55t-41 -40t-59 -16q-66 0 -112 44t-46 112z" />
<glyph unicode="&#xf1;" horiz-adv-x="1238" d="M30 1198q4 74 48 115t118 49q4 0 24 2t24 4q22 0 36 1t42 -7q6 -2 27 -8t27 -4q2 -2 3 -5t3 -3q4 -6 14 -28t14 -30h4q8 0 22 10t30 23t30 27t24 20q42 30 102 51t124 26t127 -13t111 -66q2 -4 12 -20t21 -35t21 -35t10 -20l4 -12t10 -26t11 -26t5 -14q8 -58 15 -95 t13 -65t8 -54t0 -62q2 -28 6 -60t4 -34l14 -244l6 -378q0 -14 6 -16t16 -2t21 -1t17 -13q14 -22 17 -48t-1 -54q0 -10 -2 -20t-18 -14q-62 -16 -130 -13t-132 3q-12 -2 -25 -1t-23 8t-16 24t-4 49q2 38 8 55t17 23t27 8t38 8l22 18l2 416q-2 6 -3 25t-1 23q-2 20 -3 59 t-2 81t-2 76t-1 44q0 24 -3 62t-13 83t-26 89t-43 79t-64 56t-89 19q-36 0 -80 -25t-86 -61t-78 -75t-54 -69q-12 -18 -17 -57t-6 -82t-1 -83t-2 -60q-4 -66 -8 -144t-7 -159t-3 -160t4 -143l18 -6t14 -2t21 1t37 3q4 -4 7 -30t1 -55t-9 -53t-23 -24l-240 -12q-22 4 -37 6 t-25 12t-14 34t0 74q2 32 13 39t25 5l28 -4t20 12q6 80 4 170t-4 182t-4 181t4 171l14 56v13t-2 24t-3 23t-1 14q0 14 -1 33t-2 39t-3 39t-2 33q-10 10 -24 10q-2 -2 -4 -2h-4q-4 -48 -39 -70t-81 -4q-18 0 -32 20t-18 76zM276 1736q0 10 10 20l14 14q52 46 106 84t130 38 q62 0 96 -32t58 -70t45 -70t59 -32q34 0 66 29t42 61q6 12 7 29t4 32t11 25t30 10q16 0 40 -6t47 -16t39 -26t16 -34q0 -52 -30 -102t-75 -90t-100 -64t-105 -24q-64 0 -104 32t-65 69t-42 69t-37 32q-28 0 -49 -15t-40 -34t-40 -34t-51 -15q-34 0 -45 23t-23 45 q-10 20 -12 23t-2 29z" />
<glyph unicode="&#xf2;" horiz-adv-x="976" d="M30 578q0 6 1 31t3 54t3 54t1 31q0 10 2 29t4 37t4 33t2 17q2 12 8 42t14 64t14 64t8 42q16 44 41 77t49 73q16 22 27 46t29 46q20 20 60 41t86 39t90 28t68 8q58 -4 119 -23t101 -57q48 -46 67 -89t41 -99q20 -64 35 -140t23 -155t9 -156t-5 -145q-6 -72 -24 -145 t-51 -139t-81 -122t-116 -96q-44 -26 -88 -43t-96 -13q-80 6 -148 37t-122 82t-92 118t-58 141q-12 44 -12 94t-16 94zM204 554q8 -112 42 -197t95 -135t151 -46q64 -6 114 27t85 86t56 116t27 119l12 308q0 6 -2 24t-5 40t-6 43t-7 31q-2 10 -10 36t-18 56t-19 56t-13 36 q-32 40 -66 75t-92 39q-72 4 -133 -41t-105 -117t-70 -159t-28 -165q-16 -120 -8 -232zM316 1728q0 36 21 46t45 20q18 6 21 14t25 8q34 -22 63 -59t71 -77q12 -14 28 -26t31 -24t26 -27t11 -35q0 -40 -28 -64t-64 -24q-12 0 -43 23t-65 54t-63 62t-39 47q-4 6 -22 26 t-18 36z" />
<glyph unicode="&#xf3;" horiz-adv-x="976" d="M30 578q0 6 1 31t3 54t3 54t1 31q0 10 2 29t4 37t4 33t2 17q2 12 8 42t14 64t14 64t8 42q16 44 41 77t49 73q16 22 27 46t29 46q20 20 60 41t86 39t90 28t68 8q58 -4 119 -23t101 -57q48 -46 67 -89t41 -99q20 -64 35 -140t23 -155t9 -156t-5 -145q-6 -72 -24 -145 t-51 -139t-81 -122t-116 -96q-44 -26 -88 -43t-96 -13q-80 6 -148 37t-122 82t-92 118t-58 141q-12 44 -12 94t-16 94zM204 554q8 -112 42 -197t95 -135t151 -46q64 -6 114 27t85 86t56 116t27 119l12 308q0 6 -2 24t-5 40t-6 43t-7 31q-2 10 -10 36t-18 56t-19 56t-13 36 q-32 40 -66 75t-92 39q-72 4 -133 -41t-105 -117t-70 -159t-28 -165q-16 -120 -8 -232zM316 1568q0 20 11 35t26 27t31 24t28 26q42 40 71 77t63 59q22 0 25 -8t21 -14q24 -10 45 -20t21 -46q0 -16 -18 -36t-22 -26q-10 -16 -39 -47t-63 -62t-65 -54t-43 -23q-36 0 -64 24 t-28 64z" />
<glyph unicode="&#xf4;" horiz-adv-x="976" d="M30 578q0 6 1 31t3 54t3 54t1 31q0 10 2 29t4 37t4 33t2 17q2 12 8 42t14 64t14 64t8 42q16 44 41 77t49 73q16 22 27 46t29 46q20 20 60 41t86 39t90 28t68 8q58 -4 119 -23t101 -57q48 -46 67 -89t41 -99q20 -64 35 -140t23 -155t9 -156t-5 -145q-6 -72 -24 -145 t-51 -139t-81 -122t-116 -96q-44 -26 -88 -43t-96 -13q-80 6 -148 37t-122 82t-92 118t-58 141q-12 44 -12 94t-16 94zM204 554q8 -112 42 -197t95 -135t151 -46q64 -6 114 27t85 86t56 116t27 119l12 308q0 6 -2 24t-5 40t-6 43t-7 31q-2 10 -10 36t-18 56t-19 56t-13 36 q-32 40 -66 75t-92 39q-72 4 -133 -41t-105 -117t-70 -159t-28 -165q-16 -120 -8 -232zM234 1610q0 4 28 31t67 58t78 56t61 25q22 22 56 4t74 -60l136 -122q2 -4 5 -12t3 -12v-4q0 -22 -13 -37t-31 -25t-39 -14t-39 -4h-16q-4 4 -15 14t-23 22t-22 21t-16 13q-10 6 -15 15 t-9 16t-10 13t-18 6q-2 0 -10 -7t-18 -17q-12 -10 -26 -22l-60 -62q-16 -10 -23 -13t-21 -3q-12 0 -26 15t-26 35t-21 40t-11 30z" />
<glyph unicode="&#xf5;" horiz-adv-x="976" d="M30 578q0 6 1 31t3 54t3 54t1 31q0 10 2 29t4 37t4 33t2 17q2 12 8 42t14 64t14 64t8 42q16 44 41 77t49 73q16 22 27 46t29 46q20 20 60 41t86 39t90 28t68 8q58 -4 119 -23t101 -57q48 -46 67 -89t41 -99q20 -64 35 -140t23 -155t9 -156t-5 -145q-6 -72 -24 -145 t-51 -139t-81 -122t-116 -96q-44 -26 -88 -43t-96 -13q-80 6 -148 37t-122 82t-92 118t-58 141q-12 44 -12 94t-16 94zM78 1688q0 10 10 20l14 14q52 46 106 84t130 38q62 0 96 -32t58 -70t45 -70t59 -32q34 0 66 29t42 61q6 12 7 29t4 32t11 25t30 10q16 0 40 -6t47 -16 t39 -26t16 -34q0 -52 -30 -102t-75 -90t-100 -64t-105 -24q-64 0 -104 32t-65 69t-42 69t-37 32q-28 0 -49 -15t-40 -34t-40 -34t-51 -15q-34 0 -45 23t-23 45q-10 20 -12 23t-2 29zM204 554q8 -112 42 -197t95 -135t151 -46q64 -6 114 27t85 86t56 116t27 119l12 308 q0 6 -2 24t-5 40t-6 43t-7 31q-2 10 -10 36t-18 56t-19 56t-13 36q-32 40 -66 75t-92 39q-72 4 -133 -41t-105 -117t-70 -159t-28 -165q-16 -120 -8 -232z" />
<glyph unicode="&#xf6;" horiz-adv-x="976" d="M30 578q0 6 1 31t3 54t3 54t1 31q0 10 2 29t4 37t4 33t2 17q2 12 8 42t14 64t14 64t8 42q16 44 41 77t49 73q16 22 27 46t29 46q20 20 60 41t86 39t90 28t68 8q58 -4 119 -23t101 -57q48 -46 67 -89t41 -99q20 -64 35 -140t23 -155t9 -156t-5 -145q-6 -72 -24 -145 t-51 -139t-81 -122t-116 -96q-44 -26 -88 -43t-96 -13q-80 6 -148 37t-122 82t-92 118t-58 141q-12 44 -12 94t-16 94zM158 1686q0 68 40 99t91 31t95 -30t54 -84q4 -30 -1 -61t-21 -55t-41 -40t-59 -16q-66 0 -112 44t-46 112zM204 554q8 -112 42 -197t95 -135t151 -46 q64 -6 114 27t85 86t56 116t27 119l12 308q0 6 -2 24t-5 40t-6 43t-7 31q-2 10 -10 36t-18 56t-19 56t-13 36q-32 40 -66 75t-92 39q-72 4 -133 -41t-105 -117t-70 -159t-28 -165q-16 -120 -8 -232zM524 1686q0 68 40 99t91 31t95 -30t54 -84q4 -30 -1 -61t-21 -55t-41 -40 t-59 -16q-66 0 -112 44t-46 112z" />
<glyph unicode="&#xf8;" horiz-adv-x="976" d="M30 578q0 6 1 31t3 54t3 54t1 31q0 10 2 29t4 37t4 33t2 17q2 12 8 42t14 64t14 64t8 42q16 44 41 77t49 73q16 22 27 46t29 46q20 20 60 41t86 39t90 28t68 8q40 -4 83 -13t81 -29l34 64q10 18 38 22t57 -1t49 -18t14 -27l-40 -98q-4 -2 -14 -24t-18 -38q14 -24 23 -50 t21 -56q20 -64 35 -140t23 -155t9 -156t-5 -145q-6 -72 -24 -145t-51 -139t-81 -122t-116 -96q-44 -26 -88 -43t-96 -13q-58 4 -110 22t-98 46l-30 -66q-4 -20 -24 -45t-44 -27q-26 -4 -59 12t-51 22q-14 8 -13 23t5 25q12 16 23 37t23 43q14 26 26 50l22 44q-62 82 -90 192 q-12 44 -12 94t-16 94zM203 568q7 -104 35 -188l22 46l382 796v4q-18 16 -41 27t-53 15q-72 4 -133 -41t-105 -117t-70 -159t-28 -165q-16 -114 -9 -218zM338 224q64 -50 154 -48q64 -6 114 27t85 86t56 116t27 119l12 308q0 6 -2 24t-5 40t-6 43t-7 31q-2 10 -12 40t-20 62 z" />
<glyph unicode="&#xf9;" horiz-adv-x="1194" d="M16 1324q0 6 1 25t1 25q8 18 18 30t26 19t42 10t66 3q32 0 57 3t46 2t41 -12t44 -37q2 -10 5 -37t3 -35q0 -4 -4 -25t-4 -25q-6 -46 -8 -116t-2 -145t1 -145t1 -118q0 -126 6 -238t42 -232q38 -126 196 -126q46 0 84 35t69 92t55 126t41 138t26 128t13 95q2 14 4 64 t5 107t6 108t3 65q-2 4 -5 16t-3 16t4 20t4 20v28v15t-1 23t-4 21t-11 9l-50 20q-16 0 -20 13t-4 23v12q0 10 2 27t4 27q12 22 44 31t70 12t75 2t61 -1h56q24 -14 30 -23t6 -33q0 -46 -12 -63t-27 -24l-30 -14t-21 -33q-6 -24 -8 -65t-2 -86t1 -87t-1 -66q-6 -144 -16 -285 t-10 -285v-41t1 -54t1 -48v-27l8 -24h16q14 0 17 1l3 1l2 1t18 1q18 0 29 -11t17 -27t8 -34t2 -30q-6 -38 -22 -55t-38 -23t-49 -6t-53 -2q-38 0 -60 15t-33 39t-16 54t-9 60q-30 -30 -64 -59t-72 -52t-78 -37t-82 -14h-40q-122 12 -194 73t-111 153t-53 207t-20 235 q0 28 -1 73t9 79l-2 446q-22 -40 -48 -45t-49 10t-39 40t-14 47zM426 1728q0 36 21 46t45 20q18 6 21 14t25 8q34 -22 63 -59t71 -77q12 -14 28 -26t31 -24t26 -27t11 -35q0 -40 -28 -64t-64 -24q-12 0 -43 23t-65 54t-63 62t-39 47q-4 6 -22 26t-18 36z" />
<glyph unicode="&#xfa;" horiz-adv-x="1194" d="M16 1324q0 6 1 25t1 25q8 18 18 30t26 19t42 10t66 3q32 0 57 3t46 2t41 -12t44 -37q2 -10 5 -37t3 -35q0 -4 -4 -25t-4 -25q-6 -46 -8 -116t-2 -145t1 -145t1 -118q0 -126 6 -238t42 -232q38 -126 196 -126q46 0 84 35t69 92t55 126t41 138t26 128t13 95q2 14 4 64 t5 107t6 108t3 65q-2 4 -5 16t-3 16t4 20t4 20v28v15t-1 23t-4 21t-11 9l-50 20q-16 0 -20 13t-4 23v12q0 10 2 27t4 27q12 22 44 31t70 12t75 2t61 -1h56q24 -14 30 -23t6 -33q0 -46 -12 -63t-27 -24l-30 -14t-21 -33q-6 -24 -8 -65t-2 -86t1 -87t-1 -66q-6 -144 -16 -285 t-10 -285v-41t1 -54t1 -48v-27l8 -24h16q14 0 17 1l3 1l2 1t18 1q18 0 29 -11t17 -27t8 -34t2 -30q-6 -38 -22 -55t-38 -23t-49 -6t-53 -2q-38 0 -60 15t-33 39t-16 54t-9 60q-30 -30 -64 -59t-72 -52t-78 -37t-82 -14h-40q-122 12 -194 73t-111 153t-53 207t-20 235 q0 28 -1 73t9 79l-2 446q-22 -40 -48 -45t-49 10t-39 40t-14 47zM426 1568q0 20 11 35t26 27t31 24t28 26q42 40 71 77t63 59q22 0 25 -8t21 -14q24 -10 45 -20t21 -46q0 -16 -18 -36t-22 -26q-10 -16 -39 -47t-63 -62t-65 -54t-43 -23q-36 0 -64 24t-28 64z" />
<glyph unicode="&#xfb;" horiz-adv-x="1194" d="M16 1324q0 6 1 25t1 25q8 18 18 30t26 19t42 10t66 3q32 0 57 3t46 2t41 -12t44 -37q2 -10 5 -37t3 -35q0 -4 -4 -25t-4 -25q-6 -46 -8 -116t-2 -145t1 -145t1 -118q0 -126 6 -238t42 -232q38 -126 196 -126q46 0 84 35t69 92t55 126t41 138t26 128t13 95q2 14 4 64 t5 107t6 108t3 65q-2 4 -5 16t-3 16t4 20t4 20v28v15t-1 23t-4 21t-11 9l-50 20q-16 0 -20 13t-4 23v12q0 10 2 27t4 27q12 22 44 31t70 12t75 2t61 -1h56q24 -14 30 -23t6 -33q0 -46 -12 -63t-27 -24l-30 -14t-21 -33q-6 -24 -8 -65t-2 -86t1 -87t-1 -66q-6 -144 -16 -285 t-10 -285v-41t1 -54t1 -48v-27l8 -24h16q14 0 17 1l3 1l2 1t18 1q18 0 29 -11t17 -27t8 -34t2 -30q-6 -38 -22 -55t-38 -23t-49 -6t-53 -2q-38 0 -60 15t-33 39t-16 54t-9 60q-30 -30 -64 -59t-72 -52t-78 -37t-82 -14h-40q-122 12 -194 73t-111 153t-53 207t-20 235 q0 28 -1 73t9 79l-2 446q-22 -40 -48 -45t-49 10t-39 40t-14 47zM344 1610q0 4 28 31t67 58t78 56t61 25q22 22 56 4t74 -60l136 -122q2 -4 5 -12t3 -12v-4q0 -22 -13 -37t-31 -25t-39 -14t-39 -4h-16q-4 4 -15 14t-23 22t-22 21t-16 13q-10 6 -15 15t-9 16t-10 13t-18 6 q-2 0 -10 -7t-18 -17q-12 -10 -26 -22l-60 -62q-16 -10 -23 -13t-21 -3q-12 0 -26 15t-26 35t-21 40t-11 30z" />
<glyph unicode="&#xfc;" horiz-adv-x="1194" d="M16 1324q0 6 1 25t1 25q8 18 18 30t26 19t42 10t66 3q32 0 57 3t46 2t41 -12t44 -37q2 -10 5 -37t3 -35q0 -4 -4 -25t-4 -25q-6 -46 -8 -116t-2 -145t1 -145t1 -118q0 -126 6 -238t42 -232q38 -126 196 -126q46 0 84 35t69 92t55 126t41 138t26 128t13 95q2 14 4 64 t5 107t6 108t3 65q-2 4 -5 16t-3 16t4 20t4 20v28v15t-1 23t-4 21t-11 9l-50 20q-16 0 -20 13t-4 23v12q0 10 2 27t4 27q12 22 44 31t70 12t75 2t61 -1h56q24 -14 30 -23t6 -33q0 -46 -12 -63t-27 -24l-30 -14t-21 -33q-6 -24 -8 -65t-2 -86t1 -87t-1 -66q-6 -144 -16 -285 t-10 -285v-41t1 -54t1 -48v-27l8 -24h16q14 0 17 1l3 1l2 1t18 1q18 0 29 -11t17 -27t8 -34t2 -30q-6 -38 -22 -55t-38 -23t-49 -6t-53 -2q-38 0 -60 15t-33 39t-16 54t-9 60q-30 -30 -64 -59t-72 -52t-78 -37t-82 -14h-40q-122 12 -194 73t-111 153t-53 207t-20 235 q0 28 -1 73t9 79l-2 446q-22 -40 -48 -45t-49 10t-39 40t-14 47zM268 1686q0 68 40 99t91 31t95 -30t54 -84q4 -30 -1 -61t-21 -55t-41 -40t-59 -16q-66 0 -112 44t-46 112zM634 1686q0 68 40 99t91 31t95 -30t54 -84q4 -30 -1 -61t-21 -55t-41 -40t-59 -16q-66 0 -112 44 t-46 112z" />
<glyph unicode="&#xfd;" horiz-adv-x="1290" d="M26 1364q0 12 7 26t18 26t23 20t24 8l290 -8l4 -166q0 -14 -12 -21t-28 -7q-14 0 -19 9t-19 9q-4 0 -9 -1t-7 -1q6 -34 32 -89t60 -113t68 -112t52 -86q14 -22 48 -80t72 -123t72 -123t48 -82l24 -24q8 2 20 28t22 57t18 59t12 38q6 26 16 60t21 71t22 72t23 65 q14 36 27 83t23 97t16 98t6 88q-14 4 -23 3t-19 -1t-21 4t-27 20q-4 34 -7 71t-3 71v12q0 4 2 6l16 10h25h58h70t61 2h48h48q34 -10 34 -42l8 -130l-26 -8q-16 2 -26 4q-4 0 -9 1t-9 1q-6 0 -8 2l-56 -216q-42 -170 -94 -335t-106 -333q-34 -96 -63 -196t-81 -188 q-40 -66 -87 -138t-104 -132t-126 -99t-151 -39q-36 0 -70 16t-59 42t-40 60t-15 70v12q2 12 7 46t7 46q26 48 67 69t78 15t65 -41t32 -101q0 -22 -8 -38t-8 -38v-4q54 18 103 65t91 109t78 135t64 143l-48 78l-42 82q4 6 -6 16q-4 4 -10 8q-26 46 -49 87t-47 87 q-16 30 -29 52t-31 50q-6 10 -35 58t-67 114t-82 140t-81 136t-63 103t-28 41h-6h-16h-4q-4 0 -11 3t-15 8t-13 12t-3 17q2 22 1 28t-2 9t-2 9t-1 28zM474 1568q0 20 11 35t26 27t31 24t28 26q42 40 71 77t63 59q22 0 25 -8t21 -14q24 -10 45 -20t21 -46q0 -16 -18 -36 t-22 -26q-10 -16 -39 -47t-63 -62t-65 -54t-43 -23q-36 0 -64 24t-28 64z" />
<glyph unicode="&#xfe;" horiz-adv-x="1080" d="M-4 1595q4 41 32 74t88 37q10 0 37 -1t37 -1q44 -16 57 -50t19 -88v-44t1 -83t3 -84t8 -45q20 38 59 70t87 56t99 38t95 14q34 0 79 -8t90 -26t84 -46t61 -68q32 -54 53 -130t31 -157t14 -160t4 -139q0 -18 -1 -50t-1 -64t-1 -57t-1 -27q2 -76 -30 -153t-89 -140 t-136 -105t-169 -50h-8q-42 -6 -82 3t-76 26t-68 41t-58 48q-4 0 -6 -2t-4 -2l-8 8l4 -96h24h40q34 0 44 -20t10 -46q0 -2 -2 -6t-4 -12q2 -24 3 -39t-7 -23t-26 -12t-52 -6q-4 0 -13 2t-20 5t-21 5t-12 2t-13 -2t-26 -5t-31 -5t-28 -2h-70q-30 0 -49 11t-19 49v12 q4 22 12 51t36 35q24 6 40 6q10 2 12 0t4 -3t4 0t12 7q6 62 10 105t5 81t-1 79t-8 99q-4 32 -5 106t-2 157t-1 158v107v27v46v46v27t-1 31t-3 60t-3 75t-2 74t-2 59t-1 29q2 -4 -3 -11t-14 -13t-23 -10t-28 0q-36 10 -55 47t-15 78zM334 668q4 -116 17 -191t40 -121t69 -69 t106 -31h30q62 0 111 25t83 61t52 74t16 64l24 128v68q0 58 -5 146t-19 178t-39 170t-65 126q-6 8 -20 16t-29 15t-30 12t-23 5q-100 0 -178 -53t-120 -129q-6 -12 -10 -50t-6 -89t-3 -108t-1 -108v-89v-50z" />
<glyph unicode="&#xff;" horiz-adv-x="1290" d="M26 1364q0 12 7 26t18 26t23 20t24 8l290 -8l4 -166q0 -14 -12 -21t-28 -7q-14 0 -19 9t-19 9q-4 0 -9 -1t-7 -1q6 -34 32 -89t60 -113t68 -112t52 -86q14 -22 48 -80t72 -123t72 -123t48 -82l24 -24q8 2 20 28t22 57t18 59t12 38q6 26 16 60t21 71t22 72t23 65 q14 36 27 83t23 97t16 98t6 88q-14 4 -23 3t-19 -1t-21 4t-27 20q-4 34 -7 71t-3 71v12q0 4 2 6l16 10h25h58h70t61 2h48h48q34 -10 34 -42l8 -130l-26 -8q-16 2 -26 4q-4 0 -9 1t-9 1q-6 0 -8 2l-56 -216q-42 -170 -94 -335t-106 -333q-34 -96 -63 -196t-81 -188 q-40 -66 -87 -138t-104 -132t-126 -99t-151 -39q-36 0 -70 16t-59 42t-40 60t-15 70v12q2 12 7 46t7 46q26 48 67 69t78 15t65 -41t32 -101q0 -22 -8 -38t-8 -38v-4q54 18 103 65t91 109t78 135t64 143l-48 78l-42 82q4 6 -6 16q-4 4 -10 8q-26 46 -49 87t-47 87 q-16 30 -29 52t-31 50q-6 10 -35 58t-67 114t-82 140t-81 136t-63 103t-28 41h-6h-16h-4q-4 0 -11 3t-15 8t-13 12t-3 17q2 22 1 28t-2 9t-2 9t-1 28zM316 1686q0 68 40 99t91 31t95 -30t54 -84q4 -30 -1 -61t-21 -55t-41 -40t-59 -16q-66 0 -112 44t-46 112zM682 1686 q0 68 40 99t91 31t95 -30t54 -84q4 -30 -1 -61t-21 -55t-41 -40t-59 -16q-66 0 -112 44t-46 112z" />
<glyph unicode="&#x152;" horiz-adv-x="1652" d="M44 722q-6 162 15 313t77 307q18 72 55 129t82 100t93 73t88 46q46 18 110 21t132 -9v-20q24 34 75 41t141 -5q158 0 313 -6t311 -2q4 -2 23 -5t19 -7q2 -6 4 -20t4 -29t2 -28v-15l-10 -146q0 -22 -6 -32t-16 -14t-23 -3t-27 1q-8 0 -24 1t-20 3l-36 16v126l-12 8 q-38 2 -84 1t-93 -4t-93 -5t-84 -2h-42q-18 -2 -45 -2t-53 -2q-30 -2 -62 -4l-8 -8q0 -2 -4 -14l-9 -27t-9 -30t-4 -23q0 -98 16 -202t20 -200q0 -22 -2 -58t10 -62q4 0 18 -1t18 -1q8 0 20 -1t23 1t19 6t8 16q0 16 1 16t1 14v27t16 15l80 6q22 0 33 -10t15 -25t4 -30v-23 q0 -30 1 -46t3 -31t3 -37t-1 -64q-4 -14 -4 -24t-1 -17t-6 -10t-17 -3q-14 6 -33 2t-36 -6t-30 1t-13 23l-10 34h-21t-38 -2t-37 -4t-16 -4l-18 -584q70 -14 138 -17t136 -2t138 4t142 3q14 10 17 17t2 13t-4 12t1 12q0 16 -3 23t-3 25q0 26 10 38t25 16t34 4h35q20 0 35 -3 t29 -21q4 -34 8 -59t4 -59q0 -12 1 -33t-1 -43t-6 -39t-16 -23l-86 -14h-29t-65 -2q-144 -4 -283 -1t-283 -3l-156 -14v2q-34 -6 -68 -6q-166 -2 -272 60t-168 164t-88 235t-30 271zM234 900q4 -90 8 -176q2 -56 9 -122t22 -132t39 -128t62 -110t90 -77t122 -27q22 0 42 2 t40 8v76t2 40v48q0 30 2 76t4 95t3 94t-1 75q-10 162 -8 333t6 331q-4 6 -6 28t-2 28v35v53t1 52t1 34q-2 10 -2 19v19q-28 6 -60 12q-98 -2 -160 -54t-101 -128t-61 -165t-38 -165q-18 -84 -14 -174z" />
<glyph unicode="&#x153;" horiz-adv-x="1576" d="M30 578q0 6 1 31t3 54t3 54t1 31q0 10 2 29t4 37t4 33t2 17q2 12 8 42t14 64t14 64t8 42q16 44 41 77t49 73q16 22 27 46t29 46q20 20 60 41t86 39t90 28t68 8q58 -4 119 -23t101 -57q42 -42 62 -82q48 50 106 80t132 30q132 0 219 -54t157 -156q10 -16 12 -35t12 -37 q14 -32 25 -58t20 -50t14 -50t5 -58v-37t-4 -41t-14 -37t-30 -23q-176 6 -348 -8t-348 -14q0 -78 4 -161t23 -160t57 -141t104 -104q30 -16 70 -16q40 -12 91 -5t96 27t76 47t31 55q0 10 -14 17t-31 15t-31 21t-14 35q0 24 12 45t32 37t44 25t46 9q20 0 43 -13t43 -33 t33 -43t13 -43q0 -34 -7 -67t-17 -67q-16 -52 -59 -92t-100 -67t-118 -41t-111 -14q-114 2 -196 45t-138 115q-48 -52 -104 -82q-44 -26 -88 -43t-96 -13q-80 6 -148 37t-122 82t-92 118t-58 141q-12 44 -12 94t-16 94zM204 554q8 -112 42 -197t95 -135t151 -46 q62 -6 110 26t84 84q-40 100 -54 212t-4 214q-10 114 16 225t62 217q-32 40 -66 75t-92 39q-72 4 -133 -41t-105 -117t-70 -159t-28 -165q-16 -120 -8 -232zM836 884l16 -8h386q12 2 36 2t48 3t43 11t19 26q0 50 -25 101t-66 93t-91 68t-100 26q-56 0 -100 -23t-76 -61 t-52 -85t-30 -97q-2 -8 -2 -16t-2 -18t-4 -22z" />
<glyph unicode="&#x178;" horiz-adv-x="1328" d="M20 1656q0 24 18 36t43 17t51 5t42 -2q48 -2 88 -1t92 -7q40 -6 56 -45t16 -75q0 -6 -3 -19t-9 -27t-13 -24t-15 -10l-54 8q12 -30 29 -71t33 -80t30 -71t22 -48q6 -12 31 -64t53 -110t53 -109t31 -63q4 -10 17 -32t27 -47t26 -48t18 -31q4 2 30 56t62 135t76 176t74 178 t57 142t23 69v12q-4 0 -20 4t-20 6l-16 8v152q0 14 15 25t25 15q54 -8 105 -4t103 0q8 0 30 -1t28 -3q14 -8 20 -28t8 -44t1 -47t-1 -35q0 -22 -10 -32t-24 -15t-31 -7t-29 -10q-56 -110 -106 -242t-102 -246q-16 -38 -45 -101t-59 -132t-58 -133t-44 -102l4 -250v-41 t10 -43q20 6 59 5t59 -3q4 0 14 -2t14 -2q8 -4 12 -22t7 -39t4 -39t1 -20v-16t-2 -24t-7 -22t-15 -10l-64 4l-372 -16h-8q-36 2 -42 30t-6 56q0 44 13 63t33 26t42 5t42 -1t33 9t13 36l-8 294q0 12 -13 38t-29 53t-32 52t-22 35q-44 84 -85 166l-83 166q-10 20 -29 60 t-42 90t-49 104t-52 101t-48 80t-38 41q-4 4 -23 9t-25 3q-16 28 -28 70t-12 76zM334 1968q0 68 40 99t91 31t95 -30t54 -84q4 -30 -1 -61t-21 -55t-41 -40t-59 -16q-66 0 -112 44t-46 112zM700 1968q0 68 40 99t91 31t95 -30t54 -84q4 -30 -1 -61t-21 -55t-41 -40t-59 -16 q-66 0 -112 44t-46 112z" />
<glyph unicode="&#x2c6;" horiz-adv-x="696" d="M114 1610q0 4 28 31t67 58t78 56t61 25q22 22 56 4t74 -60l136 -122q2 -4 5 -12t3 -12v-4q0 -22 -13 -37t-31 -25t-39 -14t-39 -4h-16q-4 4 -15 14t-23 22t-22 21t-16 13q-10 6 -15 15t-9 16t-10 13t-18 6q-2 0 -10 -7t-18 -17q-12 -10 -26 -22l-60 -62q-16 -10 -23 -13 t-21 -3q-12 0 -26 15t-26 35t-21 40t-11 30z" />
<glyph unicode="&#x2dc;" horiz-adv-x="954" d="M62 1688q0 10 10 20l14 14q52 46 106 84t130 38q62 0 96 -32t58 -70t45 -70t59 -32q34 0 66 29t42 61q6 12 7 29t4 32t11 25t30 10q16 0 40 -6t47 -16t39 -26t16 -34q0 -52 -30 -102t-75 -90t-100 -64t-105 -24q-64 0 -104 32t-65 69t-42 69t-37 32q-28 0 -49 -15 t-40 -34t-40 -34t-51 -15q-34 0 -45 23t-23 45q-10 20 -12 23t-2 29z" />
<glyph unicode="&#x2000;" horiz-adv-x="1063" />
<glyph unicode="&#x2001;" horiz-adv-x="2126" />
<glyph unicode="&#x2002;" horiz-adv-x="1063" />
<glyph unicode="&#x2003;" horiz-adv-x="2126" />
<glyph unicode="&#x2004;" horiz-adv-x="708" />
<glyph unicode="&#x2005;" horiz-adv-x="531" />
<glyph unicode="&#x2006;" horiz-adv-x="354" />
<glyph unicode="&#x2007;" horiz-adv-x="354" />
<glyph unicode="&#x2008;" horiz-adv-x="265" />
<glyph unicode="&#x2009;" horiz-adv-x="425" />
<glyph unicode="&#x200a;" horiz-adv-x="118" />
<glyph unicode="&#x2010;" horiz-adv-x="480" d="M29 650q-1 12 1 24t6 18q4 8 4 14v11t2 10t10 13q40 10 98 3t116 -3q18 -2 39 0t43 4t42 2t36 -6q10 -6 15 -28t4 -46t-8 -42t-21 -16q-12 -4 -52 -5t-86 -1t-89 1t-57 1q-8 0 -35 4t-43 8q-12 2 -18 12t-7 22z" />
<glyph unicode="&#x2011;" horiz-adv-x="480" d="M29 650q-1 12 1 24t6 18q4 8 4 14v11t2 10t10 13q40 10 98 3t116 -3q18 -2 39 0t43 4t42 2t36 -6q10 -6 15 -28t4 -46t-8 -42t-21 -16q-12 -4 -52 -5t-86 -1t-89 1t-57 1q-8 0 -35 4t-43 8q-12 2 -18 12t-7 22z" />
<glyph unicode="&#x2012;" horiz-adv-x="480" d="M29 650q-1 12 1 24t6 18q4 8 4 14v11t2 10t10 13q40 10 98 3t116 -3q18 -2 39 0t43 4t42 2t36 -6q10 -6 15 -28t4 -46t-8 -42t-21 -16q-12 -4 -52 -5t-86 -1t-89 1t-57 1q-8 0 -35 4t-43 8q-12 2 -18 12t-7 22z" />
<glyph unicode="&#x2013;" horiz-adv-x="480" d="M29 650q-1 12 1 24t6 18q4 8 4 14v11t2 10t10 13q40 10 98 3t116 -3q18 -2 39 0t43 4t42 2t36 -6q10 -6 15 -28t4 -46t-8 -42t-21 -16q-12 -4 -52 -5t-86 -1t-89 1t-57 1q-8 0 -35 4t-43 8q-12 2 -18 12t-7 22z" />
<glyph unicode="&#x2014;" horiz-adv-x="644" d="M29 650q-1 12 1 24t6 18q4 8 4 14v11t2 10t10 13q20 4 70 5t108 0t113 -2t83 1q18 -2 39 0t43 4t42 2t36 -6q10 -6 15 -28t4 -46t-8 -42t-21 -16q-8 -2 -41 -4t-79 -3t-98 -1t-99 -1t-82 0t-45 1q-8 0 -35 4t-43 8q-12 2 -18 12t-7 22z" />
<glyph unicode="&#x2018;" horiz-adv-x="540" d="M106 1206q0 44 13 90t38 85t62 64t87 25q16 0 29 -11t13 -27v-6q-10 -22 -32 -49t-32 -39q-2 -2 -2 -4v-2q0 -8 23 -18t29 -14q38 -34 51 -63t13 -77v-38q-4 -16 -17 -33t-30 -32t-35 -24t-34 -9q-92 0 -134 43t-42 139z" />
<glyph unicode="&#x2019;" horiz-adv-x="540" d="M106 1334q0 20 8 44t23 44t36 34t49 14q92 0 134 -43t42 -139q0 -44 -13 -90t-38 -85t-62 -64t-87 -25q-16 0 -29 11t-13 27v6q10 22 32 49t32 39l2 4v2q0 8 -23 18t-29 14q-38 34 -51 63t-13 77z" />
<glyph unicode="&#x201a;" horiz-adv-x="540" d="M114 172v38q4 16 17 33t30 32t35 24t34 9q92 0 134 -43t42 -139q0 -44 -13 -90t-38 -85t-62 -64t-87 -25q-16 0 -29 11t-13 27v6q10 22 32 49t32 39l2 4v2q0 8 -23 18t-29 14q-38 34 -51 63t-13 77z" />
<glyph unicode="&#x201c;" horiz-adv-x="960" d="M96 1380q0 44 13 90t38 85t62 64t87 25q16 0 29 -11t13 -27v-6q-10 -22 -32 -49t-32 -39q-2 -2 -2 -4v-2q0 -8 23 -18t29 -14q38 -34 51 -63t13 -77v-38q-4 -16 -17 -33t-30 -32t-35 -24t-34 -9q-92 0 -134 43t-42 139zM490 1368q0 44 13 90t38 85t62 64t87 25 q16 0 29 -11t13 -27v-6q-10 -22 -32 -49t-32 -39q-2 -2 -2 -4v-2q0 -8 23 -18t29 -14q38 -34 51 -63t13 -77v-38q-4 -16 -17 -33t-30 -32t-35 -24t-34 -9q-92 0 -134 43t-42 139z" />
<glyph unicode="&#x201d;" d="M96 1508v38q4 16 17 33t30 32t35 24t34 9q92 0 134 -43t42 -139q0 -44 -13 -90t-38 -85t-62 -64t-87 -25q-16 0 -29 11t-13 27v6q10 22 32 49t32 39l2 4v2q0 8 -23 18t-29 14q-38 34 -51 63t-13 77zM490 1496v38q4 16 17 33t30 32t35 24t34 9q92 0 134 -43t42 -139 q0 -44 -13 -90t-38 -85t-62 -64t-87 -25q-16 0 -29 11t-13 27v6q10 22 32 49t32 39l2 4v2q0 8 -23 18t-29 14q-38 34 -51 63t-13 77z" />
<glyph unicode="&#x201e;" d="M174 164v38q4 16 17 33t30 32t35 24t34 9q92 0 134 -43t42 -139q0 -44 -13 -90t-38 -85t-62 -64t-87 -25q-16 0 -29 11t-13 27v6q10 22 32 49t32 39l2 4v2q0 8 -23 18t-29 14q-38 34 -51 63t-13 77zM568 152v38q4 16 17 33t30 32t35 24t34 9q92 0 134 -43t42 -139 q0 -44 -13 -90t-38 -85t-62 -64t-87 -25q-16 0 -29 11t-13 27v6q10 22 32 49t32 39l2 4v2q0 8 -23 18t-29 14q-38 34 -51 63t-13 77z" />
<glyph unicode="&#x2022;" horiz-adv-x="436" d="M74 800q0 74 44 108t100 34t105 -32t59 -92q6 -34 0 -67t-23 -61t-45 -45t-66 -17q-72 0 -123 48t-51 124z" />
<glyph unicode="&#x2026;" horiz-adv-x="1638" d="M116 180q0 24 11 53t31 53t45 40t55 16t62 -6t58 -20t43 -40t17 -64q0 -34 -9 -71t-28 -67t-47 -50t-66 -20q-72 0 -122 49t-50 127zM662 180q0 24 11 53t31 53t45 40t55 16t62 -6t58 -20t43 -40t17 -64q0 -34 -9 -71t-28 -67t-47 -50t-66 -20q-72 0 -122 49t-50 127z M1208 180q0 24 11 53t31 53t45 40t55 16t62 -6t58 -20t43 -40t17 -64q0 -34 -9 -71t-28 -67t-47 -50t-66 -20q-72 0 -122 49t-50 127z" />
<glyph unicode="&#x202f;" horiz-adv-x="425" />
<glyph unicode="&#x205f;" horiz-adv-x="531" />
<glyph unicode="&#x20ac;" horiz-adv-x="1370" d="M25 676q-1 12 1 24t6 18q4 8 4 14v11t2 10t10 13q20 4 42 5t50 -1q0 22 1 44t3 44q-4 0 -8 1t-6 1q-8 0 -35 4t-43 8q-12 2 -18 12t-7 22t1 24t6 18q4 8 4 14v11t2 10t10 13q22 4 50 4t60 -2q12 76 32 152t51 146t73 129t98 101q8 6 28 23t43 35t43 34t30 22 q48 18 104 37t108 19q22 0 52 -5t61 -15t58 -24t45 -30q32 -32 65 -57t55 -63q2 16 1 35t2 35t14 27t37 11h12q14 -2 46 -1t46 -1q8 0 8 -8q4 -8 10 -32t6 -32q0 -20 1 -59t2 -82t1 -83v-60q0 -2 1 -13t3 -23t3 -23t1 -13q0 -26 -14 -37t-33 -13t-41 0t-40 2q-16 0 -28 4 t-24 20q-8 10 -14 31t-12 44t-11 45t-7 36q-8 30 -35 68t-64 73t-83 59t-90 24t-102 -1t-100 -29q-36 -40 -66 -67t-54 -54t-43 -59t-35 -80q-26 -74 -42 -133t-26 -117h69h111t129 -1t125 -2t97 -3t47 -4q10 -6 15 -28t4 -46t-8 -42t-21 -16q-4 -2 -41 -2h-93t-123 1 t-130 2t-115 2t-78 1q-2 -22 -2 -45v-49q20 0 69 1t112 1h132t128 -1t100 -4t49 -5q10 -6 15 -28t4 -46t-8 -42t-21 -16q-4 -2 -41 -2h-93t-123 1t-130 2t-114 2t-77 1q8 -70 36 -148t73 -149t107 -124t138 -73h152q46 14 84 40t68 60t52 73t36 75q2 6 5 22t7 34t7 34t5 22 q4 16 6 32t2 32q0 4 -1 10t-7 6h-64q-10 0 -17 18t-7 22v35t4 33q4 44 48 50q24 -2 40 -3t31 -2t30 -1h37q24 0 48 4t58 4q8 -22 16 -29t12 -13t7 -15t3 -33q0 -4 -1 -22t-1 -22q-4 -22 -27 -26t-37 -14q-6 -4 -12 -32t-12 -63t-12 -69t-12 -52q-14 -46 -44 -97t-72 -97 t-94 -82t-112 -54q-122 -18 -203 -14t-133 17t-82 29t-48 26q-62 42 -111 105t-85 137t-60 155t-34 159q-8 0 -12 1t-8 1q-8 0 -35 4t-43 8q-12 2 -18 12t-7 22z" />
<glyph unicode="&#xe000;" horiz-adv-x="1440" d="M0 0v1440h1440v-1440h-1440z" />
</font>
</defs>
</svg>
